HikasamiRegular.glyphspackage
<glyph name="quotedbl" format="2">
  <advance width="309"/>
  <unicode hex="0022"/>
  <outline>
    <contour>
      <point x="187" y="513" type="line"/>
      <point x="237" y="513" type="line"/>
      <point x="237" y="739" type="line"/>
      <point x="187" y="739" type="line"/>
    </contour>
    <contour>
      <point x="74" y="513" type="line"/>
      <point x="124" y="513" type="line"/>
      <point x="124" y="739" type="line"/>
      <point x="74" y="739" type="line"/>
    </contour>
  </outline>
</glyph>
<glyph name="dollar" format="2">
  <advance width="554"/>
  <unicode hex="0024"/>
  <outline>
    <contour>
      <point x="245" y="-56" type="line"/>
      <point x="311" y="-56" type="line"/>
      <point x="311" y="29" type="line"/>
      <point x="348" y="33"/>
      <point x="410" y="65"/>
      <point x="454" y="118"/>
      <point x="479" y="186"/>
      <point x="479" y="226" type="qcurve"/>
      <point x="479" y="265"/>
      <point x="459" y="326"/>
      <point x="414" y="374"/>
      <point x="345" y="413"/>
      <point x="296" y="428" type="qcurve"/>
      <point x="260" y="439"/>
      <point x="213" y="462"/>
      <point x="185" y="489"/>
      <point x="174" y="523"/>
      <point x="174" y="546" type="qcurve"/>
      <point x="174" y="601"/>
      <point x="235" y="665"/>
      <point x="287" y="665" type="qcurve"/>
      <point x="339" y="665"/>
      <point x="400" y="603"/>
      <point x="403" y="547" type="qcurve"/>
      <point x="473" y="547" type="line"/>
      <point x="472" y="584"/>
      <point x="448" y="646"/>
      <point x="406" y="692"/>
      <point x="348" y="722"/>
      <point x="311" y="728" type="qcurve"/>
      <point x="311" y="810" type="line"/>
      <point x="245" y="810" type="line"/>
      <point x="245" y="728" type="line"/>
      <point x="177" y="714"/>
      <point x="100" y="620"/>
      <point x="100" y="552" type="qcurve"/>
      <point x="100" y="478"/>
      <point x="179" y="390"/>
      <point x="270" y="363" type="qcurve"/>
      <point x="344" y="341"/>
      <point x="405" y="278"/>
      <point x="405" y="224" type="qcurve"/>
      <point x="405" y="165"/>
      <point x="333" y="90"/>
      <point x="277" y="90" type="qcurve"/>
      <point x="217" y="90"/>
      <point x="148" y="162"/>
      <point x="144" y="228" type="qcurve"/>
      <point x="74" y="228" type="line"/>
      <point x="74" y="144"/>
      <point x="159" y="45"/>
      <point x="245" y="29" type="qcurve"/>
    </contour>
  </outline>
</glyph>
<glyph name="percent" format="2">
  <advance width="775"/>
  <unicode hex="0025"/>
  <outline>
    <contour>
      <point x="182" y="0" type="line"/>
      <point x="254" y="0" type="line"/>
      <point x="588" y="739" type="line"/>
      <point x="514" y="739" type="line"/>
    </contour>
    <contour>
      <point x="576" y="-13" type="qcurve"/>
      <point x="612" y="-13"/>
      <point x="676" y="15"/>
      <point x="724" y="63"/>
      <point x="752" y="127"/>
      <point x="752" y="163" type="qcurve"/>
      <point x="752" y="199"/>
      <point x="724" y="262"/>
      <point x="677" y="310"/>
      <point x="614" y="338"/>
      <point x="579" y="338" type="qcurve"/>
      <point x="541" y="338"/>
      <point x="476" y="311"/>
      <point x="428" y="263"/>
      <point x="401" y="199"/>
      <point x="401" y="162" type="qcurve"/>
      <point x="401" y="126"/>
      <point x="429" y="62"/>
      <point x="476" y="15"/>
      <point x="540" y="-13"/>
    </contour>
    <contour>
      <point x="576" y="53" type="qcurve"/>
      <point x="554" y="53"/>
      <point x="514" y="70"/>
      <point x="485" y="100"/>
      <point x="468" y="140"/>
      <point x="468" y="163" type="qcurve"/>
      <point x="468" y="185"/>
      <point x="485" y="225"/>
      <point x="514" y="255"/>
      <point x="553" y="272"/>
      <point x="575" y="272" type="qcurve"/>
      <point x="598" y="272"/>
      <point x="638" y="255"/>
      <point x="667" y="225"/>
      <point x="684" y="185"/>
      <point x="684" y="162" type="qcurve"/>
      <point x="684" y="139"/>
      <point x="667" y="100"/>
      <point x="638" y="70"/>
      <point x="598" y="53"/>
    </contour>
    <contour>
      <point x="188" y="397" type="qcurve"/>
      <point x="224" y="397"/>
      <point x="288" y="425"/>
      <point x="336" y="473"/>
      <point x="364" y="537"/>
      <point x="364" y="573" type="qcurve"/>
      <point x="364" y="609"/>
      <point x="336" y="673"/>
      <point x="289" y="721"/>
      <point x="226" y="749"/>
      <point x="191" y="749" type="qcurve"/>
      <point x="154" y="749"/>
      <point x="89" y="722"/>
      <point x="41" y="674"/>
      <point x="13" y="610"/>
      <point x="13" y="573" type="qcurve"/>
      <point x="13" y="537"/>
      <point x="41" y="473"/>
      <point x="88" y="425"/>
      <point x="152" y="397"/>
    </contour>
    <contour>
      <point x="188" y="463" type="qcurve"/>
      <point x="165" y="463"/>
      <point x="126" y="480"/>
      <point x="96" y="510"/>
      <point x="79" y="550"/>
      <point x="79" y="573" type="qcurve"/>
      <point x="79" y="595"/>
      <point x="96" y="635"/>
      <point x="125" y="665"/>
      <point x="164" y="683"/>
      <point x="186" y="683" type="qcurve"/>
      <point x="233" y="683"/>
      <point x="296" y="619"/>
      <point x="296" y="572" type="qcurve"/>
      <point x="296" y="550"/>
      <point x="279" y="510"/>
      <point x="250" y="480"/>
      <point x="210" y="463"/>
    </contour>
  </outline>
</glyph>
<glyph name="ampersand" format="2">
  <advance width="757"/>
  <unicode hex="0026"/>
  <outline>
    <contour>
      <point x="57" y="213" type="qcurve"/>
      <point x="57" y="165"/>
      <point x="92" y="82"/>
      <point x="155" y="21"/>
      <point x="240" y="-13"/>
      <point x="290" y="-13" type="qcurve"/>
      <point x="327" y="-13"/>
      <point x="390" y="6"/>
      <point x="444" y="47"/>
      <point x="491" y="109"/>
      <point x="513" y="153" type="qcurve"/>
      <point x="684" y="-13" type="line"/>
      <point x="735" y="38" type="line"/>
      <point x="548" y="220" type="line"/>
      <point x="684" y="481" type="line"/>
      <point x="602" y="481" type="line"/>
      <point x="494" y="273" type="line"/>
      <point x="354" y="411" type="line"/>
      <point x="382" y="425"/>
      <point x="434" y="455"/>
      <point x="474" y="494"/>
      <point x="498" y="546"/>
      <point x="498" y="583" type="qcurve"/>
      <point x="498" y="619"/>
      <point x="471" y="681"/>
      <point x="423" y="726"/>
      <point x="358" y="752"/>
      <point x="320" y="752" type="qcurve"/>
      <point x="283" y="752"/>
      <point x="219" y="727"/>
      <point x="172" y="682"/>
      <point x="145" y="622"/>
      <point x="145" y="588" type="qcurve"/>
      <point x="145" y="568"/>
      <point x="153" y="533"/>
      <point x="172" y="497"/>
      <point x="204" y="457"/>
      <point x="227" y="433" type="qcurve"/>
      <point x="136" y="387"/>
      <point x="57" y="284"/>
    </contour>
    <contour>
      <point x="300" y="464" type="qcurve"/>
      <point x="256" y="504"/>
      <point x="219" y="562"/>
      <point x="219" y="590" type="qcurve"/>
      <point x="219" y="630"/>
      <point x="278" y="685"/>
      <point x="322" y="685" type="qcurve"/>
      <point x="368" y="685"/>
      <point x="428" y="631"/>
      <point x="428" y="589" type="qcurve"/>
      <point x="428" y="550"/>
      <point x="366" y="490"/>
    </contour>
    <contour>
      <point x="130" y="205" type="qcurve"/>
      <point x="130" y="261"/>
      <point x="198" y="340"/>
      <point x="280" y="380" type="qcurve"/>
      <point x="458" y="206" type="line"/>
      <point x="418" y="124"/>
      <point x="338" y="54"/>
      <point x="285" y="54" type="qcurve"/>
      <point x="253" y="54"/>
      <point x="196" y="77"/>
      <point x="154" y="118"/>
      <point x="130" y="173"/>
    </contour>
  </outline>
</glyph>
<glyph name="quotesingle" format="2">
  <advance width="198"/>
  <unicode hex="0027"/>
  <outline>
    <contour>
      <point x="74" y="513" type="line"/>
      <point x="124" y="513" type="line"/>
      <point x="124" y="739" type="line"/>
      <point x="74" y="739" type="line"/>
    </contour>
  </outline>
</glyph>
<glyph name="parenleft" format="2">
  <advance width="369"/>
  <unicode hex="0028"/>
  <outline>
    <contour>
      <point x="335" y="-60" type="line"/>
      <point x="288" y="-31"/>
      <point x="212" y="50"/>
      <point x="159" y="145"/>
      <point x="131" y="253"/>
      <point x="131" y="309" type="qcurve"/>
      <point x="131" y="364"/>
      <point x="160" y="472"/>
      <point x="213" y="567"/>
      <point x="288" y="648"/>
      <point x="335" y="676" type="qcurve"/>
      <point x="335" y="739" type="line"/>
      <point x="275" y="718"/>
      <point x="173" y="633"/>
      <point x="99" y="518"/>
      <point x="57" y="381"/>
      <point x="57" y="309" type="qcurve"/>
      <point x="57" y="237"/>
      <point x="99" y="100"/>
      <point x="174" y="-16"/>
      <point x="275" y="-104"/>
      <point x="335" y="-125" type="qcurve"/>
    </contour>
  </outline>
</glyph>
<glyph name="parenright" format="2">
  <advance width="369"/>
  <unicode hex="0029"/>
  <outline>
    <contour>
      <point x="34" y="-125" type="line"/>
      <point x="94" y="-104"/>
      <point x="196" y="-19"/>
      <point x="270" y="96"/>
      <point x="312" y="233"/>
      <point x="312" y="305" type="qcurve"/>
      <point x="312" y="377"/>
      <point x="270" y="515"/>
      <point x="196" y="631"/>
      <point x="94" y="717"/>
      <point x="34" y="739" type="qcurve"/>
      <point x="34" y="674" type="line"/>
      <point x="81" y="645"/>
      <point x="157" y="565"/>
      <point x="210" y="469"/>
      <point x="238" y="362"/>
      <point x="238" y="306" type="qcurve"/>
      <point x="238" y="250"/>
      <point x="209" y="142"/>
      <point x="155" y="46"/>
      <point x="80" y="-34"/>
      <point x="34" y="-61" type="qcurve"/>
    </contour>
  </outline>
</glyph>
<glyph name="comma" format="2">
  <advance width="235"/>
  <unicode hex="002C"/>
  <outline>
    <contour>
      <point x="91" y="0" type="line"/>
      <point x="121" y="0" type="line"/>
      <point x="121" y="-27" type="line"/>
      <point x="121" y="-49"/>
      <point x="90" y="-82"/>
      <point x="70" y="-82" type="qcurve"/>
      <point x="70" y="-126" type="line"/>
      <point x="89" y="-126"/>
      <point x="124" y="-109"/>
      <point x="150" y="-80"/>
      <point x="165" y="-41"/>
      <point x="165" y="-20" type="qcurve"/>
      <point x="165" y="126" type="line"/>
      <point x="91" y="126" type="line"/>
    </contour>
  </outline>
</glyph>
<glyph name="hyphenminus" format="2">
  <advance width="332"/>
  <unicode hex="002D"/>
  <outline>
    <contour>
      <point x="31" y="233" type="line"/>
      <point x="302" y="233" type="line"/>
      <point x="302" y="296" type="line"/>
      <point x="31" y="296" type="line"/>
    </contour>
  </outline>
</glyph>
<glyph name="slash" format="2">
  <advance width="437"/>
  <unicode hex="002F"/>
  <outline>
    <contour>
      <point x="40" y="-128" type="line"/>
      <point x="107" y="-128" type="line"/>
      <point x="397" y="739" type="line"/>
      <point x="327" y="739" type="line"/>
    </contour>
  </outline>
</glyph>
<glyph name="zero" format="2">
  <advance width="554"/>
  <unicode hex="0030"/>
  <outline>
    <contour>
      <point x="30" y="269" type="line"/>
      <point x="30" y="130"/>
      <point x="158" y="-13"/>
      <point x="283" y="-13" type="qcurve"/>
      <point x="404" y="-13"/>
      <point x="525" y="128"/>
      <point x="525" y="269" type="qcurve"/>
      <point x="525" y="479" type="line"/>
      <point x="525" y="545"/>
      <point x="492" y="646"/>
      <point x="429" y="716"/>
      <point x="337" y="752"/>
      <point x="277" y="752" type="qcurve"/>
      <point x="217" y="752"/>
      <point x="125" y="716"/>
      <point x="62" y="647"/>
      <point x="30" y="545"/>
      <point x="30" y="479" type="qcurve"/>
    </contour>
    <contour>
      <point x="103" y="281" type="qcurve"/>
      <point x="103" y="462" type="line"/>
      <point x="103" y="575"/>
      <point x="189" y="685"/>
      <point x="278" y="685" type="qcurve"/>
      <point x="366" y="685"/>
      <point x="452" y="575"/>
      <point x="452" y="462" type="qcurve"/>
      <point x="452" y="281" type="line"/>
      <point x="452" y="163"/>
      <point x="370" y="54"/>
      <point x="280" y="54" type="qcurve"/>
      <point x="190" y="54"/>
      <point x="103" y="165"/>
    </contour>
  </outline>
</glyph>
<glyph name="one" format="2">
  <advance width="554"/>
  <unicode hex="0031"/>
  <outline>
    <contour>
      <point x="281" y="0" type="line"/>
      <point x="354" y="0" type="line"/>
      <point x="354" y="739" type="line"/>
      <point x="155" y="739" type="line"/>
      <point x="155" y="672" type="line"/>
      <point x="281" y="672" type="line"/>
    </contour>
  </outline>
</glyph>
<glyph name="two" format="2">
  <advance width="554"/>
  <unicode hex="0032"/>
  <outline>
    <contour>
      <point x="33" y="0" type="line"/>
      <point x="502" y="0" type="line"/>
      <point x="502" y="67" type="line"/>
      <point x="133" y="67" type="line"/>
      <point x="370" y="294" type="line"/>
      <point x="409" y="331"/>
      <point x="461" y="391"/>
      <point x="493" y="445"/>
      <point x="506" y="497"/>
      <point x="506" y="527" type="qcurve"/>
      <point x="506" y="576"/>
      <point x="471" y="659"/>
      <point x="409" y="718"/>
      <point x="324" y="752"/>
      <point x="273" y="752" type="qcurve"/>
      <point x="219" y="752"/>
      <point x="132" y="717"/>
      <point x="72" y="651"/>
      <point x="39" y="558"/>
      <point x="39" y="500" type="qcurve"/>
      <point x="112" y="500" type="line"/>
      <point x="112" y="588"/>
      <point x="196" y="685"/>
      <point x="272" y="685" type="qcurve"/>
      <point x="307" y="685"/>
      <point x="366" y="662"/>
      <point x="408" y="621"/>
      <point x="432" y="565"/>
      <point x="432" y="531" type="qcurve"/>
      <point x="432" y="506"/>
      <point x="422" y="465"/>
      <point x="392" y="419"/>
      <point x="337" y="360"/>
      <point x="292" y="317" type="qcurve"/>
      <point x="33" y="67" type="line"/>
    </contour>
  </outline>
</glyph>
<glyph name="three" format="2">
  <advance width="554"/>
  <unicode hex="0033"/>
  <outline>
    <contour>
      <point x="33" y="231" type="line"/>
      <point x="35" y="175"/>
      <point x="71" y="85"/>
      <point x="134" y="21"/>
      <point x="220" y="-13"/>
      <point x="273" y="-13" type="qcurve"/>
      <point x="321" y="-13"/>
      <point x="406" y="24"/>
      <point x="468" y="88"/>
      <point x="504" y="174"/>
      <point x="504" y="224" type="qcurve"/>
      <point x="504" y="292"/>
      <point x="441" y="392"/>
      <point x="379" y="423" type="qcurve"/>
      <point x="418" y="450"/>
      <point x="455" y="519"/>
      <point x="455" y="565" type="qcurve"/>
      <point x="455" y="606"/>
      <point x="428" y="675"/>
      <point x="379" y="725"/>
      <point x="310" y="752"/>
      <point x="269" y="752" type="qcurve"/>
      <point x="185" y="752"/>
      <point x="85" y="646"/>
      <point x="82" y="555" type="qcurve"/>
      <point x="155" y="555" type="line"/>
      <point x="156" y="618"/>
      <point x="215" y="685"/>
      <point x="269" y="685" type="qcurve"/>
      <point x="319" y="685"/>
      <point x="381" y="620"/>
      <point x="381" y="569" type="qcurve"/>
      <point x="381" y="520"/>
      <point x="324" y="454"/>
      <point x="282" y="454" type="qcurve"/>
      <point x="219" y="454" type="line"/>
      <point x="219" y="388" type="line"/>
      <point x="237" y="388" type="line"/>
      <point x="331" y="388"/>
      <point x="430" y="302"/>
      <point x="430" y="220" type="qcurve"/>
      <point x="430" y="185"/>
      <point x="406" y="124"/>
      <point x="363" y="79"/>
      <point x="304" y="54"/>
      <point x="270" y="54" type="qcurve"/>
      <point x="198" y="54"/>
      <point x="112" y="146"/>
      <point x="106" y="231" type="qcurve"/>
    </contour>
  </outline>
</glyph>
<glyph name="four" format="2">
  <advance width="554"/>
  <unicode hex="0034"/>
  <outline>
    <contour>
      <point x="12" y="135" type="line"/>
      <point x="386" y="135" type="line"/>
      <point x="386" y="0" type="line"/>
      <point x="459" y="0" type="line"/>
      <point x="459" y="135" type="line"/>
      <point x="527" y="135" type="line"/>
      <point x="527" y="202" type="line"/>
      <point x="459" y="202" type="line"/>
      <point x="459" y="739" type="line"/>
      <point x="372" y="739" type="line"/>
      <point x="12" y="202" type="line"/>
    </contour>
    <contour>
      <point x="97" y="202" type="line"/>
      <point x="386" y="637" type="line"/>
      <point x="386" y="202" type="line"/>
    </contour>
  </outline>
</glyph>
<glyph name="five" format="2">
  <advance width="554"/>
  <unicode hex="0035"/>
  <outline>
    <contour>
      <point x="26" y="232" type="line"/>
      <point x="34" y="175"/>
      <point x="77" y="84"/>
      <point x="143" y="21"/>
      <point x="229" y="-13"/>
      <point x="280" y="-13" type="qcurve"/>
      <point x="332" y="-13"/>
      <point x="423" y="27"/>
      <point x="490" y="97"/>
      <point x="528" y="191"/>
      <point x="528" y="246" type="qcurve"/>
      <point x="528" y="300"/>
      <point x="490" y="394"/>
      <point x="424" y="463"/>
      <point x="335" y="503"/>
      <point x="283" y="503" type="qcurve"/>
      <point x="249" y="503"/>
      <point x="189" y="487"/>
      <point x="156" y="468" type="qcurve"/>
      <point x="192" y="672" type="line"/>
      <point x="466" y="672" type="line"/>
      <point x="466" y="739" type="line"/>
      <point x="133" y="739" type="line"/>
      <point x="67" y="375" type="line"/>
      <point x="124" y="353" type="line"/>
      <point x="158" y="395"/>
      <point x="233" y="436"/>
      <point x="277" y="436" type="qcurve"/>
      <point x="315" y="436"/>
      <point x="380" y="407"/>
      <point x="427" y="356"/>
      <point x="454" y="287"/>
      <point x="454" y="246" type="qcurve"/>
      <point x="454" y="205"/>
      <point x="427" y="135"/>
      <point x="379" y="84"/>
      <point x="314" y="54"/>
      <point x="277" y="54" type="qcurve"/>
      <point x="242" y="54"/>
      <point x="181" y="80"/>
      <point x="134" y="127"/>
      <point x="103" y="192"/>
      <point x="98" y="232" type="qcurve"/>
    </contour>
  </outline>
</glyph>
<glyph name="six" format="2">
  <advance width="554"/>
  <unicode hex="0036"/>
  <outline>
    <contour>
      <point x="296" y="739" type="line"/>
      <point x="113" y="467" type="line"/>
      <point x="86" y="427"/>
      <point x="52" y="369"/>
      <point x="33" y="319"/>
      <point x="25" y="272"/>
      <point x="25" y="244" type="qcurve"/>
      <point x="25" y="189"/>
      <point x="64" y="95"/>
      <point x="132" y="26"/>
      <point x="225" y="-13"/>
      <point x="280" y="-13" type="qcurve"/>
      <point x="334" y="-13"/>
      <point x="425" y="26"/>
      <point x="492" y="96"/>
      <point x="529" y="192"/>
      <point x="529" y="249" type="qcurve"/>
      <point x="529" y="302"/>
      <point x="492" y="395"/>
      <point x="429" y="464"/>
      <point x="342" y="503"/>
      <point x="293" y="503" type="qcurve"/>
      <point x="269" y="503"/>
      <point x="231" y="494"/>
      <point x="207" y="482" type="qcurve"/>
      <point x="381" y="739" type="line"/>
    </contour>
    <contour>
      <point x="279" y="54" type="qcurve"/>
      <point x="240" y="54"/>
      <point x="174" y="83"/>
      <point x="126" y="134"/>
      <point x="99" y="205"/>
      <point x="99" y="246" type="qcurve"/>
      <point x="99" y="286"/>
      <point x="126" y="356"/>
      <point x="174" y="407"/>
      <point x="238" y="436"/>
      <point x="276" y="436" type="qcurve"/>
      <point x="316" y="436"/>
      <point x="382" y="408"/>
      <point x="429" y="358"/>
      <point x="455" y="287"/>
      <point x="455" y="245" type="qcurve"/>
      <point x="455" y="203"/>
      <point x="429" y="133"/>
      <point x="382" y="82"/>
      <point x="317" y="54"/>
    </contour>
  </outline>
</glyph>
<glyph name="seven" format="2">
  <advance width="554"/>
  <unicode hex="0037"/>
  <outline>
    <contour>
      <point x="110" y="0" type="line"/>
      <point x="188" y="0" type="line"/>
      <point x="490" y="672" type="line"/>
      <point x="490" y="739" type="line"/>
      <point x="64" y="739" type="line"/>
      <point x="64" y="672" type="line"/>
      <point x="414" y="672" type="line"/>
    </contour>
  </outline>
</glyph>
<glyph name="eight" format="2">
  <advance width="554"/>
  <unicode hex="0038"/>
  <outline>
    <contour>
      <point x="42" y="215" type="qcurve"/>
      <point x="42" y="166"/>
      <point x="78" y="83"/>
      <point x="142" y="22"/>
      <point x="229" y="-13"/>
      <point x="280" y="-13" type="qcurve"/>
      <point x="331" y="-13"/>
      <point x="416" y="21"/>
      <point x="478" y="83"/>
      <point x="512" y="167"/>
      <point x="512" y="218" type="qcurve"/>
      <point x="512" y="286"/>
      <point x="447" y="386"/>
      <point x="385" y="413" type="qcurve"/>
      <point x="430" y="434"/>
      <point x="473" y="506"/>
      <point x="473" y="561" type="qcurve"/>
      <point x="473" y="603"/>
      <point x="444" y="673"/>
      <point x="392" y="724"/>
      <point x="321" y="752"/>
      <point x="278" y="752" type="qcurve"/>
      <point x="236" y="752"/>
      <point x="164" y="723"/>
      <point x="111" y="672"/>
      <point x="81" y="602"/>
      <point x="81" y="561" type="qcurve"/>
      <point x="81" y="510"/>
      <point x="122" y="439"/>
      <point x="167" y="413" type="qcurve"/>
      <point x="106" y="384"/>
      <point x="42" y="282"/>
    </contour>
    <contour>
      <point x="280" y="444" type="qcurve"/>
      <point x="253" y="444"/>
      <point x="207" y="463"/>
      <point x="174" y="495"/>
      <point x="155" y="540"/>
      <point x="155" y="566" type="qcurve"/>
      <point x="155" y="618"/>
      <point x="222" y="685"/>
      <point x="275" y="685" type="qcurve"/>
      <point x="331" y="685"/>
      <point x="399" y="619"/>
      <point x="399" y="565" type="qcurve"/>
      <point x="399" y="539"/>
      <point x="381" y="495"/>
      <point x="349" y="462"/>
      <point x="305" y="444"/>
    </contour>
    <contour>
      <point x="116" y="213" type="qcurve"/>
      <point x="116" y="249"/>
      <point x="139" y="308"/>
      <point x="182" y="351"/>
      <point x="240" y="375"/>
      <point x="275" y="375" type="qcurve"/>
      <point x="311" y="375"/>
      <point x="371" y="352"/>
      <point x="414" y="310"/>
      <point x="438" y="251"/>
      <point x="438" y="216" type="qcurve"/>
      <point x="438" y="180"/>
      <point x="415" y="121"/>
      <point x="372" y="78"/>
      <point x="314" y="54"/>
      <point x="279" y="54" type="qcurve"/>
      <point x="244" y="54"/>
      <point x="184" y="78"/>
      <point x="140" y="120"/>
      <point x="116" y="178"/>
    </contour>
  </outline>
</glyph>
<glyph name="nine" format="2">
  <advance width="554"/>
  <unicode hex="0039"/>
  <outline>
    <contour>
      <point x="173" y="0" type="line"/>
      <point x="258" y="0" type="line"/>
      <point x="441" y="272" type="line"/>
      <point x="468" y="312"/>
      <point x="502" y="370"/>
      <point x="521" y="420"/>
      <point x="529" y="467"/>
      <point x="529" y="495" type="qcurve"/>
      <point x="529" y="550"/>
      <point x="490" y="644"/>
      <point x="422" y="713"/>
      <point x="329" y="752"/>
      <point x="274" y="752" type="qcurve"/>
      <point x="220" y="752"/>
      <point x="129" y="713"/>
      <point x="62" y="643"/>
      <point x="25" y="547"/>
      <point x="25" y="490" type="qcurve"/>
      <point x="25" y="437"/>
      <point x="62" y="344"/>
      <point x="125" y="275"/>
      <point x="212" y="236"/>
      <point x="261" y="236" type="qcurve"/>
      <point x="285" y="236"/>
      <point x="323" y="245"/>
      <point x="347" y="257" type="qcurve"/>
    </contour>
    <contour>
      <point x="276" y="303" type="qcurve"/>
      <point x="237" y="303"/>
      <point x="172" y="331"/>
      <point x="125" y="382"/>
      <point x="99" y="451"/>
      <point x="99" y="493" type="qcurve"/>
      <point x="99" y="535"/>
      <point x="125" y="605"/>
      <point x="171" y="656"/>
      <point x="234" y="685"/>
      <point x="272" y="685" type="qcurve"/>
      <point x="312" y="685"/>
      <point x="379" y="656"/>
      <point x="428" y="605"/>
      <point x="455" y="535"/>
      <point x="455" y="493" type="qcurve"/>
      <point x="455" y="452"/>
      <point x="428" y="383"/>
      <point x="380" y="332"/>
      <point x="314" y="303"/>
    </contour>
  </outline>
</glyph>
<glyph name="colon" format="2">
  <advance width="277"/>
  <unicode hex="003A"/>
  <outline>
    <contour>
      <point x="101" y="0" type="line"/>
      <point x="175" y="0" type="line"/>
      <point x="175" y="126" type="line"/>
      <point x="101" y="126" type="line"/>
    </contour>
    <contour>
      <point x="101" y="381" type="line"/>
      <point x="175" y="381" type="line"/>
      <point x="175" y="507" type="line"/>
      <point x="101" y="507" type="line"/>
    </contour>
  </outline>
</glyph>
<glyph name="semicolon" format="2">
  <advance width="277"/>
  <unicode hex="003B"/>
  <outline>
    <contour>
      <point x="125" y="0" type="line"/>
      <point x="155" y="0" type="line"/>
      <point x="155" y="-27" type="line"/>
      <point x="155" y="-49"/>
      <point x="124" y="-82"/>
      <point x="104" y="-82" type="qcurve"/>
      <point x="104" y="-126" type="line"/>
      <point x="123" y="-126"/>
      <point x="158" y="-109"/>
      <point x="184" y="-80"/>
      <point x="199" y="-41"/>
      <point x="199" y="-20" type="qcurve"/>
      <point x="199" y="126" type="line"/>
      <point x="125" y="126" type="line"/>
    </contour>
    <contour>
      <point x="125" y="381" type="line"/>
      <point x="199" y="381" type="line"/>
      <point x="199" y="507" type="line"/>
      <point x="125" y="507" type="line"/>
    </contour>
  </outline>
</glyph>
<glyph name="equal" format="2">
  <advance width="606"/>
  <unicode hex="003D"/>
  <outline>
    <contour>
      <point x="51" y="362" type="line"/>
      <point x="555" y="362" type="line"/>
      <point x="555" y="436" type="line"/>
      <point x="51" y="436" type="line"/>
    </contour>
    <contour>
      <point x="51" y="164" type="line"/>
      <point x="555" y="164" type="line"/>
      <point x="555" y="238" type="line"/>
      <point x="51" y="238" type="line"/>
    </contour>
  </outline>
</glyph>
<glyph name="question" format="2">
  <advance width="591"/>
  <unicode hex="003F"/>
  <outline>
    <contour>
      <point x="333" y="193" type="line"/>
      <point x="333" y="216"/>
      <point x="344" y="256"/>
      <point x="368" y="296"/>
      <point x="407" y="339"/>
      <point x="435" y="365" type="qcurve"/>
      <point x="460" y="388"/>
      <point x="494" y="428"/>
      <point x="515" y="468"/>
      <point x="525" y="511"/>
      <point x="525" y="535" type="qcurve"/>
      <point x="525" y="582"/>
      <point x="491" y="662"/>
      <point x="431" y="720"/>
      <point x="348" y="752"/>
      <point x="299" y="752" type="qcurve"/>
      <point x="246" y="752"/>
      <point x="161" y="719"/>
      <point x="100" y="656"/>
      <point x="67" y="565"/>
      <point x="65" y="508" type="qcurve"/>
      <point x="135" y="508" type="line"/>
      <point x="143" y="597"/>
      <point x="224" y="685"/>
      <point x="299" y="685" type="qcurve"/>
      <point x="332" y="685"/>
      <point x="388" y="663"/>
      <point x="428" y="623"/>
      <point x="451" y="569"/>
      <point x="451" y="537" type="qcurve"/>
      <point x="451" y="518"/>
      <point x="443" y="487"/>
      <point x="424" y="455"/>
      <point x="392" y="420"/>
      <point x="367" y="397" type="qcurve"/>
      <point x="339" y="371"/>
      <point x="299" y="324"/>
      <point x="275" y="276"/>
      <point x="263" y="224"/>
      <point x="263" y="193" type="qcurve"/>
    </contour>
    <contour>
      <point x="261" y="0" type="line"/>
      <point x="335" y="0" type="line"/>
      <point x="335" y="126" type="line"/>
      <point x="261" y="126" type="line"/>
    </contour>
  </outline>
</glyph>
<glyph name="at" format="2">
  <advance width="820"/>
  <unicode hex="0040"/>
  <outline>
    <contour>
      <point x="663" y="138" type="line"/>
      <point x="615" y="88"/>
      <point x="497" y="37"/>
      <point x="429" y="37" type="qcurve"/>
      <point x="360" y="37"/>
      <point x="240" y="89"/>
      <point x="150" y="178"/>
      <point x="99" y="299"/>
      <point x="99" y="368" type="qcurve"/>
      <point x="99" y="437"/>
      <point x="151" y="558"/>
      <point x="240" y="648"/>
      <point x="360" y="701"/>
      <point x="428" y="701" type="qcurve"/>
      <point x="491" y="701"/>
      <point x="599" y="660"/>
      <point x="678" y="589"/>
      <point x="723" y="491"/>
      <point x="723" y="434" type="qcurve"/>
      <point x="723" y="392"/>
      <point x="692" y="305"/>
      <point x="643" y="235"/>
      <point x="582" y="191"/>
      <point x="552" y="191" type="qcurve"/>
      <point x="537" y="191"/>
      <point x="519" y="207"/>
      <point x="519" y="219" type="qcurve"/>
      <point x="519" y="230"/>
      <point x="526" y="259"/>
      <point x="539" y="296" type="qcurve"/>
      <point x="632" y="574" type="line"/>
      <point x="571" y="574" type="line"/>
      <point x="554" y="524" type="line"/>
      <point x="538" y="560"/>
      <point x="483" y="593"/>
      <point x="439" y="593" type="qcurve"/>
      <point x="392" y="593"/>
      <point x="305" y="542"/>
      <point x="236" y="458"/>
      <point x="195" y="349"/>
      <point x="195" y="292" type="qcurve"/>
      <point x="195" y="226"/>
      <point x="272" y="144"/>
      <point x="333" y="144" type="qcurve"/>
      <point x="369" y="144"/>
      <point x="424" y="168"/>
      <point x="452" y="196" type="qcurve"/>
      <point x="464" y="164"/>
      <point x="507" y="136"/>
      <point x="542" y="136" type="qcurve"/>
      <point x="587" y="136"/>
      <point x="672" y="186"/>
      <point x="738" y="270"/>
      <point x="778" y="377"/>
      <point x="778" y="434" type="qcurve"/>
      <point x="778" y="502"/>
      <point x="724" y="620"/>
      <point x="630" y="707"/>
      <point x="502" y="757"/>
      <point x="428" y="757" type="qcurve"/>
      <point x="348" y="757"/>
      <point x="207" y="696"/>
      <point x="102" y="590"/>
      <point x="42" y="448"/>
      <point x="42" y="367" type="qcurve"/>
      <point x="42" y="286"/>
      <point x="102" y="146"/>
      <point x="206" y="42"/>
      <point x="346" y="-18"/>
      <point x="427" y="-18" type="qcurve"/>
      <point x="510" y="-18"/>
      <point x="659" y="45"/>
      <point x="707" y="101" type="qcurve"/>
    </contour>
    <contour>
      <point x="347" y="202" type="qcurve"/>
      <point x="311" y="202"/>
      <point x="267" y="252"/>
      <point x="267" y="294" type="qcurve"/>
      <point x="267" y="339"/>
      <point x="297" y="427"/>
      <point x="345" y="496"/>
      <point x="407" y="539"/>
      <point x="439" y="539" type="qcurve"/>
      <point x="474" y="539"/>
      <point x="516" y="497"/>
      <point x="516" y="462" type="qcurve"/>
      <point x="516" y="418"/>
      <point x="484" y="326"/>
      <point x="435" y="251"/>
      <point x="375" y="202"/>
    </contour>
  </outline>
</glyph>
<glyph name="B" format="2">
  <advance width="574"/>
  <unicode hex="0042"/>
  <outline>
    <contour>
      <point x="76" y="0" type="line"/>
      <point x="259" y="0" type="line"/>
      <point x="407" y="0"/>
      <point x="544" y="102"/>
      <point x="544" y="212" type="qcurve"/>
      <point x="544" y="280"/>
      <point x="485" y="367"/>
      <point x="420" y="394" type="qcurve"/>
      <point x="463" y="418"/>
      <point x="502" y="491"/>
      <point x="502" y="547" type="qcurve"/>
      <point x="502" y="645"/>
      <point x="378" y="739"/>
      <point x="249" y="739" type="qcurve"/>
      <point x="76" y="739" type="line"/>
    </contour>
    <contour>
      <point x="150" y="67" type="line"/>
      <point x="150" y="354" type="line"/>
      <point x="289" y="354" type="line"/>
      <point x="374" y="354"/>
      <point x="469" y="278"/>
      <point x="469" y="208" type="qcurve"/>
      <point x="469" y="133"/>
      <point x="366" y="67"/>
      <point x="251" y="67" type="qcurve"/>
    </contour>
    <contour>
      <point x="150" y="421" type="line"/>
      <point x="150" y="672" type="line"/>
      <point x="239" y="672" type="line"/>
      <point x="342" y="672"/>
      <point x="427" y="615"/>
      <point x="427" y="546" type="qcurve"/>
      <point x="427" y="481"/>
      <point x="361" y="421"/>
      <point x="291" y="421" type="qcurve"/>
    </contour>
  </outline>
</glyph>
<glyph name="C" format="2">
  <advance width="813"/>
  <unicode hex="0043"/>
  <outline>
    <contour>
      <point x="688" y="194" type="line"/>
      <point x="633" y="121"/>
      <point x="510" y="55"/>
      <point x="431" y="55" type="qcurve"/>
      <point x="366" y="55"/>
      <point x="253" y="105"/>
      <point x="168" y="190"/>
      <point x="119" y="305"/>
      <point x="119" y="370" type="qcurve"/>
      <point x="119" y="437"/>
      <point x="167" y="552"/>
      <point x="250" y="636"/>
      <point x="364" y="684"/>
      <point x="430" y="684" type="qcurve"/>
      <point x="515" y="684"/>
      <point x="640" y="616"/>
      <point x="684" y="547" type="qcurve"/>
      <point x="767" y="547" type="line"/>
      <point x="746" y="595"/>
      <point x="677" y="670"/>
      <point x="589" y="724"/>
      <point x="484" y="752"/>
      <point x="427" y="752" type="qcurve"/>
      <point x="345" y="752"/>
      <point x="204" y="694"/>
      <point x="102" y="591"/>
      <point x="44" y="450"/>
      <point x="44" y="367" type="qcurve"/>
      <point x="44" y="286"/>
      <point x="103" y="147"/>
      <point x="207" y="45"/>
      <point x="349" y="-13"/>
      <point x="432" y="-13" type="qcurve"/>
      <point x="488" y="-13"/>
      <point x="587" y="13"/>
      <point x="672" y="65"/>
      <point x="742" y="143"/>
      <point x="770" y="194" type="qcurve"/>
    </contour>
  </outline>
</glyph>
<glyph name="D" format="2">
  <advance width="744"/>
  <unicode hex="0044"/>
  <outline>
    <contour>
      <point x="76" y="0" type="line"/>
      <point x="275" y="0" type="line"/>
      <point x="355" y="0"/>
      <point x="474" y="25"/>
      <point x="522" y="51" type="qcurve"/>
      <point x="609" y="99"/>
      <point x="700" y="260"/>
      <point x="700" y="367" type="qcurve"/>
      <point x="700" y="469"/>
      <point x="619" y="625"/>
      <point x="540" y="676" type="qcurve"/>
      <point x="513" y="693"/>
      <point x="455" y="717"/>
      <point x="386" y="732"/>
      <point x="302" y="739"/>
      <point x="250" y="739" type="qcurve"/>
      <point x="76" y="739" type="line"/>
    </contour>
    <contour>
      <point x="150" y="67" type="line"/>
      <point x="150" y="672" type="line"/>
      <point x="253" y="672" type="line"/>
      <point x="333" y="672"/>
      <point x="443" y="651"/>
      <point x="484" y="628" type="qcurve"/>
      <point x="551" y="590"/>
      <point x="625" y="455"/>
      <point x="625" y="370" type="qcurve"/>
      <point x="625" y="299"/>
      <point x="573" y="179"/>
      <point x="525" y="138" type="qcurve"/>
      <point x="480" y="100"/>
      <point x="354" y="67"/>
      <point x="253" y="67" type="qcurve"/>
    </contour>
  </outline>
</glyph>
<glyph name="G" format="2">
  <advance width="872"/>
  <unicode hex="0047"/>
  <outline>
    <contour>
      <point x="329" y="274" type="line"/>
      <point x="742" y="274" type="line"/>
      <point x="731" y="227"/>
      <point x="674" y="147"/>
      <point x="594" y="88"/>
      <point x="496" y="55"/>
      <point x="443" y="55" type="qcurve"/>
      <point x="375" y="55"/>
      <point x="257" y="104"/>
      <point x="169" y="189"/>
      <point x="119" y="303"/>
      <point x="119" y="369" type="qcurve"/>
      <point x="119" y="436"/>
      <point x="169" y="551"/>
      <point x="255" y="636"/>
      <point x="373" y="684"/>
      <point x="442" y="684" type="qcurve"/>
      <point x="528" y="684"/>
      <point x="665" y="610"/>
      <point x="703" y="542" type="qcurve"/>
      <point x="786" y="542" type="line"/>
      <point x="768" y="589"/>
      <point x="699" y="667"/>
      <point x="607" y="722"/>
      <point x="496" y="752"/>
      <point x="436" y="752" type="qcurve"/>
      <point x="353" y="752"/>
      <point x="210" y="693"/>
      <point x="105" y="590"/>
      <point x="44" y="451"/>
      <point x="44" y="371" type="qcurve"/>
      <point x="44" y="290"/>
      <point x="106" y="149"/>
      <point x="214" y="46"/>
      <point x="361" y="-13"/>
      <point x="446" y="-13" type="qcurve"/>
      <point x="523" y="-13"/>
      <point x="660" y="41"/>
      <point x="763" y="136"/>
      <point x="827" y="266"/>
      <point x="831" y="341" type="qcurve"/>
      <point x="329" y="341" type="line"/>
    </contour>
  </outline>
</glyph>
<glyph name="I" format="2">
  <advance width="226"/>
  <unicode hex="0049"/>
  <outline>
    <contour>
      <point x="76" y="0" type="line"/>
      <point x="150" y="0" type="line"/>
      <point x="150" y="739" type="line"/>
      <point x="76" y="739" type="line"/>
    </contour>
  </outline>
</glyph>
<glyph name="J" format="2">
  <advance width="482"/>
  <unicode hex="004A"/>
  <outline>
    <contour>
      <point x="11" y="175" type="line"/>
      <point x="16" y="86"/>
      <point x="120" y="-14"/>
      <point x="209" y="-14" type="qcurve"/>
      <point x="306" y="-14"/>
      <point x="406" y="111"/>
      <point x="406" y="231" type="qcurve"/>
      <point x="406" y="739" type="line"/>
      <point x="332" y="739" type="line"/>
      <point x="332" y="231" type="line"/>
      <point x="332" y="143"/>
      <point x="271" y="54"/>
      <point x="210" y="54" type="qcurve"/>
      <point x="155" y="54"/>
      <point x="88" y="118"/>
      <point x="84" y="175" type="qcurve"/>
    </contour>
  </outline>
</glyph>
<glyph name="K" format="2">
  <advance width="591"/>
  <unicode hex="004B"/>
  <outline>
    <contour>
      <point x="76" y="0" type="line"/>
      <point x="150" y="0" type="line"/>
      <point x="150" y="202" type="line"/>
      <point x="246" y="320" type="line"/>
      <point x="492" y="0" type="line"/>
      <point x="585" y="0" type="line"/>
      <point x="293" y="379" type="line"/>
      <point x="585" y="739" type="line"/>
      <point x="492" y="739" type="line"/>
      <point x="150" y="314" type="line"/>
      <point x="150" y="739" type="line"/>
      <point x="76" y="739" type="line"/>
    </contour>
  </outline>
</glyph>
<glyph name="L" format="2">
  <advance width="462"/>
  <unicode hex="004C"/>
  <outline>
    <contour>
      <point x="76" y="0" type="line"/>
      <point x="456" y="0" type="line"/>
      <point x="456" y="67" type="line"/>
      <point x="150" y="67" type="line"/>
      <point x="150" y="739" type="line"/>
      <point x="76" y="739" type="line"/>
    </contour>
  </outline>
</glyph>
<glyph name="P" format="2">
  <advance width="592"/>
  <unicode hex="0050"/>
  <outline>
    <contour>
      <point x="76" y="0" type="line"/>
      <point x="150" y="0" type="line"/>
      <point x="150" y="299" type="line"/>
      <point x="292" y="299" type="line"/>
      <point x="329" y="299"/>
      <point x="388" y="304"/>
      <point x="435" y="315"/>
      <point x="474" y="332"/>
      <point x="491" y="345" type="qcurve"/>
      <point x="527" y="371"/>
      <point x="565" y="459"/>
      <point x="565" y="515" type="qcurve"/>
      <point x="565" y="578"/>
      <point x="519" y="674"/>
      <point x="477" y="700" type="qcurve"/>
      <point x="443" y="721"/>
      <point x="351" y="739"/>
      <point x="280" y="739" type="qcurve"/>
      <point x="76" y="739" type="line"/>
    </contour>
    <contour>
      <point x="150" y="366" type="line"/>
      <point x="150" y="672" type="line"/>
      <point x="255" y="672" type="line"/>
      <point x="308" y="672"/>
      <point x="381" y="664"/>
      <point x="407" y="656" type="qcurve"/>
      <point x="447" y="643"/>
      <point x="490" y="570"/>
      <point x="490" y="516" type="qcurve"/>
      <point x="490" y="472"/>
      <point x="458" y="407"/>
      <point x="429" y="391" type="qcurve"/>
      <point x="406" y="378"/>
      <point x="340" y="366"/>
      <point x="287" y="366" type="qcurve"/>
    </contour>
  </outline>
</glyph>
<glyph name="Q" format="2">
  <advance width="871"/>
  <unicode hex="0051"/>
  <outline>
    <contour>
      <point x="44" y="369" type="qcurve"/>
      <point x="44" y="289"/>
      <point x="106" y="150"/>
      <point x="214" y="47"/>
      <point x="360" y="-13"/>
      <point x="443" y="-13" type="qcurve"/>
      <point x="505" y="-13"/>
      <point x="618" y="19"/>
      <point x="665" y="51" type="qcurve"/>
      <point x="701" y="18"/>
      <point x="764" y="-9"/>
      <point x="804" y="-9" type="qcurve"/>
      <point x="810" y="-9"/>
      <point x="821" y="-9"/>
      <point x="827" y="-8" type="qcurve"/>
      <point x="827" y="56" type="line"/>
      <point x="823" y="55"/>
      <point x="816" y="55"/>
      <point x="812" y="55" type="qcurve"/>
      <point x="789" y="55"/>
      <point x="744" y="73"/>
      <point x="716" y="93" type="qcurve"/>
      <point x="777" y="145"/>
      <point x="839" y="285"/>
      <point x="839" y="371" type="qcurve"/>
      <point x="839" y="453"/>
      <point x="779" y="593"/>
      <point x="674" y="695"/>
      <point x="529" y="752"/>
      <point x="444" y="752" type="qcurve"/>
      <point x="358" y="752"/>
      <point x="212" y="694"/>
      <point x="105" y="591"/>
      <point x="44" y="451"/>
    </contour>
    <contour>
      <point x="161" y="216" type="qcurve"/>
      <point x="191" y="228"/>
      <point x="241" y="237"/>
      <point x="277" y="237" type="qcurve"/>
      <point x="325" y="237"/>
      <point x="409" y="222"/>
      <point x="488" y="188"/>
      <point x="565" y="137"/>
      <point x="605" y="100" type="qcurve"/>
      <point x="568" y="77"/>
      <point x="490" y="55"/>
      <point x="443" y="55" type="qcurve"/>
      <point x="399" y="55"/>
      <point x="314" y="78"/>
      <point x="240" y="120"/>
      <point x="180" y="180"/>
    </contour>
    <contour>
      <point x="130" y="279" type="qcurve"/>
      <point x="123" y="309"/>
      <point x="119" y="343"/>
      <point x="119" y="363" type="qcurve"/>
      <point x="119" y="431"/>
      <point x="168" y="549"/>
      <point x="255" y="635"/>
      <point x="373" y="684"/>
      <point x="442" y="684" type="qcurve"/>
      <point x="510" y="684"/>
      <point x="628" y="636"/>
      <point x="715" y="552"/>
      <point x="764" y="437"/>
      <point x="764" y="371" type="qcurve"/>
      <point x="764" y="305"/>
      <point x="714" y="191"/>
      <point x="663" y="142" type="qcurve"/>
      <point x="609" y="188"/>
      <point x="517" y="251"/>
      <point x="430" y="289"/>
      <point x="340" y="305"/>
      <point x="288" y="305" type="qcurve"/>
      <point x="244" y="305"/>
      <point x="172" y="293"/>
    </contour>
  </outline>
</glyph>
<glyph name="R" format="2">
  <advance width="607"/>
  <unicode hex="0052"/>
  <outline>
    <contour>
      <point x="76" y="0" type="line"/>
      <point x="150" y="0" type="line"/>
      <point x="150" y="672" type="line"/>
      <point x="254" y="672" type="line"/>
      <point x="384" y="672"/>
      <point x="502" y="592"/>
      <point x="502" y="503" type="qcurve"/>
      <point x="502" y="419"/>
      <point x="374" y="335"/>
      <point x="246" y="335" type="qcurve"/>
      <point x="225" y="335" type="line"/>
      <point x="474" y="0" type="line"/>
      <point x="566" y="0" type="line"/>
      <point x="359" y="276" type="line"/>
      <point x="466" y="287"/>
      <point x="577" y="402"/>
      <point x="577" y="502" type="qcurve"/>
      <point x="577" y="623"/>
      <point x="421" y="739"/>
      <point x="259" y="739" type="qcurve"/>
      <point x="76" y="739" type="line"/>
    </contour>
  </outline>
</glyph>
<glyph name="S" format="2">
  <advance width="498"/>
  <unicode hex="0053"/>
  <outline>
    <contour>
      <point x="22" y="207" type="line"/>
      <point x="25" y="157"/>
      <point x="60" y="76"/>
      <point x="121" y="18"/>
      <point x="203" y="-13"/>
      <point x="253" y="-13" type="qcurve"/>
      <point x="301" y="-13"/>
      <point x="383" y="20"/>
      <point x="442" y="79"/>
      <point x="476" y="159"/>
      <point x="476" y="206" type="qcurve"/>
      <point x="476" y="248"/>
      <point x="453" y="314"/>
      <point x="403" y="365"/>
      <point x="323" y="406"/>
      <point x="265" y="423" type="qcurve"/>
      <point x="226" y="435"/>
      <point x="171" y="461"/>
      <point x="136" y="492"/>
      <point x="121" y="531"/>
      <point x="121" y="555" type="qcurve"/>
      <point x="121" y="611"/>
      <point x="193" y="684"/>
      <point x="249" y="684" type="qcurve"/>
      <point x="306" y="684"/>
      <point x="377" y="612"/>
      <point x="381" y="552" type="qcurve"/>
      <point x="458" y="552" type="line"/>
      <point x="457" y="597"/>
      <point x="426" y="671"/>
      <point x="372" y="723"/>
      <point x="296" y="752"/>
      <point x="251" y="752" type="qcurve"/>
      <point x="206" y="752"/>
      <point x="131" y="722"/>
      <point x="77" y="669"/>
      <point x="46" y="596"/>
      <point x="46" y="553" type="qcurve"/>
      <point x="46" y="514"/>
      <point x="66" y="454"/>
      <point x="111" y="408"/>
      <point x="184" y="371"/>
      <point x="236" y="356" type="qcurve"/>
      <point x="282" y="343"/>
      <point x="345" y="313"/>
      <point x="384" y="277"/>
      <point x="401" y="231"/>
      <point x="401" y="202" type="qcurve"/>
      <point x="401" y="170"/>
      <point x="379" y="116"/>
      <point x="340" y="77"/>
      <point x="287" y="55"/>
      <point x="255" y="55" type="qcurve"/>
      <point x="189" y="55"/>
      <point x="109" y="134"/>
      <point x="101" y="207" type="qcurve"/>
    </contour>
  </outline>
</glyph>
<glyph name="U" format="2">
  <advance width="655"/>
  <unicode hex="0055"/>
  <outline>
    <contour>
      <point x="76" y="739" type="line"/>
      <point x="76" y="278" type="line"/>
      <point x="76" y="208"/>
      <point x="109" y="99"/>
      <point x="173" y="25"/>
      <point x="267" y="-13"/>
      <point x="327" y="-13" type="qcurve"/>
      <point x="449" y="-13"/>
      <point x="579" y="137"/>
      <point x="579" y="278" type="qcurve"/>
      <point x="579" y="739" type="line"/>
      <point x="505" y="739" type="line"/>
      <point x="505" y="278" type="line"/>
      <point x="505" y="168"/>
      <point x="415" y="55"/>
      <point x="327" y="55" type="qcurve"/>
      <point x="240" y="55"/>
      <point x="150" y="168"/>
      <point x="150" y="278" type="qcurve"/>
      <point x="150" y="739" type="line"/>
    </contour>
  </outline>
</glyph>
<glyph name="bracketleft" format="2">
  <advance width="351"/>
  <unicode hex="005B"/>
  <outline>
    <contour>
      <point x="313" y="-50" type="line"/>
      <point x="276" y="-33"/>
      <point x="226" y="6"/>
      <point x="195" y="59"/>
      <point x="182" y="129"/>
      <point x="182" y="177" type="qcurve"/>
      <point x="182" y="448" type="line"/>
      <point x="182" y="492"/>
      <point x="195" y="559"/>
      <point x="226" y="610"/>
      <point x="276" y="648"/>
      <point x="313" y="664" type="qcurve"/>
      <point x="313" y="739" type="line"/>
      <point x="219" y="715"/>
      <point x="112" y="567"/>
      <point x="112" y="462" type="qcurve"/>
      <point x="112" y="164" type="line"/>
      <point x="112" y="49"/>
      <point x="214" y="-97"/>
      <point x="313" y="-125" type="qcurve"/>
    </contour>
  </outline>
</glyph>
<glyph name="backslash" format="2">
  <advance width="605"/>
  <unicode hex="005C"/>
  <outline>
    <contour>
      <point x="394" y="0" type="line"/>
      <point x="464" y="0" type="line"/>
      <point x="154" y="739" type="line"/>
      <point x="84" y="739" type="line"/>
    </contour>
  </outline>
</glyph>
<glyph name="bracketright" format="2">
  <advance width="351"/>
  <unicode hex="005D"/>
  <outline>
    <contour>
      <point x="38" y="-125" type="line"/>
      <point x="134" y="-99"/>
      <point x="239" y="47"/>
      <point x="239" y="153" type="qcurve"/>
      <point x="239" y="450" type="line"/>
      <point x="239" y="566"/>
      <point x="138" y="711"/>
      <point x="38" y="739" type="qcurve"/>
      <point x="38" y="664" type="line"/>
      <point x="75" y="647"/>
      <point x="125" y="608"/>
      <point x="156" y="556"/>
      <point x="169" y="486"/>
      <point x="169" y="438" type="qcurve"/>
      <point x="169" y="166" type="line"/>
      <point x="169" y="122"/>
      <point x="156" y="56"/>
      <point x="125" y="5"/>
      <point x="75" y="-33"/>
      <point x="38" y="-50" type="qcurve"/>
    </contour>
  </outline>
</glyph>
<glyph name="b" format="2">
  <advance width="682"/>
  <unicode hex="0062"/>
  <outline>
    <contour>
      <point x="63" y="0" type="line"/>
      <point x="137" y="0" type="line"/>
      <point x="137" y="94" type="line"/>
      <point x="172" y="43"/>
      <point x="283" y="-13"/>
      <point x="351" y="-13" type="qcurve"/>
      <point x="413" y="-13"/>
      <point x="519" y="31"/>
      <point x="596" y="107"/>
      <point x="640" y="213"/>
      <point x="640" y="274" type="qcurve"/>
      <point x="640" y="334"/>
      <point x="596" y="439"/>
      <point x="518" y="516"/>
      <point x="413" y="560"/>
      <point x="352" y="560" type="qcurve"/>
      <point x="283" y="560"/>
      <point x="173" y="505"/>
      <point x="137" y="453" type="qcurve"/>
      <point x="137" y="739" type="line"/>
      <point x="63" y="739" type="line"/>
    </contour>
    <contour>
      <point x="349" y="55" type="qcurve"/>
      <point x="304" y="55"/>
      <point x="225" y="89"/>
      <point x="166" y="148"/>
      <point x="132" y="228"/>
      <point x="132" y="273" type="qcurve"/>
      <point x="132" y="319"/>
      <point x="165" y="399"/>
      <point x="223" y="458"/>
      <point x="302" y="492"/>
      <point x="347" y="492" type="qcurve"/>
      <point x="394" y="492"/>
      <point x="474" y="460"/>
      <point x="532" y="402"/>
      <point x="565" y="322"/>
      <point x="565" y="275" type="qcurve"/>
      <point x="565" y="228"/>
      <point x="532" y="147"/>
      <point x="474" y="88"/>
      <point x="395" y="55"/>
    </contour>
  </outline>
</glyph>
<glyph name="c" format="2">
  <advance width="647"/>
  <unicode hex="0063"/>
  <outline>
    <contour>
      <point x="524" y="161" type="line"/>
      <point x="481" y="103"/>
      <point x="396" y="55"/>
      <point x="337" y="55" type="qcurve"/>
      <point x="291" y="55"/>
      <point x="211" y="89"/>
      <point x="151" y="148"/>
      <point x="117" y="227"/>
      <point x="117" y="273" type="qcurve"/>
      <point x="117" y="319"/>
      <point x="151" y="399"/>
      <point x="209" y="458"/>
      <point x="288" y="492"/>
      <point x="334" y="492" type="qcurve"/>
      <point x="395" y="492"/>
      <point x="492" y="435"/>
      <point x="524" y="381" type="qcurve"/>
      <point x="607" y="381" type="line"/>
      <point x="574" y="464"/>
      <point x="428" y="560"/>
      <point x="335" y="560" type="qcurve"/>
      <point x="274" y="560"/>
      <point x="167" y="516"/>
      <point x="88" y="439"/>
      <point x="42" y="335"/>
      <point x="42" y="275" type="qcurve"/>
      <point x="42" y="214"/>
      <point x="88" y="109"/>
      <point x="168" y="31"/>
      <point x="277" y="-13"/>
      <point x="340" y="-13" type="qcurve"/>
      <point x="430" y="-13"/>
      <point x="560" y="72"/>
      <point x="608" y="161" type="qcurve"/>
    </contour>
  </outline>
</glyph>
<glyph name="d" format="2">
  <advance width="685"/>
  <unicode hex="0064"/>
  <outline>
    <contour>
      <point x="42" y="272" type="qcurve"/>
      <point x="42" y="211"/>
      <point x="88" y="107"/>
      <point x="168" y="31"/>
      <point x="277" y="-13"/>
      <point x="340" y="-13" type="qcurve"/>
      <point x="409" y="-13"/>
      <point x="505" y="39"/>
      <point x="548" y="99" type="qcurve"/>
      <point x="548" y="0" type="line"/>
      <point x="622" y="0" type="line"/>
      <point x="622" y="739" type="line"/>
      <point x="548" y="739" type="line"/>
      <point x="548" y="460" type="line"/>
      <point x="507" y="509"/>
      <point x="398" y="560"/>
      <point x="333" y="560" type="qcurve"/>
      <point x="271" y="560"/>
      <point x="164" y="516"/>
      <point x="86" y="439"/>
      <point x="42" y="334"/>
    </contour>
    <contour>
      <point x="117" y="274" type="qcurve"/>
      <point x="117" y="319"/>
      <point x="150" y="399"/>
      <point x="207" y="458"/>
      <point x="284" y="492"/>
      <point x="328" y="492" type="qcurve"/>
      <point x="375" y="492"/>
      <point x="456" y="458"/>
      <point x="516" y="400"/>
      <point x="551" y="320"/>
      <point x="551" y="275" type="qcurve"/>
      <point x="551" y="230"/>
      <point x="517" y="150"/>
      <point x="459" y="90"/>
      <point x="382" y="55"/>
      <point x="338" y="55" type="qcurve"/>
      <point x="291" y="55"/>
      <point x="211" y="89"/>
      <point x="151" y="148"/>
      <point x="117" y="228"/>
    </contour>
  </outline>
</glyph>
<glyph name="f" format="2">
  <advance width="314"/>
  <unicode hex="0066"/>
  <outline>
    <contour>
      <point x="101" y="0" type="line"/>
      <point x="175" y="0" type="line"/>
      <point x="175" y="480" type="line"/>
      <point x="311" y="480" type="line"/>
      <point x="311" y="547" type="line"/>
      <point x="175" y="547" type="line"/>
      <point x="175" y="616"/>
      <point x="232" y="672"/>
      <point x="301" y="672" type="qcurve"/>
      <point x="311" y="672" type="line"/>
      <point x="311" y="739" type="line"/>
      <point x="303" y="740"/>
      <point x="288" y="740"/>
      <point x="281" y="740" type="qcurve"/>
      <point x="193" y="740"/>
      <point x="101" y="641"/>
      <point x="101" y="547" type="qcurve"/>
      <point x="16" y="547" type="line"/>
      <point x="16" y="480" type="line"/>
      <point x="101" y="480" type="line"/>
    </contour>
  </outline>
</glyph>
<glyph name="g" format="2">
  <advance width="673"/>
  <unicode hex="0067"/>
  <outline>
    <contour>
      <point x="62" y="-17" type="line"/>
      <point x="92" y="-114"/>
      <point x="233" y="-215"/>
      <point x="337" y="-215" type="qcurve"/>
      <point x="475" y="-215"/>
      <point x="610" y="-61"/>
      <point x="610" y="98" type="qcurve"/>
      <point x="610" y="547" type="line"/>
      <point x="536" y="547" type="line"/>
      <point x="536" y="450" type="line"/>
      <point x="495" y="507"/>
      <point x="391" y="560"/>
      <point x="321" y="560" type="qcurve"/>
      <point x="261" y="560"/>
      <point x="159" y="516"/>
      <point x="84" y="439"/>
      <point x="42" y="333"/>
      <point x="42" y="271" type="qcurve"/>
      <point x="42" y="211"/>
      <point x="86" y="107"/>
      <point x="163" y="31"/>
      <point x="267" y="-13"/>
      <point x="327" y="-13" type="qcurve"/>
      <point x="402" y="-13"/>
      <point x="503" y="47"/>
      <point x="536" y="111" type="qcurve"/>
      <point x="536" y="74" type="line"/>
      <point x="536" y="-36"/>
      <point x="435" y="-147"/>
      <point x="335" y="-147" type="qcurve"/>
      <point x="265" y="-147"/>
      <point x="174" y="-88"/>
      <point x="134" y="-17" type="qcurve"/>
    </contour>
    <contour>
      <point x="327" y="55" type="qcurve"/>
      <point x="282" y="55"/>
      <point x="205" y="89"/>
      <point x="149" y="148"/>
      <point x="117" y="229"/>
      <point x="117" y="277" type="qcurve"/>
      <point x="117" y="323"/>
      <point x="148" y="401"/>
      <point x="203" y="459"/>
      <point x="277" y="492"/>
      <point x="320" y="492" type="qcurve"/>
      <point x="367" y="492"/>
      <point x="446" y="460"/>
      <point x="503" y="403"/>
      <point x="536" y="325"/>
      <point x="536" y="279" type="qcurve"/>
      <point x="536" y="231"/>
      <point x="504" y="149"/>
      <point x="448" y="89"/>
      <point x="372" y="55"/>
    </contour>
  </outline>
</glyph>
<glyph name="h" format="2">
  <advance width="610"/>
  <unicode hex="0068"/>
  <outline>
    <contour>
      <point x="63" y="0" type="line"/>
      <point x="137" y="0" type="line"/>
      <point x="137" y="300" type="line"/>
      <point x="137" y="391"/>
      <point x="224" y="492"/>
      <point x="304" y="492" type="qcurve"/>
      <point x="385" y="492"/>
      <point x="473" y="389"/>
      <point x="473" y="294" type="qcurve"/>
      <point x="473" y="0" type="line"/>
      <point x="547" y="0" type="line"/>
      <point x="547" y="294" type="line"/>
      <point x="547" y="424"/>
      <point x="426" y="560"/>
      <point x="310" y="560" type="qcurve"/>
      <point x="254" y="560"/>
      <point x="165" y="517"/>
      <point x="137" y="476" type="qcurve"/>
      <point x="137" y="739" type="line"/>
      <point x="63" y="739" type="line"/>
    </contour>
  </outline>
</glyph>
<glyph name="m" format="2">
  <advance width="938"/>
  <unicode hex="006D"/>
  <outline>
    <contour>
      <point x="63" y="0" type="line"/>
      <point x="137" y="0" type="line"/>
      <point x="137" y="319" type="line"/>
      <point x="137" y="401"/>
      <point x="214" y="492"/>
      <point x="284" y="492" type="qcurve"/>
      <point x="355" y="492"/>
      <point x="432" y="402"/>
      <point x="432" y="319" type="qcurve"/>
      <point x="432" y="0" type="line"/>
      <point x="506" y="0" type="line"/>
      <point x="506" y="317" type="line"/>
      <point x="506" y="402"/>
      <point x="583" y="492"/>
      <point x="656" y="492" type="qcurve"/>
      <point x="727" y="492"/>
      <point x="801" y="403"/>
      <point x="801" y="317" type="qcurve"/>
      <point x="801" y="0" type="line"/>
      <point x="875" y="0" type="line"/>
      <point x="875" y="325" type="line"/>
      <point x="875" y="437"/>
      <point x="762" y="560"/>
      <point x="659" y="560" type="qcurve"/>
      <point x="595" y="560"/>
      <point x="504" y="510"/>
      <point x="470" y="455" type="qcurve"/>
      <point x="438" y="511"/>
      <point x="354" y="560"/>
      <point x="291" y="560" type="qcurve"/>
      <point x="239" y="560"/>
      <point x="170" y="526"/>
      <point x="137" y="484" type="qcurve"/>
      <point x="137" y="547" type="line"/>
      <point x="63" y="547" type="line"/>
    </contour>
  </outline>
</glyph>
<glyph name="n" format="2">
  <advance width="610"/>
  <unicode hex="006E"/>
  <outline>
    <contour>
      <point x="63" y="0" type="line"/>
      <point x="137" y="0" type="line"/>
      <point x="137" y="301" type="line"/>
      <point x="137" y="395"/>
      <point x="222" y="492"/>
      <point x="304" y="492" type="qcurve"/>
      <point x="388" y="492"/>
      <point x="473" y="389"/>
      <point x="473" y="287" type="qcurve"/>
      <point x="473" y="0" type="line"/>
      <point x="547" y="0" type="line"/>
      <point x="547" y="287" type="line"/>
      <point x="547" y="420"/>
      <point x="427" y="560"/>
      <point x="313" y="560" type="qcurve"/>
      <point x="258" y="560"/>
      <point x="171" y="519"/>
      <point x="137" y="476" type="qcurve"/>
      <point x="137" y="547" type="line"/>
      <point x="63" y="547" type="line"/>
    </contour>
  </outline>
</glyph>
<glyph name="q" format="2">
  <advance width="682"/>
  <unicode hex="0071"/>
  <outline>
    <contour>
      <point x="545" y="-192" type="line"/>
      <point x="619" y="-192" type="line"/>
      <point x="619" y="547" type="line"/>
      <point x="545" y="547" type="line"/>
      <point x="545" y="453" type="line"/>
      <point x="510" y="506"/>
      <point x="401" y="560"/>
      <point x="330" y="560" type="qcurve"/>
      <point x="269" y="560"/>
      <point x="163" y="516"/>
      <point x="86" y="439"/>
      <point x="42" y="334"/>
      <point x="42" y="273" type="qcurve"/>
      <point x="42" y="212"/>
      <point x="87" y="108"/>
      <point x="165" y="31"/>
      <point x="271" y="-13"/>
      <point x="332" y="-13" type="qcurve"/>
      <point x="401" y="-13"/>
      <point x="509" y="41"/>
      <point x="545" y="94" type="qcurve"/>
    </contour>
    <contour>
      <point x="333" y="55" type="qcurve"/>
      <point x="287" y="55"/>
      <point x="208" y="88"/>
      <point x="150" y="146"/>
      <point x="117" y="226"/>
      <point x="117" y="272" type="qcurve"/>
      <point x="117" y="319"/>
      <point x="150" y="399"/>
      <point x="207" y="458"/>
      <point x="285" y="492"/>
      <point x="331" y="492" type="qcurve"/>
      <point x="378" y="492"/>
      <point x="458" y="459"/>
      <point x="517" y="400"/>
      <point x="550" y="320"/>
      <point x="550" y="273" type="qcurve"/>
      <point x="550" y="227"/>
      <point x="517" y="147"/>
      <point x="458" y="88"/>
      <point x="379" y="55"/>
    </contour>
  </outline>
</glyph>
<glyph name="r" format="2">
  <advance width="301"/>
  <unicode hex="0072"/>
  <outline>
    <contour>
      <point x="63" y="0" type="line"/>
      <point x="137" y="0" type="line"/>
      <point x="137" y="319" type="line"/>
      <point x="137" y="396"/>
      <point x="214" y="479"/>
      <point x="292" y="487" type="qcurve"/>
      <point x="292" y="560" type="line"/>
      <point x="262" y="558"/>
      <point x="214" y="546"/>
      <point x="177" y="524"/>
      <point x="148" y="491"/>
      <point x="137" y="469" type="qcurve"/>
      <point x="137" y="547" type="line"/>
      <point x="63" y="547" type="line"/>
    </contour>
  </outline>
</glyph>
<glyph name="braceleft" format="2">
  <advance width="351"/>
  <unicode hex="007B"/>
  <outline>
    <contour>
      <point x="292" y="-59" type="line"/>
      <point x="269" y="-59"/>
      <point x="239" y="-52"/>
      <point x="221" y="-36"/>
      <point x="214" y="-9"/>
      <point x="214" y="12" type="qcurve"/>
      <point x="214" y="182" type="line"/>
      <point x="214" y="209"/>
      <point x="207" y="247"/>
      <point x="189" y="275"/>
      <point x="159" y="296"/>
      <point x="136" y="306" type="qcurve"/>
      <point x="161" y="317"/>
      <point x="192" y="337"/>
      <point x="208" y="363"/>
      <point x="214" y="402"/>
      <point x="214" y="431" type="qcurve"/>
      <point x="214" y="601" type="line"/>
      <point x="214" y="620"/>
      <point x="222" y="647"/>
      <point x="241" y="664"/>
      <point x="271" y="672"/>
      <point x="292" y="672" type="qcurve"/>
      <point x="292" y="739" type="line"/>
      <point x="248" y="739"/>
      <point x="189" y="725"/>
      <point x="153" y="692"/>
      <point x="137" y="639"/>
      <point x="137" y="600" type="qcurve"/>
      <point x="137" y="430" type="line"/>
      <point x="137" y="407"/>
      <point x="131" y="376"/>
      <point x="113" y="356"/>
      <point x="82" y="345"/>
      <point x="58" y="341" type="qcurve"/>
      <point x="58" y="272" type="line"/>
      <point x="83" y="267"/>
      <point x="113" y="256"/>
      <point x="131" y="236"/>
      <point x="137" y="206"/>
      <point x="137" y="183" type="qcurve"/>
      <point x="137" y="13" type="line"/>
      <point x="137" y="-27"/>
      <point x="152" y="-80"/>
      <point x="188" y="-112"/>
      <point x="248" y="-126"/>
      <point x="292" y="-126" type="qcurve"/>
    </contour>
  </outline>
</glyph>
<glyph name="bar" format="2">
  <advance width="672"/>
  <unicode hex="007C"/>
  <outline>
    <contour>
      <point x="304" y="0" type="line"/>
      <point x="368" y="0" type="line"/>
      <point x="368" y="739" type="line"/>
      <point x="304" y="739" type="line"/>
    </contour>
  </outline>
</glyph>
<glyph name="braceright" format="2">
  <advance width="351"/>
  <unicode hex="007D"/>
  <outline>
    <contour>
      <point x="59" y="672" type="line"/>
      <point x="82" y="672"/>
      <point x="112" y="665"/>
      <point x="130" y="649"/>
      <point x="137" y="622"/>
      <point x="137" y="601" type="qcurve"/>
      <point x="137" y="431" type="line"/>
      <point x="137" y="404"/>
      <point x="144" y="366"/>
      <point x="162" y="338"/>
      <point x="192" y="317"/>
      <point x="215" y="307" type="qcurve"/>
      <point x="190" y="296"/>
      <point x="159" y="276"/>
      <point x="143" y="250"/>
      <point x="137" y="211"/>
      <point x="137" y="182" type="qcurve"/>
      <point x="137" y="12" type="line"/>
      <point x="137" y="-7"/>
      <point x="129" y="-34"/>
      <point x="110" y="-51"/>
      <point x="80" y="-59"/>
      <point x="59" y="-59" type="qcurve"/>
      <point x="59" y="-126" type="line"/>
      <point x="103" y="-126"/>
      <point x="162" y="-112"/>
      <point x="198" y="-79"/>
      <point x="214" y="-26"/>
      <point x="214" y="13" type="qcurve"/>
      <point x="214" y="183" type="line"/>
      <point x="214" y="206"/>
      <point x="220" y="237"/>
      <point x="238" y="257"/>
      <point x="269" y="268"/>
      <point x="293" y="272" type="qcurve"/>
      <point x="293" y="341" type="line"/>
      <point x="268" y="346"/>
      <point x="238" y="357"/>
      <point x="220" y="377"/>
      <point x="214" y="407"/>
      <point x="214" y="430" type="qcurve"/>
      <point x="214" y="600" type="line"/>
      <point x="214" y="640"/>
      <point x="199" y="693"/>
      <point x="163" y="725"/>
      <point x="103" y="739"/>
      <point x="59" y="739" type="qcurve"/>
    </contour>
  </outline>
</glyph>
<glyph name="asciitilde" format="2">
  <advance width="606"/>
  <unicode hex="007E"/>
  <outline>
    <contour>
      <point x="93" y="210" type="line"/>
      <point x="107" y="234"/>
      <point x="133" y="268"/>
      <point x="157" y="290"/>
      <point x="181" y="300"/>
      <point x="194" y="300" type="qcurve"/>
      <point x="201" y="300"/>
      <point x="212" y="299"/>
      <point x="227" y="294"/>
      <point x="249" y="286"/>
      <point x="267" y="279" type="qcurve"/>
      <point x="322" y="257" type="line"/>
      <point x="355" y="243"/>
      <point x="397" y="231"/>
      <point x="415" y="231" type="qcurve"/>
      <point x="453" y="231"/>
      <point x="529" y="292"/>
      <point x="555" y="343" type="qcurve"/>
      <point x="511" y="390" type="line"/>
      <point x="486" y="347"/>
      <point x="441" y="308"/>
      <point x="416" y="308" type="qcurve"/>
      <point x="409" y="308"/>
      <point x="394" y="310"/>
      <point x="376" y="315"/>
      <point x="353" y="324"/>
      <point x="336" y="331" type="qcurve"/>
      <point x="271" y="358" type="line"/>
      <point x="248" y="368"/>
      <point x="210" y="377"/>
      <point x="194" y="377" type="qcurve"/>
      <point x="173" y="377"/>
      <point x="137" y="364"/>
      <point x="103" y="335"/>
      <point x="69" y="290"/>
      <point x="51" y="257" type="qcurve"/>
    </contour>
  </outline>
</glyph>
<glyph name="cent" format="2">
  <advance width="554"/>
  <unicode hex="00A2"/>
  <outline>
    <contour>
      <point x="259" y="62" type="line"/>
      <point x="325" y="62" type="line"/>
      <point x="325" y="151" type="line"/>
      <point x="386" y="159"/>
      <point x="483" y="235"/>
      <point x="503" y="290" type="qcurve"/>
      <point x="422" y="290" type="line"/>
      <point x="388" y="251"/>
      <point x="323" y="217"/>
      <point x="282" y="217" type="qcurve"/>
      <point x="248" y="217"/>
      <point x="188" y="243"/>
      <point x="144" y="288"/>
      <point x="119" y="348"/>
      <point x="119" y="383" type="qcurve"/>
      <point x="119" y="418"/>
      <point x="144" y="478"/>
      <point x="188" y="522"/>
      <point x="248" y="547"/>
      <point x="283" y="547" type="qcurve"/>
      <point x="330" y="547"/>
      <point x="403" y="505"/>
      <point x="426" y="463" type="qcurve"/>
      <point x="509" y="463" type="line"/>
      <point x="487" y="525"/>
      <point x="390" y="605"/>
      <point x="325" y="614" type="qcurve"/>
      <point x="325" y="707" type="line"/>
      <point x="259" y="707" type="line"/>
      <point x="259" y="614" type="line"/>
      <point x="211" y="609"/>
      <point x="133" y="571"/>
      <point x="76" y="509"/>
      <point x="45" y="429"/>
      <point x="45" y="382" type="qcurve"/>
      <point x="45" y="336"/>
      <point x="77" y="255"/>
      <point x="134" y="193"/>
      <point x="213" y="155"/>
      <point x="259" y="151" type="qcurve"/>
    </contour>
  </outline>
</glyph>
<glyph name="sterling" format="2">
  <advance width="625"/>
  <unicode hex="00A3"/>
  <outline>
    <contour>
      <point x="59" y="0" type="line"/>
      <point x="344" y="0" type="line"/>
      <point x="462" y="0"/>
      <point x="592" y="112"/>
      <point x="592" y="213" type="qcurve"/>
      <point x="592" y="227"/>
      <point x="589" y="250"/>
      <point x="584" y="268" type="qcurve"/>
      <point x="512" y="268" type="line"/>
      <point x="515" y="252"/>
      <point x="518" y="230"/>
      <point x="518" y="219" type="qcurve"/>
      <point x="518" y="145"/>
      <point x="427" y="67"/>
      <point x="342" y="67" type="qcurve"/>
      <point x="285" y="67" type="line"/>
      <point x="301" y="103"/>
      <point x="314" y="155"/>
      <point x="314" y="184" type="qcurve"/>
      <point x="314" y="227"/>
      <point x="278" y="308"/>
      <point x="242" y="347" type="qcurve"/>
      <point x="457" y="347" type="line"/>
      <point x="457" y="414" type="line"/>
      <point x="173" y="414" type="line"/>
      <point x="156" y="445"/>
      <point x="145" y="484"/>
      <point x="145" y="513" type="qcurve"/>
      <point x="145" y="551"/>
      <point x="169" y="615"/>
      <point x="211" y="660"/>
      <point x="271" y="685"/>
      <point x="307" y="685" type="qcurve"/>
      <point x="377" y="685"/>
      <point x="470" y="609"/>
      <point x="485" y="541" type="qcurve"/>
      <point x="554" y="541" type="line"/>
      <point x="549" y="588"/>
      <point x="508" y="666"/>
      <point x="442" y="721"/>
      <point x="356" y="752"/>
      <point x="306" y="752" type="qcurve"/>
      <point x="255" y="752"/>
      <point x="168" y="716"/>
      <point x="106" y="653"/>
      <point x="71" y="564"/>
      <point x="71" y="512" type="qcurve"/>
      <point x="71" y="486"/>
      <point x="80" y="445"/>
      <point x="93" y="414" type="qcurve"/>
      <point x="18" y="414" type="line"/>
      <point x="18" y="347" type="line"/>
      <point x="144" y="347" type="line"/>
      <point x="173" y="322"/>
      <point x="210" y="282"/>
      <point x="232" y="245"/>
      <point x="240" y="207"/>
      <point x="240" y="183" type="qcurve"/>
      <point x="240" y="148"/>
      <point x="219" y="91"/>
      <point x="198" y="67" type="qcurve"/>
      <point x="59" y="67" type="line"/>
    </contour>
  </outline>
</glyph>
<glyph name="currency" format="2">
  <advance width="554"/>
  <unicode hex="00A4"/>
  <outline>
    <contour>
      <point x="84" y="58" type="line"/>
      <point x="126" y="100" type="line"/>
      <point x="167" y="72"/>
      <point x="233" y="50"/>
      <point x="276" y="50" type="qcurve"/>
      <point x="319" y="50"/>
      <point x="385" y="72"/>
      <point x="428" y="100" type="qcurve"/>
      <point x="469" y="58" type="line"/>
      <point x="523" y="111" type="line"/>
      <point x="481" y="153" type="line"/>
      <point x="505" y="181"/>
      <point x="528" y="254"/>
      <point x="528" y="300" type="qcurve"/>
      <point x="528" y="344"/>
      <point x="506" y="416"/>
      <point x="482" y="452" type="qcurve"/>
      <point x="523" y="494" type="line"/>
      <point x="469" y="549" type="line"/>
      <point x="426" y="507" type="line"/>
      <point x="393" y="531"/>
      <point x="319" y="553"/>
      <point x="276" y="553" type="qcurve"/>
      <point x="234" y="553"/>
      <point x="167" y="532"/>
      <point x="127" y="506" type="qcurve"/>
      <point x="84" y="548" type="line"/>
      <point x="29" y="494" type="line"/>
      <point x="73" y="452" type="line"/>
      <point x="61" y="435"/>
      <point x="43" y="400"/>
      <point x="31" y="364"/>
      <point x="26" y="325"/>
      <point x="26" y="303" type="qcurve"/>
      <point x="26" y="281"/>
      <point x="31" y="241"/>
      <point x="43" y="204"/>
      <point x="60" y="170"/>
      <point x="72" y="153" type="qcurve"/>
      <point x="31" y="112" type="line"/>
    </contour>
    <contour>
      <point x="97" y="302" type="qcurve"/>
      <point x="97" y="341"/>
      <point x="124" y="407"/>
      <point x="172" y="455"/>
      <point x="237" y="483"/>
      <point x="275" y="483" type="qcurve"/>
      <point x="315" y="483"/>
      <point x="382" y="456"/>
      <point x="430" y="409"/>
      <point x="457" y="342"/>
      <point x="457" y="302" type="qcurve"/>
      <point x="457" y="264"/>
      <point x="430" y="198"/>
      <point x="382" y="150"/>
      <point x="317" y="122"/>
      <point x="279" y="122" type="qcurve"/>
      <point x="240" y="122"/>
      <point x="173" y="149"/>
      <point x="125" y="198"/>
      <point x="97" y="263"/>
    </contour>
  </outline>
</glyph>
<glyph name="section" format="2">
  <advance width="615"/>
  <unicode hex="00A7"/>
  <outline>
    <contour>
      <point x="106" y="64" type="line"/>
      <point x="107" y="19"/>
      <point x="140" y="-56"/>
      <point x="195" y="-111"/>
      <point x="269" y="-141"/>
      <point x="313" y="-141" type="qcurve"/>
      <point x="353" y="-141"/>
      <point x="422" y="-114"/>
      <point x="473" y="-66"/>
      <point x="501" y="-1"/>
      <point x="501" y="37" type="qcurve"/>
      <point x="501" y="68"/>
      <point x="478" y="120"/>
      <point x="453" y="146" type="qcurve"/>
      <point x="490" y="174"/>
      <point x="529" y="247"/>
      <point x="529" y="289" type="qcurve"/>
      <point x="529" y="335"/>
      <point x="475" y="405"/>
      <point x="420" y="431" type="qcurve"/>
      <point x="262" y="505" type="line"/>
      <point x="233" y="518"/>
      <point x="203" y="563"/>
      <point x="203" y="591" type="qcurve"/>
      <point x="203" y="633"/>
      <point x="261" y="685"/>
      <point x="307" y="685" type="qcurve"/>
      <point x="352" y="685"/>
      <point x="404" y="646"/>
      <point x="412" y="606" type="qcurve"/>
      <point x="483" y="606" type="line"/>
      <point x="480" y="638"/>
      <point x="452" y="692"/>
      <point x="405" y="731"/>
      <point x="343" y="752"/>
      <point x="307" y="752" type="qcurve"/>
      <point x="270" y="752"/>
      <point x="207" y="727"/>
      <point x="161" y="684"/>
      <point x="135" y="624"/>
      <point x="135" y="589" type="qcurve"/>
      <point x="135" y="559"/>
      <point x="152" y="514"/>
      <point x="173" y="491" type="qcurve"/>
      <point x="129" y="460"/>
      <point x="87" y="386"/>
      <point x="87" y="339" type="qcurve"/>
      <point x="87" y="295"/>
      <point x="134" y="237"/>
      <point x="196" y="207" type="qcurve"/>
      <point x="339" y="137" type="line"/>
      <point x="364" y="125"/>
      <point x="400" y="101"/>
      <point x="423" y="76"/>
      <point x="433" y="50"/>
      <point x="433" y="35" type="qcurve"/>
      <point x="433" y="12"/>
      <point x="415" y="-28"/>
      <point x="382" y="-57"/>
      <point x="339" y="-74"/>
      <point x="313" y="-74" type="qcurve"/>
      <point x="254" y="-74"/>
      <point x="179" y="1"/>
      <point x="174" y="64" type="qcurve"/>
    </contour>
    <contour>
      <point x="407" y="182" type="qcurve"/>
      <point x="209" y="278" type="line"/>
      <point x="181" y="291"/>
      <point x="155" y="326"/>
      <point x="155" y="350" type="qcurve"/>
      <point x="155" y="380"/>
      <point x="186" y="436"/>
      <point x="212" y="454" type="qcurve"/>
      <point x="400" y="365" type="line"/>
      <point x="431" y="351"/>
      <point x="461" y="308"/>
      <point x="461" y="280" type="qcurve"/>
      <point x="461" y="253"/>
      <point x="432" y="200"/>
    </contour>
  </outline>
</glyph>
<glyph name="dieresis" format="2">
  <advance width="369"/>
  <unicode hex="00A8"/>
  <outline>
    <contour>
      <point x="74" y="623" type="line"/>
      <point x="148" y="623" type="line"/>
      <point x="148" y="749" type="line"/>
      <point x="74" y="749" type="line"/>
    </contour>
    <contour>
      <point x="221" y="623" type="line"/>
      <point x="295" y="623" type="line"/>
      <point x="295" y="749" type="line"/>
      <point x="221" y="749" type="line"/>
    </contour>
  </outline>
</glyph>
<glyph name="copyright" format="2">
  <advance width="747"/>
  <unicode hex="00A9"/>
  <outline>
    <contour>
      <point x="163" y="372" type="qcurve"/>
      <point x="163" y="326"/>
      <point x="198" y="244"/>
      <point x="257" y="183"/>
      <point x="337" y="148"/>
      <point x="382" y="148" type="qcurve"/>
      <point x="413" y="148"/>
      <point x="470" y="163"/>
      <point x="520" y="192"/>
      <point x="561" y="234"/>
      <point x="576" y="261" type="qcurve"/>
      <point x="501" y="261" type="line"/>
      <point x="477" y="233"/>
      <point x="418" y="204"/>
      <point x="383" y="204" type="qcurve"/>
      <point x="351" y="204"/>
      <point x="293" y="231"/>
      <point x="249" y="277"/>
      <point x="224" y="338"/>
      <point x="224" y="372" type="qcurve"/>
      <point x="224" y="406"/>
      <point x="249" y="467"/>
      <point x="293" y="512"/>
      <point x="351" y="538"/>
      <point x="384" y="538" type="qcurve"/>
      <point x="420" y="538"/>
      <point x="479" y="508"/>
      <point x="505" y="477" type="qcurve"/>
      <point x="579" y="477" type="line"/>
      <point x="563" y="505"/>
      <point x="522" y="549"/>
      <point x="472" y="579"/>
      <point x="414" y="594"/>
      <point x="383" y="594" type="qcurve"/>
      <point x="337" y="594"/>
      <point x="257" y="559"/>
      <point x="197" y="499"/>
      <point x="163" y="418"/>
    </contour>
    <contour>
      <point x="-9" y="369" type="qcurve"/>
      <point x="-9" y="290"/>
      <point x="51" y="151"/>
      <point x="155" y="47"/>
      <point x="294" y="-13"/>
      <point x="373" y="-13" type="qcurve"/>
      <point x="452" y="-13"/>
      <point x="591" y="47"/>
      <point x="695" y="151"/>
      <point x="755" y="290"/>
      <point x="755" y="369" type="qcurve"/>
      <point x="755" y="448"/>
      <point x="695" y="587"/>
      <point x="593" y="691"/>
      <point x="455" y="752"/>
      <point x="378" y="752" type="qcurve"/>
      <point x="297" y="752"/>
      <point x="156" y="693"/>
      <point x="51" y="589"/>
      <point x="-9" y="449"/>
    </contour>
    <contour>
      <point x="47" y="369" type="qcurve"/>
      <point x="47" y="437"/>
      <point x="98" y="557"/>
      <point x="186" y="647"/>
      <point x="303" y="700"/>
      <point x="369" y="700" type="qcurve"/>
      <point x="438" y="700"/>
      <point x="559" y="649"/>
      <point x="648" y="559"/>
      <point x="699" y="438"/>
      <point x="699" y="369" type="qcurve"/>
      <point x="699" y="301"/>
      <point x="648" y="181"/>
      <point x="559" y="91"/>
      <point x="440" y="39"/>
      <point x="373" y="39" type="qcurve"/>
      <point x="306" y="39"/>
      <point x="187" y="91"/>
      <point x="98" y="181"/>
      <point x="47" y="301"/>
    </contour>
  </outline>
</glyph>
<glyph name="ordfeminine" format="2">
  <advance width="369"/>
  <unicode hex="00AA"/>
  <outline>
    <contour>
      <point x="285" y="448" type="line"/>
      <point x="333" y="448" type="line"/>
      <point x="333" y="739" type="line"/>
      <point x="285" y="739" type="line"/>
      <point x="285" y="694" type="line"/>
      <point x="271" y="717"/>
      <point x="214" y="745"/>
      <point x="183" y="745" type="qcurve"/>
      <point x="152" y="745"/>
      <point x="96" y="721"/>
      <point x="55" y="680"/>
      <point x="31" y="625"/>
      <point x="31" y="594" type="qcurve"/>
      <point x="31" y="563"/>
      <point x="55" y="507"/>
      <point x="96" y="465"/>
      <point x="151" y="441"/>
      <point x="182" y="441" type="qcurve"/>
      <point x="215" y="441"/>
      <point x="262" y="465"/>
      <point x="285" y="493" type="qcurve"/>
    </contour>
    <contour>
      <point x="184" y="490" type="qcurve"/>
      <point x="164" y="490"/>
      <point x="128" y="507"/>
      <point x="100" y="536"/>
      <point x="84" y="573"/>
      <point x="84" y="594" type="qcurve"/>
      <point x="84" y="614"/>
      <point x="100" y="651"/>
      <point x="128" y="679"/>
      <point x="164" y="696"/>
      <point x="183" y="696" type="qcurve"/>
      <point x="203" y="696"/>
      <point x="239" y="679"/>
      <point x="266" y="651"/>
      <point x="282" y="613"/>
      <point x="282" y="592" type="qcurve"/>
      <point x="282" y="572"/>
      <point x="266" y="535"/>
      <point x="239" y="507"/>
      <point x="203" y="490"/>
    </contour>
    <contour>
      <point x="31" y="319" type="line"/>
      <point x="339" y="319" type="line"/>
      <point x="339" y="370" type="line"/>
      <point x="31" y="370" type="line"/>
    </contour>
  </outline>
</glyph>
<glyph name="logicalnot" format="2">
  <advance width="606"/>
  <unicode hex="00AC"/>
  <outline>
    <contour>
      <point x="51" y="363" type="line"/>
      <point x="483" y="363" type="line"/>
      <point x="483" y="148" type="line"/>
      <point x="555" y="148" type="line"/>
      <point x="555" y="436" type="line"/>
      <point x="51" y="436" type="line"/>
    </contour>
  </outline>
</glyph>
<glyph name="registered" format="2">
  <advance width="747"/>
  <unicode hex="00AE"/>
  <outline>
    <contour>
      <point x="248" y="157" type="line"/>
      <point x="309" y="157" type="line"/>
      <point x="309" y="359" type="line"/>
      <point x="454" y="157" type="line"/>
      <point x="530" y="157" type="line"/>
      <point x="409" y="317" type="line"/>
      <point x="472" y="325"/>
      <point x="534" y="391"/>
      <point x="534" y="448" type="qcurve"/>
      <point x="534" y="514"/>
      <point x="454" y="585"/>
      <point x="380" y="585" type="qcurve"/>
      <point x="248" y="585" type="line"/>
    </contour>
    <contour>
      <point x="309" y="365" type="line"/>
      <point x="309" y="527" type="line"/>
      <point x="376" y="527" type="line"/>
      <point x="420" y="527"/>
      <point x="471" y="484"/>
      <point x="471" y="448" type="qcurve"/>
      <point x="471" y="407"/>
      <point x="411" y="365"/>
      <point x="353" y="365" type="qcurve"/>
    </contour>
    <contour>
      <point x="-9" y="369" type="qcurve"/>
      <point x="-9" y="290"/>
      <point x="51" y="151"/>
      <point x="155" y="47"/>
      <point x="294" y="-13"/>
      <point x="373" y="-13" type="qcurve"/>
      <point x="452" y="-13"/>
      <point x="591" y="47"/>
      <point x="695" y="151"/>
      <point x="755" y="290"/>
      <point x="755" y="369" type="qcurve"/>
      <point x="755" y="448"/>
      <point x="695" y="587"/>
      <point x="593" y="691"/>
      <point x="455" y="752"/>
      <point x="378" y="752" type="qcurve"/>
      <point x="297" y="752"/>
      <point x="156" y="693"/>
      <point x="51" y="589"/>
      <point x="-9" y="449"/>
    </contour>
    <contour>
      <point x="47" y="369" type="qcurve"/>
      <point x="47" y="437"/>
      <point x="98" y="557"/>
      <point x="186" y="647"/>
      <point x="303" y="700"/>
      <point x="369" y="700" type="qcurve"/>
      <point x="438" y="700"/>
      <point x="559" y="649"/>
      <point x="648" y="559"/>
      <point x="699" y="438"/>
      <point x="699" y="369" type="qcurve"/>
      <point x="699" y="301"/>
      <point x="648" y="181"/>
      <point x="559" y="91"/>
      <point x="440" y="39"/>
      <point x="373" y="39" type="qcurve"/>
      <point x="306" y="39"/>
      <point x="187" y="91"/>
      <point x="98" y="181"/>
      <point x="47" y="301"/>
    </contour>
  </outline>
</glyph>
<glyph name="degree" format="2">
  <advance width="400"/>
  <unicode hex="00B0"/>
  <outline>
    <contour>
      <point x="200" y="380" type="qcurve"/>
      <point x="232" y="380"/>
      <point x="286" y="404"/>
      <point x="327" y="445"/>
      <point x="350" y="501"/>
      <point x="350" y="533" type="qcurve"/>
      <point x="350" y="565"/>
      <point x="327" y="621"/>
      <point x="288" y="662"/>
      <point x="235" y="686"/>
      <point x="204" y="686" type="qcurve"/>
      <point x="172" y="686"/>
      <point x="115" y="663"/>
      <point x="74" y="622"/>
      <point x="50" y="566"/>
      <point x="50" y="534" type="qcurve"/>
      <point x="50" y="502"/>
      <point x="73" y="446"/>
      <point x="114" y="404"/>
      <point x="169" y="380"/>
    </contour>
    <contour>
      <point x="200" y="437" type="qcurve"/>
      <point x="161" y="437"/>
      <point x="106" y="493"/>
      <point x="106" y="533" type="qcurve"/>
      <point x="106" y="553"/>
      <point x="121" y="588"/>
      <point x="147" y="614"/>
      <point x="181" y="629"/>
      <point x="200" y="629" type="qcurve"/>
      <point x="239" y="629"/>
      <point x="293" y="574"/>
      <point x="293" y="533" type="qcurve"/>
      <point x="293" y="492"/>
      <point x="239" y="437"/>
    </contour>
  </outline>
</glyph>
<glyph name="twosuperior" format="2">
  <advance width="332"/>
  <unicode hex="00B2"/>
  <outline>
    <contour>
      <point x="12" y="288" type="line"/>
      <point x="318" y="288" type="line"/>
      <point x="318" y="343" type="line"/>
      <point x="101" y="343" type="line"/>
      <point x="234" y="464" type="line"/>
      <point x="282" y="508"/>
      <point x="320" y="571"/>
      <point x="320" y="606" type="qcurve"/>
      <point x="320" y="635"/>
      <point x="297" y="687"/>
      <point x="256" y="725"/>
      <point x="202" y="747"/>
      <point x="171" y="747" type="qcurve"/>
      <point x="98" y="747"/>
      <point x="16" y="660"/>
      <point x="16" y="583" type="qcurve"/>
      <point x="76" y="583" type="line"/>
      <point x="76" y="636"/>
      <point x="123" y="692"/>
      <point x="168" y="692" type="qcurve"/>
      <point x="206" y="692"/>
      <point x="259" y="643"/>
      <point x="259" y="608" type="qcurve"/>
      <point x="259" y="595"/>
      <point x="252" y="573"/>
      <point x="234" y="546"/>
      <point x="201" y="513"/>
      <point x="175" y="489" type="qcurve"/>
      <point x="12" y="339" type="line"/>
    </contour>
  </outline>
</glyph>
<glyph name="threesuperior" format="2">
  <advance width="332"/>
  <unicode hex="00B3"/>
  <outline>
    <contour>
      <point x="13" y="439" type="line"/>
      <point x="17" y="364"/>
      <point x="98" y="280"/>
      <point x="166" y="280" type="qcurve"/>
      <point x="197" y="280"/>
      <point x="253" y="303"/>
      <point x="295" y="344"/>
      <point x="319" y="397"/>
      <point x="319" y="427" type="qcurve"/>
      <point x="319" y="465"/>
      <point x="284" y="524"/>
      <point x="249" y="546" type="qcurve"/>
      <point x="272" y="567"/>
      <point x="290" y="602"/>
      <point x="290" y="628" type="qcurve"/>
      <point x="290" y="653"/>
      <point x="271" y="697"/>
      <point x="238" y="729"/>
      <point x="193" y="747"/>
      <point x="167" y="747" type="qcurve"/>
      <point x="111" y="747"/>
      <point x="44" y="676"/>
      <point x="43" y="615" type="qcurve"/>
      <point x="104" y="615" type="line"/>
      <point x="104" y="652"/>
      <point x="136" y="692"/>
      <point x="166" y="692" type="qcurve"/>
      <point x="193" y="692"/>
      <point x="229" y="657"/>
      <point x="229" y="631" type="qcurve"/>
      <point x="229" y="602"/>
      <point x="187" y="571"/>
      <point x="148" y="571" type="qcurve"/>
      <point x="128" y="571" type="line"/>
      <point x="128" y="517" type="line"/>
      <point x="135" y="517" type="line"/>
      <point x="195" y="517"/>
      <point x="258" y="470"/>
      <point x="258" y="425" type="qcurve"/>
      <point x="258" y="407"/>
      <point x="243" y="374"/>
      <point x="217" y="350"/>
      <point x="184" y="335"/>
      <point x="165" y="335" type="qcurve"/>
      <point x="125" y="335"/>
      <point x="77" y="390"/>
      <point x="74" y="439" type="qcurve"/>
    </contour>
  </outline>
</glyph>
<glyph name="mu" format="2">
  <advance width="608"/>
  <unicode hex="00B5"/>
  <outline>
    <contour>
      <point x="63" y="-192" type="line"/>
      <point x="137" y="-192" type="line"/>
      <point x="137" y="85" type="line"/>
      <point x="166" y="37"/>
      <point x="253" y="-13"/>
      <point x="307" y="-13" type="qcurve"/>
      <point x="366" y="-13"/>
      <point x="446" y="35"/>
      <point x="471" y="85" type="qcurve"/>
      <point x="471" y="0" type="line"/>
      <point x="545" y="0" type="line"/>
      <point x="545" y="547" type="line"/>
      <point x="471" y="547" type="line"/>
      <point x="471" y="266" type="line"/>
      <point x="471" y="214"/>
      <point x="457" y="148"/>
      <point x="440" y="123" type="qcurve"/>
      <point x="418" y="90"/>
      <point x="347" y="54"/>
      <point x="306" y="54" type="qcurve"/>
      <point x="275" y="54"/>
      <point x="214" y="79"/>
      <point x="190" y="101" type="qcurve"/>
      <point x="174" y="116"/>
      <point x="154" y="145"/>
      <point x="142" y="182"/>
      <point x="137" y="231"/>
      <point x="137" y="266" type="qcurve"/>
      <point x="137" y="547" type="line"/>
      <point x="63" y="547" type="line"/>
    </contour>
  </outline>
</glyph>
<glyph name="paragraph" format="2">
  <advance width="564"/>
  <unicode hex="00B6"/>
  <outline>
    <contour>
      <point x="227" y="-133" type="line"/>
      <point x="302" y="-133" type="line"/>
      <point x="302" y="672" type="line"/>
      <point x="416" y="672" type="line"/>
      <point x="416" y="-133" type="line"/>
      <point x="491" y="-133" type="line"/>
      <point x="491" y="739" type="line"/>
      <point x="260" y="739" type="line"/>
      <point x="213" y="739"/>
      <point x="148" y="724"/>
      <point x="123" y="708" type="qcurve"/>
      <point x="82" y="683"/>
      <point x="37" y="600"/>
      <point x="37" y="549" type="qcurve"/>
      <point x="37" y="508"/>
      <point x="63" y="441"/>
      <point x="112" y="391"/>
      <point x="183" y="359"/>
      <point x="227" y="355" type="qcurve"/>
    </contour>
  </outline>
</glyph>
<glyph name="periodcentered" format="2">
  <advance width="277"/>
  <unicode hex="00B7"/>
  <outline>
    <contour>
      <point x="101" y="229" type="line"/>
      <point x="175" y="229" type="line"/>
      <point x="175" y="355" type="line"/>
      <point x="101" y="355" type="line"/>
    </contour>
  </outline>
</glyph>
<glyph name="cedilla" format="2">
  <advance width="324"/>
  <unicode hex="00B8"/>
  <outline>
    <contour>
      <point x="74" y="-140" type="line"/>
      <point x="82" y="-176"/>
      <point x="127" y="-213"/>
      <point x="162" y="-213" type="qcurve"/>
      <point x="201" y="-213"/>
      <point x="250" y="-161"/>
      <point x="250" y="-119" type="qcurve"/>
      <point x="250" y="-101"/>
      <point x="239" y="-72"/>
      <point x="219" y="-51"/>
      <point x="191" y="-39"/>
      <point x="174" y="-39" type="qcurve"/>
      <point x="166" y="-39"/>
      <point x="153" y="-42"/>
      <point x="141" y="-47" type="qcurve"/>
      <point x="160" y="0" type="line"/>
      <point x="124" y="0" type="line"/>
      <point x="89" y="-79" type="line"/>
      <point x="118" y="-96" type="line"/>
      <point x="129" y="-83"/>
      <point x="148" y="-72"/>
      <point x="161" y="-72" type="qcurve"/>
      <point x="182" y="-72"/>
      <point x="207" y="-101"/>
      <point x="207" y="-124" type="qcurve"/>
      <point x="207" y="-144"/>
      <point x="183" y="-170"/>
      <point x="163" y="-170" type="qcurve"/>
      <point x="146" y="-170"/>
      <point x="123" y="-152"/>
      <point x="118" y="-135" type="qcurve"/>
    </contour>
  </outline>
</glyph>
<glyph name="ordmasculine" format="2">
  <advance width="369"/>
  <unicode hex="00BA"/>
  <outline>
    <contour>
      <point x="184" y="442" type="qcurve"/>
      <point x="215" y="442"/>
      <point x="271" y="466"/>
      <point x="313" y="507"/>
      <point x="337" y="563"/>
      <point x="337" y="594" type="qcurve"/>
      <point x="337" y="625"/>
      <point x="313" y="679"/>
      <point x="271" y="721"/>
      <point x="217" y="745"/>
      <point x="186" y="745" type="qcurve"/>
      <point x="154" y="745"/>
      <point x="98" y="721"/>
      <point x="56" y="680"/>
      <point x="32" y="624"/>
      <point x="32" y="593" type="qcurve"/>
      <point x="32" y="562"/>
      <point x="56" y="507"/>
      <point x="97" y="466"/>
      <point x="153" y="442"/>
    </contour>
    <contour>
      <point x="185" y="491" type="qcurve"/>
      <point x="143" y="491"/>
      <point x="85" y="550"/>
      <point x="85" y="594" type="qcurve"/>
      <point x="85" y="615"/>
      <point x="100" y="652"/>
      <point x="127" y="680"/>
      <point x="163" y="696"/>
      <point x="183" y="696" type="qcurve"/>
      <point x="226" y="696"/>
      <point x="284" y="637"/>
      <point x="284" y="593" type="qcurve"/>
      <point x="284" y="550"/>
      <point x="227" y="491"/>
    </contour>
    <contour>
      <point x="32" y="319" type="line"/>
      <point x="337" y="319" type="line"/>
      <point x="337" y="370" type="line"/>
      <point x="32" y="370" type="line"/>
    </contour>
  </outline>
</glyph>
<glyph name="guillemetright" format="2">
  <advance width="425"/>
  <unicode hex="00BB"/>
  <outline>
    <contour>
      <point x="273" y="499" type="line"/>
      <point x="214" y="466" type="line"/>
      <point x="308" y="298" type="line"/>
      <point x="214" y="131" type="line"/>
      <point x="273" y="99" type="line"/>
      <point x="386" y="296" type="line"/>
      <point x="386" y="301" type="line"/>
    </contour>
    <contour>
      <point x="100" y="499" type="line"/>
      <point x="41" y="466" type="line"/>
      <point x="135" y="298" type="line"/>
      <point x="41" y="131" type="line"/>
      <point x="100" y="99" type="line"/>
      <point x="215" y="296" type="line"/>
      <point x="215" y="301" type="line"/>
    </contour>
  </outline>
</glyph>
<glyph name="onehalf" format="2">
  <advance width="831"/>
  <unicode hex="00BD"/>
  <outline>
    <contour>
      <point x="171" y="288" type="line"/>
      <point x="231" y="288" type="line"/>
      <point x="231" y="739" type="line"/>
      <point x="96" y="739" type="line"/>
      <point x="96" y="684" type="line"/>
      <point x="171" y="684" type="line"/>
    </contour>
    <contour>
      <point x="206" y="0" type="line"/>
      <point x="260" y="0" type="line"/>
      <point x="602" y="739" type="line"/>
      <point x="547" y="739" type="line"/>
    </contour>
    <contour>
      <point x="506" y="0" type="line"/>
      <point x="812" y="0" type="line"/>
      <point x="812" y="55" type="line"/>
      <point x="595" y="55" type="line"/>
      <point x="728" y="176" type="line"/>
      <point x="776" y="220"/>
      <point x="814" y="283"/>
      <point x="814" y="318" type="qcurve"/>
      <point x="814" y="347"/>
      <point x="791" y="399"/>
      <point x="750" y="437"/>
      <point x="696" y="459"/>
      <point x="665" y="459" type="qcurve"/>
      <point x="592" y="459"/>
      <point x="510" y="372"/>
      <point x="510" y="295" type="qcurve"/>
      <point x="570" y="295" type="line"/>
      <point x="570" y="348"/>
      <point x="617" y="404"/>
      <point x="662" y="404" type="qcurve"/>
      <point x="700" y="404"/>
      <point x="753" y="355"/>
      <point x="753" y="320" type="qcurve"/>
      <point x="753" y="308"/>
      <point x="745" y="285"/>
      <point x="726" y="257"/>
      <point x="694" y="224"/>
      <point x="669" y="201" type="qcurve"/>
      <point x="506" y="51" type="line"/>
    </contour>
  </outline>
</glyph>
<glyph name="threequarters" format="2">
  <advance width="831"/>
  <unicode hex="00BE"/>
  <outline>
    <contour>
      <point x="13" y="439" type="line"/>
      <point x="15" y="367"/>
      <point x="98" y="280"/>
      <point x="166" y="280" type="qcurve"/>
      <point x="197" y="280"/>
      <point x="253" y="303"/>
      <point x="295" y="344"/>
      <point x="319" y="397"/>
      <point x="319" y="427" type="qcurve"/>
      <point x="319" y="465"/>
      <point x="284" y="524"/>
      <point x="249" y="546" type="qcurve"/>
      <point x="272" y="567"/>
      <point x="290" y="602"/>
      <point x="290" y="628" type="qcurve"/>
      <point x="290" y="653"/>
      <point x="271" y="697"/>
      <point x="238" y="729"/>
      <point x="193" y="747"/>
      <point x="167" y="747" type="qcurve"/>
      <point x="111" y="747"/>
      <point x="44" y="676"/>
      <point x="43" y="615" type="qcurve"/>
      <point x="104" y="615" type="line"/>
      <point x="104" y="652"/>
      <point x="136" y="692"/>
      <point x="166" y="692" type="qcurve"/>
      <point x="193" y="692"/>
      <point x="229" y="657"/>
      <point x="229" y="631" type="qcurve"/>
      <point x="229" y="602"/>
      <point x="186" y="571"/>
      <point x="148" y="571" type="qcurve"/>
      <point x="128" y="571" type="line"/>
      <point x="128" y="517" type="line"/>
      <point x="144" y="517" type="line"/>
      <point x="198" y="517"/>
      <point x="258" y="468"/>
      <point x="258" y="425" type="qcurve"/>
      <point x="258" y="407"/>
      <point x="243" y="374"/>
      <point x="217" y="350"/>
      <point x="184" y="335"/>
      <point x="165" y="335" type="qcurve"/>
      <point x="125" y="335"/>
      <point x="77" y="390"/>
      <point x="74" y="439" type="qcurve"/>
    </contour>
    <contour>
      <point x="239" y="0" type="line"/>
      <point x="293" y="0" type="line"/>
      <point x="635" y="739" type="line"/>
      <point x="580" y="739" type="line"/>
    </contour>
    <contour>
      <point x="470" y="79" type="line"/>
      <point x="701" y="79" type="line"/>
      <point x="701" y="0" type="line"/>
      <point x="761" y="0" type="line"/>
      <point x="761" y="79" type="line"/>
      <point x="803" y="79" type="line"/>
      <point x="803" y="134" type="line"/>
      <point x="761" y="134" type="line"/>
      <point x="761" y="451" type="line"/>
      <point x="696" y="451" type="line"/>
      <point x="470" y="129" type="line"/>
    </contour>
    <contour>
      <point x="545" y="134" type="line"/>
      <point x="701" y="359" type="line"/>
      <point x="701" y="134" type="line"/>
    </contour>
  </outline>
</glyph>
<glyph name="questiondown" format="2">
  <advance width="591"/>
  <unicode hex="00BF"/>
  <outline>
    <contour>
      <point x="456" y="39" type="line"/>
      <point x="450" y="-48"/>
      <point x="367" y="-138"/>
      <point x="293" y="-138" type="qcurve"/>
      <point x="260" y="-138"/>
      <point x="203" y="-116"/>
      <point x="163" y="-77"/>
      <point x="140" y="-22"/>
      <point x="140" y="10" type="qcurve"/>
      <point x="140" y="28"/>
      <point x="147" y="58"/>
      <point x="166" y="89"/>
      <point x="198" y="126"/>
      <point x="224" y="150" type="qcurve"/>
      <point x="252" y="177"/>
      <point x="292" y="225"/>
      <point x="317" y="270"/>
      <point x="329" y="315"/>
      <point x="329" y="339" type="qcurve"/>
      <point x="329" y="354" type="line"/>
      <point x="259" y="354" type="line"/>
      <point x="259" y="347" type="line"/>
      <point x="259" y="327"/>
      <point x="248" y="290"/>
      <point x="224" y="251"/>
      <point x="185" y="208"/>
      <point x="156" y="182" type="qcurve"/>
      <point x="131" y="159"/>
      <point x="97" y="119"/>
      <point x="76" y="79"/>
      <point x="66" y="36"/>
      <point x="66" y="12" type="qcurve"/>
      <point x="66" y="-35"/>
      <point x="100" y="-115"/>
      <point x="160" y="-173"/>
      <point x="243" y="-205"/>
      <point x="292" y="-205" type="qcurve"/>
      <point x="345" y="-205"/>
      <point x="431" y="-171"/>
      <point x="492" y="-107"/>
      <point x="525" y="-17"/>
      <point x="526" y="39" type="qcurve"/>
    </contour>
    <contour>
      <point x="256" y="421" type="line"/>
      <point x="330" y="421" type="line"/>
      <point x="330" y="547" type="line"/>
      <point x="256" y="547" type="line"/>
    </contour>
  </outline>
</glyph>
<glyph name="Atilde" format="2">
  <advance width="740"/>
  <unicode hex="00C3"/>
  <outline>
    <contour>
      <point x="11" y="0" type="line"/>
      <point x="89" y="0" type="line"/>
      <point x="197" y="249" type="line"/>
      <point x="541" y="249" type="line"/>
      <point x="648" y="0" type="line"/>
      <point x="729" y="0" type="line"/>
      <point x="411" y="739" type="line"/>
      <point x="328" y="739" type="line"/>
    </contour>
    <contour>
      <point x="225" y="316" type="line"/>
      <point x="370" y="655" type="line"/>
      <point x="512" y="316" type="line"/>
    </contour>
    <contour>
      <point x="261" y="815" type="line"/>
      <point x="267" y="822"/>
      <point x="282" y="834"/>
      <point x="298" y="843"/>
      <point x="313" y="847"/>
      <point x="321" y="847" type="qcurve"/>
      <point x="330" y="847"/>
      <point x="350" y="842"/>
      <point x="361" y="837" type="qcurve"/>
      <point x="390" y="824"/>
      <point x="417" y="815"/>
      <point x="427" y="815" type="qcurve"/>
      <point x="452" y="815"/>
      <point x="506" y="844"/>
      <point x="518" y="864" type="qcurve"/>
      <point x="485" y="910" type="line"/>
      <point x="469" y="894"/>
      <point x="443" y="879"/>
      <point x="428" y="879" type="qcurve"/>
      <point x="421" y="879"/>
      <point x="393" y="887"/>
      <point x="380" y="893" type="qcurve"/>
      <point x="355" y="904"/>
      <point x="334" y="910"/>
      <point x="321" y="910" type="qcurve"/>
      <point x="294" y="910"/>
      <point x="245" y="884"/>
      <point x="228" y="861" type="qcurve"/>
    </contour>
  </outline>
</glyph>
<glyph name="Aring" format="2">
  <advance width="740"/>
  <unicode hex="00C5"/>
  <outline>
    <contour>
      <point x="11" y="0" type="line"/>
      <point x="89" y="0" type="line"/>
      <point x="197" y="249" type="line"/>
      <point x="541" y="249" type="line"/>
      <point x="648" y="0" type="line"/>
      <point x="729" y="0" type="line"/>
      <point x="411" y="739" type="line"/>
      <point x="328" y="739" type="line"/>
    </contour>
    <contour>
      <point x="225" y="316" type="line"/>
      <point x="370" y="655" type="line"/>
      <point x="512" y="316" type="line"/>
    </contour>
    <contour>
      <point x="278" y="883" type="qcurve"/>
      <point x="278" y="864"/>
      <point x="292" y="831"/>
      <point x="317" y="806"/>
      <point x="351" y="792"/>
      <point x="370" y="792" type="qcurve"/>
      <point x="389" y="792"/>
      <point x="423" y="806"/>
      <point x="448" y="831"/>
      <point x="462" y="865"/>
      <point x="462" y="884" type="qcurve"/>
      <point x="462" y="903"/>
      <point x="448" y="936"/>
      <point x="423" y="961"/>
      <point x="390" y="976"/>
      <point x="371" y="976" type="qcurve"/>
      <point x="352" y="976"/>
      <point x="318" y="962"/>
      <point x="292" y="936"/>
      <point x="278" y="903"/>
    </contour>
    <contour>
      <point x="319" y="883" type="qcurve"/>
      <point x="319" y="905"/>
      <point x="348" y="935"/>
      <point x="369" y="935" type="qcurve"/>
      <point x="391" y="935"/>
      <point x="421" y="905"/>
      <point x="421" y="883" type="qcurve"/>
      <point x="421" y="862"/>
      <point x="391" y="833"/>
      <point x="370" y="833" type="qcurve"/>
      <point x="349" y="833"/>
      <point x="319" y="862"/>
    </contour>
  </outline>
</glyph>
<glyph name="Ccedilla" format="2">
  <advance width="813"/>
  <unicode hex="00C7"/>
  <outline>
    <contour>
      <point x="331" y="-166" type="line"/>
      <point x="342" y="-202"/>
      <point x="389" y="-240"/>
      <point x="424" y="-240" type="qcurve"/>
      <point x="465" y="-240"/>
      <point x="516" y="-187"/>
      <point x="516" y="-145" type="qcurve"/>
      <point x="516" y="-126"/>
      <point x="505" y="-95"/>
      <point x="485" y="-73"/>
      <point x="456" y="-61"/>
      <point x="439" y="-61" type="qcurve"/>
      <point x="431" y="-61"/>
      <point x="416" y="-64"/>
      <point x="405" y="-68" type="qcurve"/>
      <point x="429" y="-13" type="line"/>
      <point x="545" y="-13"/>
      <point x="716" y="91"/>
      <point x="770" y="194" type="qcurve"/>
      <point x="688" y="194" type="line"/>
      <point x="633" y="121"/>
      <point x="510" y="55"/>
      <point x="431" y="55" type="qcurve"/>
      <point x="366" y="55"/>
      <point x="253" y="105"/>
      <point x="168" y="190"/>
      <point x="119" y="305"/>
      <point x="119" y="370" type="qcurve"/>
      <point x="119" y="437"/>
      <point x="167" y="552"/>
      <point x="250" y="636"/>
      <point x="364" y="684"/>
      <point x="430" y="684" type="qcurve"/>
      <point x="515" y="684"/>
      <point x="640" y="616"/>
      <point x="684" y="547" type="qcurve"/>
      <point x="767" y="547" type="line"/>
      <point x="746" y="595"/>
      <point x="677" y="670"/>
      <point x="589" y="724"/>
      <point x="484" y="752"/>
      <point x="427" y="752" type="qcurve"/>
      <point x="345" y="752"/>
      <point x="204" y="694"/>
      <point x="102" y="591"/>
      <point x="44" y="450"/>
      <point x="44" y="367" type="qcurve"/>
      <point x="44" y="292"/>
      <point x="92" y="163"/>
      <point x="182" y="65"/>
      <point x="310" y="0"/>
      <point x="390" y="-12" type="qcurve"/>
      <point x="348" y="-103" type="line"/>
      <point x="378" y="-121" type="line"/>
      <point x="390" y="-109"/>
      <point x="409" y="-99"/>
      <point x="422" y="-99" type="qcurve"/>
      <point x="442" y="-99"/>
      <point x="468" y="-126"/>
      <point x="468" y="-147" type="qcurve"/>
      <point x="468" y="-168"/>
      <point x="444" y="-193"/>
      <point x="423" y="-193" type="qcurve"/>
      <point x="405" y="-193"/>
      <point x="384" y="-177"/>
      <point x="378" y="-159" type="qcurve"/>
    </contour>
  </outline>
</glyph>
<glyph name="Eth" format="2">
  <advance width="790"/>
  <unicode hex="00D0"/>
  <outline>
    <contour>
      <point x="122" y="0" type="line"/>
      <point x="321" y="0" type="line"/>
      <point x="421" y="0"/>
      <point x="579" y="50"/>
      <point x="688" y="144"/>
      <point x="746" y="280"/>
      <point x="746" y="367" type="qcurve"/>
      <point x="746" y="549"/>
      <point x="516" y="739"/>
      <point x="296" y="739" type="qcurve"/>
      <point x="122" y="739" type="line"/>
      <point x="122" y="414" type="line"/>
      <point x="26" y="414" type="line"/>
      <point x="26" y="347" type="line"/>
      <point x="122" y="347" type="line"/>
    </contour>
    <contour>
      <point x="196" y="67" type="line"/>
      <point x="196" y="347" type="line"/>
      <point x="401" y="347" type="line"/>
      <point x="401" y="414" type="line"/>
      <point x="196" y="414" type="line"/>
      <point x="196" y="672" type="line"/>
      <point x="299" y="672" type="line"/>
      <point x="483" y="672"/>
      <point x="671" y="519"/>
      <point x="671" y="370" type="qcurve"/>
      <point x="671" y="220"/>
      <point x="484" y="67"/>
      <point x="299" y="67" type="qcurve"/>
    </contour>
  </outline>
</glyph>
<glyph name="Ntilde" format="2">
  <advance width="740"/>
  <unicode hex="00D1"/>
  <outline>
    <contour>
      <point x="76" y="0" type="line"/>
      <point x="150" y="0" type="line"/>
      <point x="150" y="650" type="line"/>
      <point x="590" y="0" type="line"/>
      <point x="664" y="0" type="line"/>
      <point x="664" y="739" type="line"/>
      <point x="590" y="739" type="line"/>
      <point x="590" y="126" type="line"/>
      <point x="176" y="739" type="line"/>
      <point x="76" y="739" type="line"/>
    </contour>
    <contour>
      <point x="265" y="815" type="line"/>
      <point x="272" y="823"/>
      <point x="287" y="835"/>
      <point x="302" y="843"/>
      <point x="317" y="847"/>
      <point x="325" y="847" type="qcurve"/>
      <point x="332" y="847"/>
      <point x="353" y="842"/>
      <point x="365" y="837" type="qcurve"/>
      <point x="393" y="826"/>
      <point x="425" y="815"/>
      <point x="438" y="815" type="qcurve"/>
      <point x="461" y="815"/>
      <point x="509" y="843"/>
      <point x="522" y="864" type="qcurve"/>
      <point x="489" y="910" type="line"/>
      <point x="473" y="894"/>
      <point x="447" y="879"/>
      <point x="432" y="879" type="qcurve"/>
      <point x="425" y="879"/>
      <point x="398" y="887"/>
      <point x="384" y="893" type="qcurve"/>
      <point x="365" y="902"/>
      <point x="336" y="910"/>
      <point x="325" y="910" type="qcurve"/>
      <point x="298" y="910"/>
      <point x="249" y="884"/>
      <point x="232" y="861" type="qcurve"/>
    </contour>
  </outline>
</glyph>
<glyph name="Ograve" format="2">
  <advance width="869"/>
  <unicode hex="00D2"/>
  <outline>
    <contour>
      <point x="286" y="900" type="line"/>
      <point x="483" y="792" type="line"/>
      <point x="516" y="848" type="line"/>
      <point x="318" y="958" type="line"/>
    </contour>
    <contour>
      <point x="44" y="369" type="qcurve"/>
      <point x="44" y="291"/>
      <point x="106" y="152"/>
      <point x="213" y="48"/>
      <point x="355" y="-13"/>
      <point x="435" y="-13" type="qcurve"/>
      <point x="515" y="-13"/>
      <point x="657" y="47"/>
      <point x="763" y="151"/>
      <point x="825" y="290"/>
      <point x="825" y="369" type="qcurve"/>
      <point x="825" y="447"/>
      <point x="764" y="586"/>
      <point x="659" y="691"/>
      <point x="519" y="752"/>
      <point x="440" y="752" type="qcurve"/>
      <point x="357" y="752"/>
      <point x="213" y="692"/>
      <point x="106" y="588"/>
      <point x="44" y="449"/>
    </contour>
    <contour>
      <point x="119" y="369" type="qcurve"/>
      <point x="119" y="433"/>
      <point x="169" y="547"/>
      <point x="254" y="633"/>
      <point x="368" y="684"/>
      <point x="431" y="684" type="qcurve"/>
      <point x="497" y="684"/>
      <point x="614" y="635"/>
      <point x="700" y="549"/>
      <point x="750" y="434"/>
      <point x="750" y="368" type="qcurve"/>
      <point x="750" y="304"/>
      <point x="700" y="190"/>
      <point x="614" y="105"/>
      <point x="500" y="55"/>
      <point x="435" y="55" type="qcurve"/>
      <point x="370" y="55"/>
      <point x="255" y="105"/>
      <point x="169" y="190"/>
      <point x="119" y="305"/>
    </contour>
  </outline>
</glyph>
<glyph name="Otilde" format="2">
  <advance width="869"/>
  <unicode hex="00D5"/>
  <outline>
    <contour>
      <point x="333" y="815" type="line"/>
      <point x="343" y="823"/>
      <point x="360" y="835"/>
      <point x="374" y="843"/>
      <point x="387" y="847"/>
      <point x="393" y="847" type="qcurve"/>
      <point x="402" y="847"/>
      <point x="422" y="842"/>
      <point x="433" y="837" type="qcurve"/>
      <point x="462" y="824"/>
      <point x="489" y="815"/>
      <point x="499" y="815" type="qcurve"/>
      <point x="524" y="815"/>
      <point x="578" y="844"/>
      <point x="590" y="864" type="qcurve"/>
      <point x="557" y="910" type="line"/>
      <point x="541" y="894"/>
      <point x="515" y="879"/>
      <point x="500" y="879" type="qcurve"/>
      <point x="493" y="879"/>
      <point x="465" y="887"/>
      <point x="452" y="893" type="qcurve"/>
      <point x="427" y="904"/>
      <point x="406" y="910"/>
      <point x="393" y="910" type="qcurve"/>
      <point x="366" y="910"/>
      <point x="317" y="884"/>
      <point x="300" y="861" type="qcurve"/>
    </contour>
    <contour>
      <point x="44" y="369" type="qcurve"/>
      <point x="44" y="291"/>
      <point x="106" y="152"/>
      <point x="213" y="48"/>
      <point x="355" y="-13"/>
      <point x="435" y="-13" type="qcurve"/>
      <point x="515" y="-13"/>
      <point x="657" y="47"/>
      <point x="763" y="151"/>
      <point x="825" y="290"/>
      <point x="825" y="369" type="qcurve"/>
      <point x="825" y="447"/>
      <point x="764" y="586"/>
      <point x="659" y="691"/>
      <point x="519" y="752"/>
      <point x="440" y="752" type="qcurve"/>
      <point x="357" y="752"/>
      <point x="213" y="692"/>
      <point x="106" y="588"/>
      <point x="44" y="449"/>
    </contour>
    <contour>
      <point x="119" y="369" type="qcurve"/>
      <point x="119" y="433"/>
      <point x="169" y="547"/>
      <point x="254" y="633"/>
      <point x="368" y="684"/>
      <point x="431" y="684" type="qcurve"/>
      <point x="497" y="684"/>
      <point x="614" y="635"/>
      <point x="700" y="549"/>
      <point x="750" y="434"/>
      <point x="750" y="368" type="qcurve"/>
      <point x="750" y="304"/>
      <point x="700" y="190"/>
      <point x="614" y="105"/>
      <point x="500" y="55"/>
      <point x="435" y="55" type="qcurve"/>
      <point x="370" y="55"/>
      <point x="255" y="105"/>
      <point x="169" y="190"/>
      <point x="119" y="305"/>
    </contour>
  </outline>
</glyph>
<glyph name="Oslash" format="2">
  <advance width="868"/>
  <unicode hex="00D8"/>
  <outline>
    <contour>
      <point x="44" y="370" type="qcurve"/>
      <point x="44" y="283"/>
      <point x="112" y="136"/>
      <point x="176" y="82" type="qcurve"/>
      <point x="83" y="-42" type="line"/>
      <point x="139" y="-83" type="line"/>
      <point x="233" y="42" type="line"/>
      <point x="278" y="15"/>
      <point x="382" y="-13"/>
      <point x="438" y="-13" type="qcurve"/>
      <point x="519" y="-13"/>
      <point x="660" y="47"/>
      <point x="764" y="151"/>
      <point x="824" y="291"/>
      <point x="824" y="372" type="qcurve"/>
      <point x="824" y="459"/>
      <point x="758" y="600"/>
      <point x="692" y="656" type="qcurve"/>
      <point x="784" y="779" type="line"/>
      <point x="730" y="821" type="line"/>
      <point x="636" y="696" type="line"/>
      <point x="599" y="722"/>
      <point x="489" y="752"/>
      <point x="431" y="752" type="qcurve"/>
      <point x="350" y="752"/>
      <point x="208" y="693"/>
      <point x="104" y="590"/>
      <point x="44" y="450"/>
    </contour>
    <contour>
      <point x="119" y="366" type="qcurve"/>
      <point x="119" y="433"/>
      <point x="167" y="549"/>
      <point x="251" y="635"/>
      <point x="364" y="684"/>
      <point x="430" y="684" type="qcurve"/>
      <point x="476" y="684"/>
      <point x="560" y="662"/>
      <point x="595" y="641" type="qcurve"/>
      <point x="219" y="138" type="line"/>
      <point x="168" y="186"/>
      <point x="119" y="298"/>
    </contour>
    <contour>
      <point x="274" y="97" type="qcurve"/>
      <point x="650" y="600" type="line"/>
      <point x="701" y="550"/>
      <point x="749" y="439"/>
      <point x="749" y="369" type="qcurve"/>
      <point x="749" y="303"/>
      <point x="700" y="188"/>
      <point x="616" y="104"/>
      <point x="502" y="55"/>
      <point x="436" y="55" type="qcurve"/>
      <point x="392" y="55"/>
      <point x="317" y="74"/>
    </contour>
  </outline>
</glyph>
<glyph name="Ugrave" format="2">
  <advance width="655"/>
  <unicode hex="00D9"/>
  <outline>
    <contour>
      <point x="179" y="900" type="line"/>
      <point x="376" y="792" type="line"/>
      <point x="409" y="848" type="line"/>
      <point x="211" y="958" type="line"/>
    </contour>
    <contour>
      <point x="76" y="739" type="line"/>
      <point x="76" y="278" type="line"/>
      <point x="76" y="208"/>
      <point x="109" y="99"/>
      <point x="173" y="25"/>
      <point x="267" y="-13"/>
      <point x="327" y="-13" type="qcurve"/>
      <point x="449" y="-13"/>
      <point x="579" y="137"/>
      <point x="579" y="278" type="qcurve"/>
      <point x="579" y="739" type="line"/>
      <point x="505" y="739" type="line"/>
      <point x="505" y="278" type="line"/>
      <point x="505" y="168"/>
      <point x="415" y="55"/>
      <point x="327" y="55" type="qcurve"/>
      <point x="240" y="55"/>
      <point x="150" y="168"/>
      <point x="150" y="278" type="qcurve"/>
      <point x="150" y="739" type="line"/>
    </contour>
  </outline>
</glyph>
<glyph name="Uacute" format="2">
  <advance width="655"/>
  <unicode hex="00DA"/>
  <outline>
    <contour>
      <point x="281" y="792" type="line"/>
      <point x="474" y="906" type="line"/>
      <point x="440" y="964" type="line"/>
      <point x="247" y="848" type="line"/>
    </contour>
    <contour>
      <point x="76" y="739" type="line"/>
      <point x="76" y="278" type="line"/>
      <point x="76" y="208"/>
      <point x="109" y="99"/>
      <point x="173" y="25"/>
      <point x="267" y="-13"/>
      <point x="327" y="-13" type="qcurve"/>
      <point x="449" y="-13"/>
      <point x="579" y="137"/>
      <point x="579" y="278" type="qcurve"/>
      <point x="579" y="739" type="line"/>
      <point x="505" y="739" type="line"/>
      <point x="505" y="278" type="line"/>
      <point x="505" y="168"/>
      <point x="415" y="55"/>
      <point x="327" y="55" type="qcurve"/>
      <point x="240" y="55"/>
      <point x="150" y="168"/>
      <point x="150" y="278" type="qcurve"/>
      <point x="150" y="739" type="line"/>
    </contour>
  </outline>
</glyph>
<glyph name="Udieresis" format="2">
  <advance width="655"/>
  <unicode hex="00DC"/>
  <outline>
    <contour>
      <point x="217" y="805" type="line"/>
      <point x="291" y="805" type="line"/>
      <point x="291" y="931" type="line"/>
      <point x="217" y="931" type="line"/>
    </contour>
    <contour>
      <point x="364" y="805" type="line"/>
      <point x="438" y="805" type="line"/>
      <point x="438" y="931" type="line"/>
      <point x="364" y="931" type="line"/>
    </contour>
    <contour>
      <point x="76" y="739" type="line"/>
      <point x="76" y="278" type="line"/>
      <point x="76" y="208"/>
      <point x="109" y="99"/>
      <point x="173" y="25"/>
      <point x="267" y="-13"/>
      <point x="327" y="-13" type="qcurve"/>
      <point x="449" y="-13"/>
      <point x="579" y="137"/>
      <point x="579" y="278" type="qcurve"/>
      <point x="579" y="739" type="line"/>
      <point x="505" y="739" type="line"/>
      <point x="505" y="278" type="line"/>
      <point x="505" y="168"/>
      <point x="415" y="55"/>
      <point x="327" y="55" type="qcurve"/>
      <point x="240" y="55"/>
      <point x="150" y="168"/>
      <point x="150" y="278" type="qcurve"/>
      <point x="150" y="739" type="line"/>
    </contour>
  </outline>
</glyph>
<glyph name="Thorn" format="2">
  <advance width="592"/>
  <unicode hex="00DE"/>
  <outline>
    <contour>
      <point x="76" y="0" type="line"/>
      <point x="150" y="0" type="line"/>
      <point x="150" y="166" type="line"/>
      <point x="292" y="166" type="line"/>
      <point x="329" y="166"/>
      <point x="388" y="171"/>
      <point x="435" y="182"/>
      <point x="474" y="199"/>
      <point x="491" y="212" type="qcurve"/>
      <point x="527" y="238"/>
      <point x="565" y="326"/>
      <point x="565" y="382" type="qcurve"/>
      <point x="565" y="445"/>
      <point x="519" y="541"/>
      <point x="477" y="567" type="qcurve"/>
      <point x="443" y="588"/>
      <point x="351" y="606"/>
      <point x="280" y="606" type="qcurve"/>
      <point x="143" y="606" type="line"/>
      <point x="143" y="739" type="line"/>
      <point x="76" y="739" type="line"/>
    </contour>
    <contour>
      <point x="150" y="233" type="line"/>
      <point x="150" y="539" type="line"/>
      <point x="255" y="539" type="line"/>
      <point x="308" y="539"/>
      <point x="381" y="531"/>
      <point x="407" y="523" type="qcurve"/>
      <point x="447" y="510"/>
      <point x="490" y="437"/>
      <point x="490" y="383" type="qcurve"/>
      <point x="490" y="339"/>
      <point x="458" y="274"/>
      <point x="429" y="258" type="qcurve"/>
      <point x="406" y="245"/>
      <point x="340" y="233"/>
      <point x="287" y="233" type="qcurve"/>
    </contour>
  </outline>
</glyph>
<glyph name="germandbls" format="2">
  <advance width="554"/>
  <unicode hex="00DF"/>
  <outline>
    <contour>
      <point x="59" y="0" type="line"/>
      <point x="133" y="0" type="line"/>
      <point x="133" y="109" type="line"/>
      <point x="161" y="48"/>
      <point x="254" y="-13"/>
      <point x="319" y="-13" type="qcurve"/>
      <point x="363" y="-13"/>
      <point x="438" y="19"/>
      <point x="493" y="76"/>
      <point x="524" y="153"/>
      <point x="524" y="199" type="qcurve"/>
      <point x="524" y="271"/>
      <point x="455" y="368"/>
      <point x="389" y="389" type="qcurve"/>
      <point x="433" y="415"/>
      <point x="474" y="489"/>
      <point x="474" y="544" type="qcurve"/>
      <point x="474" y="589"/>
      <point x="442" y="665"/>
      <point x="386" y="721"/>
      <point x="308" y="752"/>
      <point x="263" y="752" type="qcurve"/>
      <point x="161" y="752"/>
      <point x="59" y="617"/>
      <point x="59" y="481" type="qcurve"/>
    </contour>
    <contour>
      <point x="133" y="203" type="line"/>
      <point x="133" y="481" type="line"/>
      <point x="133" y="584"/>
      <point x="198" y="684"/>
      <point x="264" y="684" type="qcurve"/>
      <point x="293" y="684"/>
      <point x="343" y="664"/>
      <point x="379" y="627"/>
      <point x="399" y="577"/>
      <point x="399" y="548" type="qcurve"/>
      <point x="399" y="483"/>
      <point x="312" y="408"/>
      <point x="237" y="408" type="qcurve"/>
      <point x="224" y="408" type="line"/>
      <point x="224" y="341" type="line"/>
      <point x="244" y="342"/>
      <point x="260" y="343"/>
      <point x="269" y="343" type="qcurve"/>
      <point x="354" y="343"/>
      <point x="449" y="266"/>
      <point x="449" y="197" type="qcurve"/>
      <point x="449" y="167"/>
      <point x="429" y="115"/>
      <point x="393" y="77"/>
      <point x="345" y="55"/>
      <point x="317" y="55" type="qcurve"/>
      <point x="260" y="55"/>
      <point x="186" y="137"/>
      <point x="184" y="203" type="qcurve"/>
    </contour>
  </outline>
</glyph>
<glyph name="acircumflex" format="2">
  <advance width="683"/>
  <unicode hex="00E2"/>
  <outline>
    <contour>
      <point x="174" y="623" type="line"/>
      <point x="265" y="623" type="line"/>
      <point x="353" y="697" type="line"/>
      <point x="439" y="623" type="line"/>
      <point x="528" y="623" type="line"/>
      <point x="385" y="749" type="line"/>
      <point x="319" y="749" type="line"/>
    </contour>
    <contour>
      <point x="42" y="272" type="qcurve"/>
      <point x="42" y="211"/>
      <point x="86" y="106"/>
      <point x="165" y="30"/>
      <point x="273" y="-13"/>
      <point x="336" y="-13" type="qcurve"/>
      <point x="406" y="-13"/>
      <point x="502" y="37"/>
      <point x="546" y="96" type="qcurve"/>
      <point x="546" y="0" type="line"/>
      <point x="620" y="0" type="line"/>
      <point x="620" y="547" type="line"/>
      <point x="546" y="547" type="line"/>
      <point x="546" y="450" type="line"/>
      <point x="505" y="508"/>
      <point x="402" y="560"/>
      <point x="330" y="560" type="qcurve"/>
      <point x="269" y="560"/>
      <point x="163" y="516"/>
      <point x="86" y="439"/>
      <point x="42" y="334"/>
    </contour>
    <contour>
      <point x="117" y="275" type="qcurve"/>
      <point x="117" y="320"/>
      <point x="150" y="399"/>
      <point x="208" y="458"/>
      <point x="285" y="492"/>
      <point x="329" y="492" type="qcurve"/>
      <point x="376" y="492"/>
      <point x="455" y="459"/>
      <point x="513" y="401"/>
      <point x="546" y="322"/>
      <point x="546" y="275" type="qcurve"/>
      <point x="546" y="228"/>
      <point x="514" y="148"/>
      <point x="457" y="89"/>
      <point x="380" y="55"/>
      <point x="335" y="55" type="qcurve"/>
      <point x="289" y="55"/>
      <point x="210" y="89"/>
      <point x="151" y="149"/>
      <point x="117" y="229"/>
    </contour>
  </outline>
</glyph>
<glyph name="atilde" format="2">
  <advance width="683"/>
  <unicode hex="00E3"/>
  <outline>
    <contour>
      <point x="239" y="633" type="line"/>
      <point x="246" y="641"/>
      <point x="260" y="653"/>
      <point x="275" y="661"/>
      <point x="290" y="665"/>
      <point x="299" y="665" type="qcurve"/>
      <point x="308" y="665"/>
      <point x="328" y="660"/>
      <point x="339" y="655" type="qcurve"/>
      <point x="368" y="642"/>
      <point x="395" y="633"/>
      <point x="405" y="633" type="qcurve"/>
      <point x="430" y="633"/>
      <point x="484" y="662"/>
      <point x="496" y="682" type="qcurve"/>
      <point x="463" y="728" type="line"/>
      <point x="447" y="712"/>
      <point x="421" y="697"/>
      <point x="406" y="697" type="qcurve"/>
      <point x="399" y="697"/>
      <point x="371" y="705"/>
      <point x="358" y="711" type="qcurve"/>
      <point x="333" y="722"/>
      <point x="312" y="728"/>
      <point x="299" y="728" type="qcurve"/>
      <point x="272" y="728"/>
      <point x="223" y="702"/>
      <point x="206" y="679" type="qcurve"/>
    </contour>
    <contour>
      <point x="42" y="272" type="qcurve"/>
      <point x="42" y="211"/>
      <point x="86" y="106"/>
      <point x="165" y="30"/>
      <point x="273" y="-13"/>
      <point x="336" y="-13" type="qcurve"/>
      <point x="406" y="-13"/>
      <point x="502" y="37"/>
      <point x="546" y="96" type="qcurve"/>
      <point x="546" y="0" type="line"/>
      <point x="620" y="0" type="line"/>
      <point x="620" y="547" type="line"/>
      <point x="546" y="547" type="line"/>
      <point x="546" y="450" type="line"/>
      <point x="505" y="508"/>
      <point x="402" y="560"/>
      <point x="330" y="560" type="qcurve"/>
      <point x="269" y="560"/>
      <point x="163" y="516"/>
      <point x="86" y="439"/>
      <point x="42" y="334"/>
    </contour>
    <contour>
      <point x="117" y="275" type="qcurve"/>
      <point x="117" y="320"/>
      <point x="150" y="399"/>
      <point x="208" y="458"/>
      <point x="285" y="492"/>
      <point x="329" y="492" type="qcurve"/>
      <point x="376" y="492"/>
      <point x="455" y="459"/>
      <point x="513" y="401"/>
      <point x="546" y="322"/>
      <point x="546" y="275" type="qcurve"/>
      <point x="546" y="228"/>
      <point x="514" y="148"/>
      <point x="457" y="89"/>
      <point x="380" y="55"/>
      <point x="335" y="55" type="qcurve"/>
      <point x="289" y="55"/>
      <point x="210" y="89"/>
      <point x="151" y="149"/>
      <point x="117" y="229"/>
    </contour>
  </outline>
</glyph>
<glyph name="aring" format="2">
  <advance width="683"/>
  <unicode hex="00E5"/>
  <outline>
    <contour>
      <point x="259" y="701" type="qcurve"/>
      <point x="259" y="682"/>
      <point x="273" y="649"/>
      <point x="298" y="624"/>
      <point x="332" y="610"/>
      <point x="351" y="610" type="qcurve"/>
      <point x="370" y="610"/>
      <point x="404" y="624"/>
      <point x="429" y="649"/>
      <point x="443" y="683"/>
      <point x="443" y="702" type="qcurve"/>
      <point x="443" y="721"/>
      <point x="429" y="754"/>
      <point x="404" y="779"/>
      <point x="371" y="794"/>
      <point x="352" y="794" type="qcurve"/>
      <point x="333" y="794"/>
      <point x="299" y="780"/>
      <point x="273" y="754"/>
      <point x="259" y="721"/>
    </contour>
    <contour>
      <point x="300" y="701" type="qcurve"/>
      <point x="300" y="723"/>
      <point x="329" y="753"/>
      <point x="350" y="753" type="qcurve"/>
      <point x="372" y="753"/>
      <point x="402" y="723"/>
      <point x="402" y="701" type="qcurve"/>
      <point x="402" y="680"/>
      <point x="372" y="651"/>
      <point x="351" y="651" type="qcurve"/>
      <point x="330" y="651"/>
      <point x="300" y="680"/>
    </contour>
    <contour>
      <point x="42" y="272" type="qcurve"/>
      <point x="42" y="211"/>
      <point x="86" y="106"/>
      <point x="165" y="30"/>
      <point x="273" y="-13"/>
      <point x="336" y="-13" type="qcurve"/>
      <point x="406" y="-13"/>
      <point x="502" y="37"/>
      <point x="546" y="96" type="qcurve"/>
      <point x="546" y="0" type="line"/>
      <point x="620" y="0" type="line"/>
      <point x="620" y="547" type="line"/>
      <point x="546" y="547" type="line"/>
      <point x="546" y="450" type="line"/>
      <point x="505" y="508"/>
      <point x="402" y="560"/>
      <point x="330" y="560" type="qcurve"/>
      <point x="269" y="560"/>
      <point x="163" y="516"/>
      <point x="86" y="439"/>
      <point x="42" y="334"/>
    </contour>
    <contour>
      <point x="117" y="275" type="qcurve"/>
      <point x="117" y="320"/>
      <point x="150" y="399"/>
      <point x="208" y="458"/>
      <point x="285" y="492"/>
      <point x="329" y="492" type="qcurve"/>
      <point x="376" y="492"/>
      <point x="455" y="459"/>
      <point x="513" y="401"/>
      <point x="546" y="322"/>
      <point x="546" y="275" type="qcurve"/>
      <point x="546" y="228"/>
      <point x="514" y="148"/>
      <point x="457" y="89"/>
      <point x="380" y="55"/>
      <point x="335" y="55" type="qcurve"/>
      <point x="289" y="55"/>
      <point x="210" y="89"/>
      <point x="151" y="149"/>
      <point x="117" y="229"/>
    </contour>
  </outline>
</glyph>
<glyph name="ae" format="2">
  <advance width="1157"/>
  <unicode hex="00E6"/>
  <outline>
    <contour>
      <point x="548" y="0" type="line"/>
      <point x="619" y="0" type="line"/>
      <point x="619" y="92" type="line"/>
      <point x="664" y="39"/>
      <point x="773" y="-13"/>
      <point x="839" y="-13" type="qcurve"/>
      <point x="884" y="-13"/>
      <point x="968" y="15"/>
      <point x="1038" y="65"/>
      <point x="1091" y="135"/>
      <point x="1105" y="178" type="qcurve"/>
      <point x="1028" y="178" type="line"/>
      <point x="1005" y="121"/>
      <point x="902" y="55"/>
      <point x="839" y="55" type="qcurve"/>
      <point x="796" y="55"/>
      <point x="721" y="84"/>
      <point x="663" y="136"/>
      <point x="627" y="206"/>
      <point x="623" y="247" type="qcurve"/>
      <point x="1116" y="247" type="line"/>
      <point x="1117" y="257"/>
      <point x="1119" y="277"/>
      <point x="1119" y="288" type="qcurve"/>
      <point x="1119" y="346"/>
      <point x="1076" y="446"/>
      <point x="1000" y="519"/>
      <point x="895" y="560"/>
      <point x="834" y="560" type="qcurve"/>
      <point x="767" y="560"/>
      <point x="664" y="508"/>
      <point x="619" y="452" type="qcurve"/>
      <point x="619" y="547" type="line"/>
      <point x="548" y="547" type="line"/>
      <point x="548" y="452" type="line"/>
      <point x="507" y="508"/>
      <point x="402" y="560"/>
      <point x="330" y="560" type="qcurve"/>
      <point x="268" y="560"/>
      <point x="163" y="516"/>
      <point x="86" y="439"/>
      <point x="42" y="334"/>
      <point x="42" y="272" type="qcurve"/>
      <point x="42" y="211"/>
      <point x="86" y="107"/>
      <point x="164" y="31"/>
      <point x="269" y="-13"/>
      <point x="331" y="-13" type="qcurve"/>
      <point x="400" y="-13"/>
      <point x="501" y="36"/>
      <point x="548" y="92" type="qcurve"/>
    </contour>
    <contour>
      <point x="333" y="55" type="qcurve"/>
      <point x="288" y="55"/>
      <point x="209" y="89"/>
      <point x="151" y="148"/>
      <point x="118" y="228"/>
      <point x="118" y="274" type="qcurve"/>
      <point x="118" y="320"/>
      <point x="151" y="400"/>
      <point x="208" y="459"/>
      <point x="286" y="492"/>
      <point x="331" y="492" type="qcurve"/>
      <point x="379" y="492"/>
      <point x="459" y="460"/>
      <point x="517" y="403"/>
      <point x="550" y="324"/>
      <point x="550" y="277" type="qcurve"/>
      <point x="550" y="230"/>
      <point x="517" y="149"/>
      <point x="459" y="89"/>
      <point x="379" y="55"/>
    </contour>
    <contour>
      <point x="626" y="314" type="line"/>
      <point x="632" y="354"/>
      <point x="669" y="419"/>
      <point x="724" y="466"/>
      <point x="795" y="492"/>
      <point x="836" y="492" type="qcurve"/>
      <point x="876" y="492"/>
      <point x="946" y="467"/>
      <point x="1001" y="420"/>
      <point x="1039" y="354"/>
      <point x="1046" y="314" type="qcurve"/>
    </contour>
  </outline>
</glyph>
<glyph name="ccedilla" format="2">
  <advance width="647"/>
  <unicode hex="00E7"/>
  <outline>
    <contour>
      <point x="257" y="-151" type="line"/>
      <point x="264" y="-186"/>
      <point x="310" y="-224"/>
      <point x="344" y="-224" type="qcurve"/>
      <point x="383" y="-224"/>
      <point x="433" y="-172"/>
      <point x="433" y="-131" type="qcurve"/>
      <point x="433" y="-95"/>
      <point x="391" y="-51"/>
      <point x="356" y="-51" type="qcurve"/>
      <point x="347" y="-51"/>
      <point x="334" y="-54"/>
      <point x="324" y="-58" type="qcurve"/>
      <point x="343" y="-13" type="line"/>
      <point x="432" y="-13"/>
      <point x="567" y="75"/>
      <point x="608" y="161" type="qcurve"/>
      <point x="524" y="161" type="line"/>
      <point x="481" y="103"/>
      <point x="396" y="55"/>
      <point x="337" y="55" type="qcurve"/>
      <point x="291" y="55"/>
      <point x="211" y="89"/>
      <point x="151" y="148"/>
      <point x="117" y="227"/>
      <point x="117" y="273" type="qcurve"/>
      <point x="117" y="319"/>
      <point x="151" y="399"/>
      <point x="209" y="458"/>
      <point x="288" y="492"/>
      <point x="334" y="492" type="qcurve"/>
      <point x="395" y="492"/>
      <point x="492" y="435"/>
      <point x="524" y="381" type="qcurve"/>
      <point x="607" y="381" type="line"/>
      <point x="574" y="464"/>
      <point x="428" y="560"/>
      <point x="335" y="560" type="qcurve"/>
      <point x="274" y="560"/>
      <point x="167" y="516"/>
      <point x="88" y="439"/>
      <point x="42" y="335"/>
      <point x="42" y="275" type="qcurve"/>
      <point x="42" y="218"/>
      <point x="81" y="119"/>
      <point x="151" y="43"/>
      <point x="248" y="-5"/>
      <point x="306" y="-11" type="qcurve"/>
      <point x="271" y="-90" type="line"/>
      <point x="301" y="-108" type="line"/>
      <point x="311" y="-95"/>
      <point x="330" y="-84"/>
      <point x="343" y="-84" type="qcurve"/>
      <point x="364" y="-84"/>
      <point x="390" y="-112"/>
      <point x="390" y="-135" type="qcurve"/>
      <point x="390" y="-156"/>
      <point x="365" y="-181"/>
      <point x="345" y="-181" type="qcurve"/>
      <point x="328" y="-181"/>
      <point x="305" y="-163"/>
      <point x="301" y="-146" type="qcurve"/>
    </contour>
  </outline>
</glyph>
<glyph name="eth" format="2">
  <advance width="655"/>
  <unicode hex="00F0"/>
  <outline>
    <contour>
      <point x="42" y="274" type="qcurve"/>
      <point x="42" y="212"/>
      <point x="86" y="107"/>
      <point x="164" y="30"/>
      <point x="271" y="-13"/>
      <point x="334" y="-13" type="qcurve"/>
      <point x="396" y="-13"/>
      <point x="498" y="30"/>
      <point x="572" y="107"/>
      <point x="613" y="214"/>
      <point x="613" y="279" type="qcurve"/>
      <point x="613" y="327"/>
      <point x="587" y="416"/>
      <point x="531" y="507"/>
      <point x="442" y="605"/>
      <point x="379" y="660" type="qcurve"/>
      <point x="468" y="699" type="line"/>
      <point x="429" y="743" type="line"/>
      <point x="334" y="701" type="line"/>
      <point x="313" y="720"/>
      <point x="287" y="741"/>
      <point x="266" y="756" type="qcurve"/>
      <point x="213" y="727" type="line"/>
      <point x="231" y="713"/>
      <point x="260" y="686"/>
      <point x="273" y="672" type="qcurve"/>
      <point x="194" y="637" type="line"/>
      <point x="230" y="591" type="line"/>
      <point x="317" y="630" type="line"/>
      <point x="329" y="620"/>
      <point x="344" y="606"/>
      <point x="362" y="588"/>
      <point x="389" y="562"/>
      <point x="412" y="538" type="qcurve"/>
      <point x="378" y="549"/>
      <point x="341" y="556"/>
      <point x="316" y="556" type="qcurve"/>
      <point x="257" y="556"/>
      <point x="157" y="513"/>
      <point x="84" y="437"/>
      <point x="42" y="334"/>
    </contour>
    <contour>
      <point x="117" y="272" type="qcurve"/>
      <point x="117" y="319"/>
      <point x="149" y="400"/>
      <point x="205" y="459"/>
      <point x="281" y="492"/>
      <point x="326" y="492" type="qcurve"/>
      <point x="372" y="492"/>
      <point x="450" y="459"/>
      <point x="507" y="401"/>
      <point x="538" y="319"/>
      <point x="538" y="271" type="qcurve"/>
      <point x="538" y="223"/>
      <point x="508" y="144"/>
      <point x="453" y="87"/>
      <point x="378" y="55"/>
      <point x="333" y="55" type="qcurve"/>
      <point x="286" y="55"/>
      <point x="207" y="88"/>
      <point x="149" y="145"/>
      <point x="117" y="225"/>
    </contour>
  </outline>
</glyph>
<glyph name="ntilde" format="2">
  <advance width="610"/>
  <unicode hex="00F1"/>
  <outline>
    <contour>
      <point x="186" y="633" type="line"/>
      <point x="193" y="642"/>
      <point x="207" y="654"/>
      <point x="221" y="662"/>
      <point x="237" y="665"/>
      <point x="246" y="665" type="qcurve"/>
      <point x="255" y="665"/>
      <point x="275" y="660"/>
      <point x="286" y="655" type="qcurve"/>
      <point x="315" y="642"/>
      <point x="342" y="633"/>
      <point x="352" y="633" type="qcurve"/>
      <point x="377" y="633"/>
      <point x="431" y="662"/>
      <point x="443" y="682" type="qcurve"/>
      <point x="410" y="728" type="line"/>
      <point x="394" y="712"/>
      <point x="368" y="697"/>
      <point x="353" y="697" type="qcurve"/>
      <point x="346" y="697"/>
      <point x="318" y="705"/>
      <point x="305" y="711" type="qcurve"/>
      <point x="280" y="722"/>
      <point x="259" y="728"/>
      <point x="246" y="728" type="qcurve"/>
      <point x="219" y="728"/>
      <point x="170" y="702"/>
      <point x="153" y="679" type="qcurve"/>
    </contour>
    <contour>
      <point x="63" y="0" type="line"/>
      <point x="137" y="0" type="line"/>
      <point x="137" y="301" type="line"/>
      <point x="137" y="395"/>
      <point x="222" y="492"/>
      <point x="304" y="492" type="qcurve"/>
      <point x="388" y="492"/>
      <point x="473" y="389"/>
      <point x="473" y="287" type="qcurve"/>
      <point x="473" y="0" type="line"/>
      <point x="547" y="0" type="line"/>
      <point x="547" y="287" type="line"/>
      <point x="547" y="420"/>
      <point x="427" y="560"/>
      <point x="313" y="560" type="qcurve"/>
      <point x="258" y="560"/>
      <point x="171" y="519"/>
      <point x="137" y="476" type="qcurve"/>
      <point x="137" y="547" type="line"/>
      <point x="63" y="547" type="line"/>
    </contour>
  </outline>
</glyph>
<glyph name="oacute" format="2">
  <advance width="655"/>
  <unicode hex="00F3"/>
  <outline>
    <contour>
      <point x="42" y="273" type="qcurve"/>
      <point x="42" y="212"/>
      <point x="86" y="107"/>
      <point x="164" y="30"/>
      <point x="271" y="-13"/>
      <point x="334" y="-13" type="qcurve"/>
      <point x="394" y="-13"/>
      <point x="497" y="30"/>
      <point x="571" y="106"/>
      <point x="613" y="210"/>
      <point x="613" y="272" type="qcurve"/>
      <point x="613" y="334"/>
      <point x="570" y="439"/>
      <point x="495" y="516"/>
      <point x="392" y="560"/>
      <point x="332" y="560" type="qcurve"/>
      <point x="269" y="560"/>
      <point x="163" y="517"/>
      <point x="85" y="441"/>
      <point x="42" y="335"/>
    </contour>
    <contour>
      <point x="332" y="55" type="qcurve"/>
      <point x="286" y="55"/>
      <point x="207" y="88"/>
      <point x="149" y="146"/>
      <point x="117" y="225"/>
      <point x="117" y="272" type="qcurve"/>
      <point x="117" y="319"/>
      <point x="149" y="400"/>
      <point x="205" y="459"/>
      <point x="281" y="492"/>
      <point x="326" y="492" type="qcurve"/>
      <point x="372" y="492"/>
      <point x="450" y="459"/>
      <point x="507" y="401"/>
      <point x="538" y="319"/>
      <point x="538" y="271" type="qcurve"/>
      <point x="538" y="224"/>
      <point x="507" y="144"/>
      <point x="453" y="87"/>
      <point x="377" y="55"/>
    </contour>
    <contour>
      <point x="281" y="610" type="line"/>
      <point x="474" y="724" type="line"/>
      <point x="440" y="782" type="line"/>
      <point x="247" y="666" type="line"/>
    </contour>
  </outline>
</glyph>
<glyph name="otilde" format="2">
  <advance width="655"/>
  <unicode hex="00F5"/>
  <outline>
    <contour>
      <point x="42" y="273" type="qcurve"/>
      <point x="42" y="212"/>
      <point x="86" y="107"/>
      <point x="164" y="30"/>
      <point x="271" y="-13"/>
      <point x="334" y="-13" type="qcurve"/>
      <point x="394" y="-13"/>
      <point x="497" y="30"/>
      <point x="571" y="106"/>
      <point x="613" y="210"/>
      <point x="613" y="272" type="qcurve"/>
      <point x="613" y="334"/>
      <point x="570" y="439"/>
      <point x="495" y="516"/>
      <point x="392" y="560"/>
      <point x="332" y="560" type="qcurve"/>
      <point x="269" y="560"/>
      <point x="163" y="517"/>
      <point x="85" y="441"/>
      <point x="42" y="335"/>
    </contour>
    <contour>
      <point x="332" y="55" type="qcurve"/>
      <point x="286" y="55"/>
      <point x="207" y="88"/>
      <point x="149" y="146"/>
      <point x="117" y="225"/>
      <point x="117" y="272" type="qcurve"/>
      <point x="117" y="319"/>
      <point x="149" y="400"/>
      <point x="205" y="459"/>
      <point x="281" y="492"/>
      <point x="326" y="492" type="qcurve"/>
      <point x="372" y="492"/>
      <point x="450" y="459"/>
      <point x="507" y="401"/>
      <point x="538" y="319"/>
      <point x="538" y="271" type="qcurve"/>
      <point x="538" y="224"/>
      <point x="507" y="144"/>
      <point x="453" y="87"/>
      <point x="377" y="55"/>
    </contour>
    <contour>
      <point x="222" y="633" type="line"/>
      <point x="228" y="641"/>
      <point x="242" y="653"/>
      <point x="256" y="661"/>
      <point x="273" y="665"/>
      <point x="282" y="665" type="qcurve"/>
      <point x="291" y="665"/>
      <point x="311" y="660"/>
      <point x="322" y="655" type="qcurve"/>
      <point x="351" y="642"/>
      <point x="378" y="633"/>
      <point x="388" y="633" type="qcurve"/>
      <point x="413" y="633"/>
      <point x="467" y="662"/>
      <point x="479" y="682" type="qcurve"/>
      <point x="446" y="728" type="line"/>
      <point x="430" y="712"/>
      <point x="404" y="697"/>
      <point x="389" y="697" type="qcurve"/>
      <point x="382" y="697"/>
      <point x="354" y="705"/>
      <point x="341" y="711" type="qcurve"/>
      <point x="316" y="722"/>
      <point x="295" y="728"/>
      <point x="282" y="728" type="qcurve"/>
      <point x="255" y="728"/>
      <point x="206" y="702"/>
      <point x="189" y="679" type="qcurve"/>
    </contour>
    <contour>
      <point x="42" y="273" type="qcurve"/>
      <point x="42" y="212"/>
      <point x="86" y="107"/>
      <point x="164" y="30"/>
      <point x="271" y="-13"/>
      <point x="334" y="-13" type="qcurve"/>
      <point x="394" y="-13"/>
      <point x="497" y="30"/>
      <point x="571" y="106"/>
      <point x="613" y="210"/>
      <point x="613" y="272" type="qcurve"/>
      <point x="613" y="334"/>
      <point x="570" y="439"/>
      <point x="495" y="516"/>
      <point x="392" y="560"/>
      <point x="332" y="560" type="qcurve"/>
      <point x="269" y="560"/>
      <point x="163" y="517"/>
      <point x="85" y="441"/>
      <point x="42" y="335"/>
    </contour>
    <contour>
      <point x="332" y="55" type="qcurve"/>
      <point x="286" y="55"/>
      <point x="207" y="88"/>
      <point x="149" y="146"/>
      <point x="117" y="225"/>
      <point x="117" y="272" type="qcurve"/>
      <point x="117" y="319"/>
      <point x="149" y="400"/>
      <point x="205" y="459"/>
      <point x="281" y="492"/>
      <point x="326" y="492" type="qcurve"/>
      <point x="372" y="492"/>
      <point x="450" y="459"/>
      <point x="507" y="401"/>
      <point x="538" y="319"/>
      <point x="538" y="271" type="qcurve"/>
      <point x="538" y="224"/>
      <point x="507" y="144"/>
      <point x="453" y="87"/>
      <point x="377" y="55"/>
    </contour>
  </outline>
</glyph>
<glyph name="oslash" format="2">
  <advance width="653"/>
  <unicode hex="00F8"/>
  <outline>
    <contour>
      <point x="73" y="1" type="line"/>
      <point x="126" y="-39" type="line"/>
      <point x="178" y="28" type="line"/>
      <point x="221" y="5"/>
      <point x="287" y="-13"/>
      <point x="329" y="-13" type="qcurve"/>
      <point x="391" y="-13"/>
      <point x="494" y="31"/>
      <point x="569" y="109"/>
      <point x="611" y="217"/>
      <point x="611" y="281" type="qcurve"/>
      <point x="611" y="342"/>
      <point x="571" y="438"/>
      <point x="528" y="478" type="qcurve"/>
      <point x="584" y="552" type="line"/>
      <point x="531" y="594" type="line"/>
      <point x="474" y="519" type="line"/>
      <point x="440" y="540"/>
      <point x="369" y="560"/>
      <point x="328" y="560" type="qcurve"/>
      <point x="268" y="560"/>
      <point x="164" y="515"/>
      <point x="87" y="437"/>
      <point x="42" y="332"/>
      <point x="42" y="272" type="qcurve"/>
      <point x="42" y="213"/>
      <point x="79" y="120"/>
      <point x="124" y="68" type="qcurve"/>
    </contour>
    <contour>
      <point x="166" y="121" type="line"/>
      <point x="139" y="159"/>
      <point x="117" y="225"/>
      <point x="117" y="266" type="qcurve"/>
      <point x="117" y="314"/>
      <point x="149" y="397"/>
      <point x="206" y="457"/>
      <point x="284" y="492"/>
      <point x="329" y="492" type="qcurve"/>
      <point x="358" y="492"/>
      <point x="410" y="480"/>
      <point x="434" y="468" type="qcurve"/>
    </contour>
    <contour>
      <point x="487" y="426" type="line"/>
      <point x="513" y="393"/>
      <point x="536" y="324"/>
      <point x="536" y="280" type="qcurve"/>
      <point x="536" y="230"/>
      <point x="505" y="147"/>
      <point x="449" y="88"/>
      <point x="370" y="55"/>
      <point x="323" y="55" type="qcurve"/>
      <point x="294" y="55"/>
      <point x="248" y="65"/>
      <point x="218" y="79" type="qcurve"/>
    </contour>
  </outline>
</glyph>
<glyph name="ugrave" format="2">
  <advance width="608"/>
  <unicode hex="00F9"/>
  <outline>
    <contour>
      <point x="156" y="718" type="line"/>
      <point x="353" y="610" type="line"/>
      <point x="386" y="666" type="line"/>
      <point x="188" y="776" type="line"/>
    </contour>
    <contour>
      <point x="471" y="0" type="line"/>
      <point x="545" y="0" type="line"/>
      <point x="545" y="547" type="line"/>
      <point x="471" y="547" type="line"/>
      <point x="471" y="266" type="line"/>
      <point x="471" y="164"/>
      <point x="383" y="55"/>
      <point x="300" y="55" type="qcurve"/>
      <point x="218" y="55"/>
      <point x="137" y="153"/>
      <point x="137" y="252" type="qcurve"/>
      <point x="137" y="547" type="line"/>
      <point x="63" y="547" type="line"/>
      <point x="63" y="252" type="line"/>
      <point x="63" y="121"/>
      <point x="180" y="-13"/>
      <point x="295" y="-13" type="qcurve"/>
      <point x="359" y="-13"/>
      <point x="443" y="34"/>
      <point x="471" y="85" type="qcurve"/>
    </contour>
  </outline>
</glyph>
<glyph name="ucircumflex" format="2">
  <advance width="608"/>
  <unicode hex="00FB"/>
  <outline>
    <contour>
      <point x="127" y="623" type="line"/>
      <point x="218" y="623" type="line"/>
      <point x="306" y="697" type="line"/>
      <point x="392" y="623" type="line"/>
      <point x="481" y="623" type="line"/>
      <point x="338" y="749" type="line"/>
      <point x="272" y="749" type="line"/>
    </contour>
    <contour>
      <point x="471" y="0" type="line"/>
      <point x="545" y="0" type="line"/>
      <point x="545" y="547" type="line"/>
      <point x="471" y="547" type="line"/>
      <point x="471" y="266" type="line"/>
      <point x="471" y="164"/>
      <point x="383" y="55"/>
      <point x="300" y="55" type="qcurve"/>
      <point x="218" y="55"/>
      <point x="137" y="153"/>
      <point x="137" y="252" type="qcurve"/>
      <point x="137" y="547" type="line"/>
      <point x="63" y="547" type="line"/>
      <point x="63" y="252" type="line"/>
      <point x="63" y="121"/>
      <point x="180" y="-13"/>
      <point x="295" y="-13" type="qcurve"/>
      <point x="359" y="-13"/>
      <point x="443" y="34"/>
      <point x="471" y="85" type="qcurve"/>
    </contour>
  </outline>
</glyph>
<glyph name="thorn" format="2">
  <advance width="682"/>
  <unicode hex="00FE"/>
  <outline>
    <contour>
      <point x="63" y="-192" type="line"/>
      <point x="137" y="-192" type="line"/>
      <point x="137" y="94" type="line"/>
      <point x="173" y="41"/>
      <point x="281" y="-13"/>
      <point x="350" y="-13" type="qcurve"/>
      <point x="411" y="-13"/>
      <point x="517" y="31"/>
      <point x="595" y="108"/>
      <point x="640" y="212"/>
      <point x="640" y="273" type="qcurve"/>
      <point x="640" y="334"/>
      <point x="596" y="439"/>
      <point x="519" y="516"/>
      <point x="413" y="560"/>
      <point x="352" y="560" type="qcurve"/>
      <point x="281" y="560"/>
      <point x="172" y="506"/>
      <point x="137" y="453" type="qcurve"/>
      <point x="137" y="739" type="line"/>
      <point x="63" y="739" type="line"/>
    </contour>
    <contour>
      <point x="349" y="55" type="qcurve"/>
      <point x="303" y="55"/>
      <point x="224" y="88"/>
      <point x="165" y="147"/>
      <point x="132" y="227"/>
      <point x="132" y="273" type="qcurve"/>
      <point x="132" y="319"/>
      <point x="165" y="399"/>
      <point x="223" y="458"/>
      <point x="301" y="492"/>
      <point x="346" y="492" type="qcurve"/>
      <point x="394" y="492"/>
      <point x="474" y="459"/>
      <point x="532" y="400"/>
      <point x="565" y="319"/>
      <point x="565" y="271" type="qcurve"/>
      <point x="565" y="225"/>
      <point x="532" y="146"/>
      <point x="474" y="88"/>
      <point x="395" y="55"/>
    </contour>
  </outline>
</glyph>
<glyph name="idotless" format="2">
  <advance width="200"/>
  <unicode hex="0131"/>
  <outline>
    <contour>
      <point x="63" y="0" type="line"/>
      <point x="137" y="0" type="line"/>
      <point x="137" y="547" type="line"/>
      <point x="63" y="547" type="line"/>
    </contour>
  </outline>
</glyph>
<glyph name="Lmiddledot" format="2">
  <advance width="462"/>
  <unicode hex="013F"/>
  <outline>
    <contour>
      <point x="309" y="313" type="line"/>
      <point x="383" y="313" type="line"/>
      <point x="383" y="439" type="line"/>
      <point x="309" y="439" type="line"/>
    </contour>
    <contour>
      <point x="76" y="0" type="line"/>
      <point x="456" y="0" type="line"/>
      <point x="456" y="67" type="line"/>
      <point x="150" y="67" type="line"/>
      <point x="150" y="739" type="line"/>
      <point x="76" y="739" type="line"/>
    </contour>
  </outline>
</glyph>
<glyph name="lmiddledot" format="2">
  <advance width="354"/>
  <unicode hex="0140"/>
  <outline>
    <contour>
      <point x="63" y="0" type="line"/>
      <point x="137" y="0" type="line"/>
      <point x="137" y="739" type="line"/>
      <point x="63" y="739" type="line"/>
    </contour>
    <contour>
      <point x="221" y="309" type="line"/>
      <point x="295" y="309" type="line"/>
      <point x="295" y="435" type="line"/>
      <point x="221" y="435" type="line"/>
    </contour>
  </outline>
</glyph>
<glyph name="OE" format="2">
  <advance width="1194"/>
  <unicode hex="0152"/>
  <outline>
    <contour>
      <point x="445" y="-13" type="qcurve"/>
      <point x="547" y="-13"/>
      <point x="699" y="70"/>
      <point x="745" y="151" type="qcurve"/>
      <point x="745" y="0" type="line"/>
      <point x="1138" y="0" type="line"/>
      <point x="1138" y="67" type="line"/>
      <point x="819" y="67" type="line"/>
      <point x="819" y="340" type="line"/>
      <point x="1127" y="340" type="line"/>
      <point x="1127" y="407" type="line"/>
      <point x="819" y="407" type="line"/>
      <point x="819" y="672" type="line"/>
      <point x="1138" y="672" type="line"/>
      <point x="1138" y="739" type="line"/>
      <point x="745" y="739" type="line"/>
      <point x="745" y="592" type="line"/>
      <point x="698" y="670"/>
      <point x="537" y="752"/>
      <point x="432" y="752" type="qcurve"/>
      <point x="349" y="752"/>
      <point x="207" y="694"/>
      <point x="103" y="592"/>
      <point x="44" y="453"/>
      <point x="44" y="371" type="qcurve"/>
      <point x="44" y="288"/>
      <point x="104" y="147"/>
      <point x="211" y="45"/>
      <point x="358" y="-13"/>
    </contour>
    <contour>
      <point x="438" y="55" type="qcurve"/>
      <point x="370" y="55"/>
      <point x="254" y="103"/>
      <point x="168" y="188"/>
      <point x="119" y="304"/>
      <point x="119" y="371" type="qcurve"/>
      <point x="119" y="438"/>
      <point x="166" y="553"/>
      <point x="248" y="637"/>
      <point x="361" y="684"/>
      <point x="427" y="684" type="qcurve"/>
      <point x="497" y="684"/>
      <point x="615" y="638"/>
      <point x="699" y="555"/>
      <point x="746" y="440"/>
      <point x="746" y="371" type="qcurve"/>
      <point x="746" y="302"/>
      <point x="700" y="187"/>
      <point x="618" y="102"/>
      <point x="505" y="55"/>
    </contour>
  </outline>
</glyph>
<glyph name="oe" format="2">
  <advance width="1137"/>
  <unicode hex="0153"/>
  <outline>
    <contour>
      <point x="1012" y="179" type="line"/>
      <point x="982" y="116"/>
      <point x="889" y="55"/>
      <point x="824" y="55" type="qcurve"/>
      <point x="781" y="55"/>
      <point x="704" y="85"/>
      <point x="646" y="137"/>
      <point x="611" y="207"/>
      <point x="608" y="248" type="qcurve"/>
      <point x="1096" y="248" type="line"/>
      <point x="1097" y="261"/>
      <point x="1098" y="280"/>
      <point x="1098" y="286" type="qcurve"/>
      <point x="1098" y="344"/>
      <point x="1055" y="445"/>
      <point x="979" y="518"/>
      <point x="876" y="560"/>
      <point x="816" y="560" type="qcurve"/>
      <point x="735" y="560"/>
      <point x="614" y="488"/>
      <point x="571" y="414" type="qcurve"/>
      <point x="526" y="489"/>
      <point x="405" y="560"/>
      <point x="324" y="560" type="qcurve"/>
      <point x="264" y="560"/>
      <point x="161" y="516"/>
      <point x="85" y="439"/>
      <point x="42" y="335"/>
      <point x="42" y="274" type="qcurve"/>
      <point x="42" y="213"/>
      <point x="86" y="108"/>
      <point x="164" y="31"/>
      <point x="270" y="-13"/>
      <point x="331" y="-13" type="qcurve"/>
      <point x="411" y="-13"/>
      <point x="526" y="59"/>
      <point x="571" y="138" type="qcurve"/>
      <point x="606" y="67"/>
      <point x="741" y="-13"/>
      <point x="828" y="-13" type="qcurve"/>
      <point x="873" y="-13"/>
      <point x="956" y="15"/>
      <point x="1024" y="66"/>
      <point x="1074" y="137"/>
      <point x="1086" y="179" type="qcurve"/>
    </contour>
    <contour>
      <point x="331" y="55" type="qcurve"/>
      <point x="286" y="55"/>
      <point x="207" y="88"/>
      <point x="150" y="147"/>
      <point x="117" y="227"/>
      <point x="117" y="273" type="qcurve"/>
      <point x="117" y="320"/>
      <point x="148" y="400"/>
      <point x="204" y="459"/>
      <point x="279" y="492"/>
      <point x="323" y="492" type="qcurve"/>
      <point x="369" y="492"/>
      <point x="447" y="459"/>
      <point x="504" y="401"/>
      <point x="536" y="322"/>
      <point x="536" y="275" type="qcurve"/>
      <point x="536" y="228"/>
      <point x="505" y="148"/>
      <point x="450" y="89"/>
      <point x="375" y="55"/>
    </contour>
    <contour>
      <point x="608" y="315" type="line"/>
      <point x="628" y="398"/>
      <point x="738" y="492"/>
      <point x="815" y="492" type="qcurve"/>
      <point x="856" y="492"/>
      <point x="927" y="467"/>
      <point x="983" y="420"/>
      <point x="1020" y="355"/>
      <point x="1027" y="315" type="qcurve"/>
    </contour>
  </outline>
</glyph>
<glyph name="scaron" format="2">
  <advance width="388"/>
  <unicode hex="0161"/>
  <outline>
    <contour>
      <point x="17" y="749" type="line"/>
      <point x="160" y="623" type="line"/>
      <point x="226" y="623" type="line"/>
      <point x="371" y="749" type="line"/>
      <point x="280" y="749" type="line"/>
      <point x="192" y="675" type="line"/>
      <point x="106" y="749" type="line"/>
    </contour>
    <contour>
      <point x="18" y="161" type="line"/>
      <point x="19" y="81"/>
      <point x="114" y="-13"/>
      <point x="194" y="-13" type="qcurve"/>
      <point x="231" y="-13"/>
      <point x="292" y="12"/>
      <point x="337" y="57"/>
      <point x="361" y="119"/>
      <point x="361" y="157" type="qcurve"/>
      <point x="361" y="208"/>
      <point x="295" y="288"/>
      <point x="234" y="309" type="qcurve"/>
      <point x="203" y="320"/>
      <point x="158" y="344"/>
      <point x="128" y="372"/>
      <point x="113" y="403"/>
      <point x="113" y="421" type="qcurve"/>
      <point x="113" y="452"/>
      <point x="157" y="492"/>
      <point x="192" y="492" type="qcurve"/>
      <point x="228" y="492"/>
      <point x="269" y="451"/>
      <point x="272" y="412" type="qcurve"/>
      <point x="347" y="412" type="line"/>
      <point x="346" y="445"/>
      <point x="322" y="499"/>
      <point x="282" y="538"/>
      <point x="226" y="560"/>
      <point x="193" y="560" type="qcurve"/>
      <point x="158" y="560"/>
      <point x="101" y="538"/>
      <point x="60" y="497"/>
      <point x="38" y="440"/>
      <point x="38" y="406" type="qcurve"/>
      <point x="38" y="379"/>
      <point x="53" y="336"/>
      <point x="86" y="301"/>
      <point x="140" y="270"/>
      <point x="180" y="255" type="qcurve"/>
      <point x="212" y="243"/>
      <point x="253" y="221"/>
      <point x="277" y="198"/>
      <point x="286" y="169"/>
      <point x="286" y="150" type="qcurve"/>
      <point x="286" y="108"/>
      <point x="234" y="55"/>
      <point x="194" y="55" type="qcurve"/>
      <point x="147" y="55"/>
      <point x="94" y="110"/>
      <point x="91" y="161" type="qcurve"/>
    </contour>
  </outline>
</glyph>
<glyph name="fhook" format="2">
  <advance width="554"/>
  <unicode hex="0192"/>
  <outline>
    <contour>
      <point x="18" y="-146" type="line"/>
      <point x="32" y="-150"/>
      <point x="58" y="-153"/>
      <point x="76" y="-153" type="qcurve"/>
      <point x="126" y="-153"/>
      <point x="199" y="-128"/>
      <point x="252" y="-72"/>
      <point x="288" y="20"/>
      <point x="300" y="86" type="qcurve"/>
      <point x="380" y="517" type="line"/>
      <point x="492" y="517" type="line"/>
      <point x="504" y="584" type="line"/>
      <point x="392" y="584" type="line"/>
      <point x="396" y="607" type="line"/>
      <point x="408" y="678"/>
      <point x="468" y="751"/>
      <point x="514" y="751" type="qcurve"/>
      <point x="519" y="751"/>
      <point x="530" y="750"/>
      <point x="535" y="749" type="qcurve"/>
      <point x="546" y="815" type="line"/>
      <point x="535" y="817"/>
      <point x="523" y="818"/>
      <point x="517" y="818" type="qcurve"/>
      <point x="445" y="818"/>
      <point x="343" y="706"/>
      <point x="326" y="607" type="qcurve"/>
      <point x="322" y="584" type="line"/>
      <point x="211" y="584" type="line"/>
      <point x="198" y="517" type="line"/>
      <point x="311" y="517" type="line"/>
      <point x="231" y="92" type="line"/>
      <point x="221" y="39"/>
      <point x="197" y="-29"/>
      <point x="162" y="-70"/>
      <point x="113" y="-86"/>
      <point x="78" y="-86" type="qcurve"/>
      <point x="67" y="-86"/>
      <point x="45" y="-84"/>
      <point x="30" y="-82" type="qcurve"/>
    </contour>
  </outline>
</glyph>
<glyph name="brevemod" format="2">
  <advance width="453"/>
  <unicode hex="02D8"/>
  <outline>
    <contour>
      <point x="74" y="743" type="line"/>
      <point x="85" y="680"/>
      <point x="158" y="623"/>
      <point x="226" y="623" type="qcurve"/>
      <point x="293" y="623"/>
      <point x="367" y="681"/>
      <point x="378" y="743" type="qcurve"/>
      <point x="314" y="743" type="line"/>
      <point x="309" y="712"/>
      <point x="265" y="681"/>
      <point x="226" y="681" type="qcurve"/>
      <point x="187" y="681"/>
      <point x="143" y="712"/>
      <point x="138" y="743" type="qcurve"/>
    </contour>
  </outline>
</glyph>
<glyph name="dotaccentmod" format="2">
  <advance width="222"/>
  <unicode hex="02D9"/>
  <outline>
    <contour>
      <point x="74" y="623" type="line"/>
      <point x="148" y="623" type="line"/>
      <point x="148" y="749" type="line"/>
      <point x="74" y="749" type="line"/>
    </contour>
  </outline>
</glyph>
<glyph name="ringmod" format="2">
  <advance width="332"/>
  <unicode hex="02DA"/>
  <outline>
    <contour>
      <point x="74" y="701" type="qcurve"/>
      <point x="74" y="682"/>
      <point x="88" y="649"/>
      <point x="113" y="624"/>
      <point x="147" y="610"/>
      <point x="166" y="610" type="qcurve"/>
      <point x="185" y="610"/>
      <point x="219" y="624"/>
      <point x="244" y="649"/>
      <point x="258" y="683"/>
      <point x="258" y="702" type="qcurve"/>
      <point x="258" y="721"/>
      <point x="244" y="754"/>
      <point x="219" y="779"/>
      <point x="186" y="794"/>
      <point x="167" y="794" type="qcurve"/>
      <point x="148" y="794"/>
      <point x="114" y="780"/>
      <point x="88" y="754"/>
      <point x="74" y="721"/>
    </contour>
    <contour>
      <point x="115" y="701" type="qcurve"/>
      <point x="115" y="723"/>
      <point x="144" y="753"/>
      <point x="165" y="753" type="qcurve"/>
      <point x="187" y="753"/>
      <point x="217" y="723"/>
      <point x="217" y="701" type="qcurve"/>
      <point x="217" y="680"/>
      <point x="187" y="651"/>
      <point x="166" y="651" type="qcurve"/>
      <point x="145" y="651"/>
      <point x="115" y="680"/>
    </contour>
  </outline>
</glyph>
<glyph name="ogonekmod" format="2">
  <advance width="302"/>
  <unicode hex="02DB"/>
  <outline>
    <contour>
      <point x="228" y="-136" type="line"/>
      <point x="217" y="-141"/>
      <point x="195" y="-146"/>
      <point x="183" y="-146" type="qcurve"/>
      <point x="157" y="-146"/>
      <point x="124" y="-119"/>
      <point x="124" y="-98" type="qcurve"/>
      <point x="124" y="-77"/>
      <point x="164" y="-23"/>
      <point x="197" y="0" type="qcurve"/>
      <point x="146" y="0" type="line"/>
      <point x="108" y="-23"/>
      <point x="74" y="-71"/>
      <point x="74" y="-101" type="qcurve"/>
      <point x="74" y="-141"/>
      <point x="132" y="-191"/>
      <point x="178" y="-191" type="qcurve"/>
      <point x="189" y="-191"/>
      <point x="211" y="-187"/>
      <point x="228" y="-182" type="qcurve"/>
    </contour>
  </outline>
</glyph>
<glyph name="tildemod" format="2">
  <advance width="439"/>
  <unicode hex="02DC"/>
  <outline>
    <contour>
      <point x="108" y="633" type="line"/>
      <point x="114" y="641"/>
      <point x="127" y="653"/>
      <point x="142" y="661"/>
      <point x="158" y="665"/>
      <point x="168" y="665" type="qcurve"/>
      <point x="177" y="665"/>
      <point x="197" y="660"/>
      <point x="208" y="655" type="qcurve"/>
      <point x="237" y="642"/>
      <point x="264" y="633"/>
      <point x="274" y="633" type="qcurve"/>
      <point x="299" y="633"/>
      <point x="353" y="662"/>
      <point x="365" y="682" type="qcurve"/>
      <point x="332" y="728" type="line"/>
      <point x="316" y="712"/>
      <point x="290" y="697"/>
      <point x="275" y="697" type="qcurve"/>
      <point x="268" y="697"/>
      <point x="240" y="705"/>
      <point x="227" y="711" type="qcurve"/>
      <point x="202" y="722"/>
      <point x="181" y="728"/>
      <point x="168" y="728" type="qcurve"/>
      <point x="141" y="728"/>
      <point x="92" y="702"/>
      <point x="75" y="679" type="qcurve"/>
    </contour>
  </outline>
</glyph>
<glyph name="gravecomb" format="2">
  <advance width="0"/>
  <unicode hex="0300"/>
  <outline>
    <contour>
      <point x="-476" y="718" type="line"/>
      <point x="-279" y="610" type="line"/>
      <point x="-246" y="666" type="line"/>
      <point x="-444" y="776" type="line"/>
    </contour>
  </outline>
</glyph>
<glyph name="acutecomb" format="2">
  <advance width="0"/>
  <unicode hex="0301"/>
  <outline>
    <contour>
      <point x="-374" y="610" type="line"/>
      <point x="-181" y="724" type="line"/>
      <point x="-215" y="782" type="line"/>
      <point x="-408" y="666" type="line"/>
    </contour>
  </outline>
</glyph>
<glyph name="circumflexcomb" format="2">
  <advance width="0"/>
  <unicode hex="0302"/>
  <outline>
    <contour>
      <point x="-505" y="623" type="line"/>
      <point x="-414" y="623" type="line"/>
      <point x="-326" y="697" type="line"/>
      <point x="-240" y="623" type="line"/>
      <point x="-151" y="623" type="line"/>
      <point x="-294" y="749" type="line"/>
      <point x="-360" y="749" type="line"/>
    </contour>
  </outline>
</glyph>
<glyph name="tildecomb" format="2">
  <advance width="0"/>
  <unicode hex="0303"/>
  <outline>
    <contour>
      <point x="-433" y="633" type="line"/>
      <point x="-426" y="641"/>
      <point x="-412" y="653"/>
      <point x="-397" y="661"/>
      <point x="-381" y="665"/>
      <point x="-373" y="665" type="qcurve"/>
      <point x="-366" y="665"/>
      <point x="-346" y="660"/>
      <point x="-333" y="655" type="qcurve"/>
      <point x="-302" y="643"/>
      <point x="-264" y="633"/>
      <point x="-252" y="633" type="qcurve"/>
      <point x="-233" y="633"/>
      <point x="-188" y="662"/>
      <point x="-176" y="682" type="qcurve"/>
      <point x="-209" y="728" type="line"/>
      <point x="-225" y="712"/>
      <point x="-251" y="697"/>
      <point x="-266" y="697" type="qcurve"/>
      <point x="-273" y="697"/>
      <point x="-301" y="705"/>
      <point x="-314" y="711" type="qcurve"/>
      <point x="-339" y="722"/>
      <point x="-360" y="728"/>
      <point x="-373" y="728" type="qcurve"/>
      <point x="-400" y="728"/>
      <point x="-449" y="702"/>
      <point x="-466" y="679" type="qcurve"/>
    </contour>
  </outline>
</glyph>
<glyph name="macroncomb" format="2">
  <advance width="0"/>
  <unicode hex="0304"/>
  <outline>
    <contour>
      <point x="-496" y="643" type="line"/>
      <point x="-159" y="643" type="line"/>
      <point x="-159" y="707" type="line"/>
      <point x="-496" y="707" type="line"/>
    </contour>
  </outline>
</glyph>
<glyph name="dotaccentcomb" format="2">
  <advance width="0"/>
  <unicode hex="0307"/>
  <outline>
    <contour>
      <point x="-364" y="623" type="line"/>
      <point x="-290" y="623" type="line"/>
      <point x="-290" y="749" type="line"/>
      <point x="-364" y="749" type="line"/>
    </contour>
  </outline>
</glyph>
<glyph name="dieresiscomb" format="2">
  <advance width="0"/>
  <unicode hex="0308"/>
  <outline>
    <contour>
      <point x="-438" y="623" type="line"/>
      <point x="-364" y="623" type="line"/>
      <point x="-364" y="749" type="line"/>
      <point x="-438" y="749" type="line"/>
    </contour>
    <contour>
      <point x="-291" y="623" type="line"/>
      <point x="-217" y="623" type="line"/>
      <point x="-217" y="749" type="line"/>
      <point x="-291" y="749" type="line"/>
    </contour>
  </outline>
</glyph>
<glyph name="ringcomb" format="2">
  <advance width="0"/>
  <unicode hex="030A"/>
  <outline>
    <contour>
      <point x="-419" y="701" type="qcurve"/>
      <point x="-419" y="682"/>
      <point x="-405" y="649"/>
      <point x="-380" y="624"/>
      <point x="-346" y="610"/>
      <point x="-327" y="610" type="qcurve"/>
      <point x="-308" y="610"/>
      <point x="-274" y="624"/>
      <point x="-249" y="649"/>
      <point x="-235" y="683"/>
      <point x="-235" y="702" type="qcurve"/>
      <point x="-235" y="721"/>
      <point x="-249" y="754"/>
      <point x="-274" y="779"/>
      <point x="-307" y="794"/>
      <point x="-326" y="794" type="qcurve"/>
      <point x="-346" y="794"/>
      <point x="-379" y="780"/>
      <point x="-405" y="754"/>
      <point x="-419" y="721"/>
    </contour>
    <contour>
      <point x="-378" y="701" type="qcurve"/>
      <point x="-378" y="723"/>
      <point x="-349" y="753"/>
      <point x="-328" y="753" type="qcurve"/>
      <point x="-306" y="753"/>
      <point x="-276" y="723"/>
      <point x="-276" y="701" type="qcurve"/>
      <point x="-276" y="680"/>
      <point x="-306" y="651"/>
      <point x="-327" y="651" type="qcurve"/>
      <point x="-348" y="651"/>
      <point x="-378" y="680"/>
    </contour>
  </outline>
</glyph>
<glyph name="doubleacutecomb" format="2">
  <advance width="0"/>
  <unicode hex="030B"/>
  <outline>
    <contour>
      <point x="-482" y="610" type="line"/>
      <point x="-308" y="731" type="line"/>
      <point x="-346" y="780" type="line"/>
      <point x="-517" y="657" type="line"/>
    </contour>
    <contour>
      <point x="-286" y="610" type="line"/>
      <point x="-112" y="731" type="line"/>
      <point x="-150" y="780" type="line"/>
      <point x="-321" y="657" type="line"/>
    </contour>
  </outline>
</glyph>
<glyph name="caroncomb" format="2">
  <advance width="0"/>
  <unicode hex="030C"/>
  <outline>
    <contour>
      <point x="-505" y="749" type="line"/>
      <point x="-362" y="623" type="line"/>
      <point x="-296" y="623" type="line"/>
      <point x="-151" y="749" type="line"/>
      <point x="-242" y="749" type="line"/>
      <point x="-330" y="675" type="line"/>
      <point x="-416" y="749" type="line"/>
    </contour>
  </outline>
</glyph>
<glyph name="doublegravecomb" format="2">
  <advance width="0"/>
  <unicode hex="030F"/>
  <outline>
    <contour>
      <point x="-330" y="898" type="line"/>
      <point x="-133" y="790" type="line"/>
      <point x="-100" y="846" type="line"/>
      <point x="-298" y="956" type="line"/>
    </contour>
    <contour>
      <point x="-540" y="898" type="line"/>
      <point x="-343" y="790" type="line"/>
      <point x="-310" y="846" type="line"/>
      <point x="-508" y="956" type="line"/>
    </contour>
  </outline>
</glyph>
<glyph name="Io-cyrl" format="2">
  <advance width="536"/>
  <unicode hex="0401"/>
  <outline>
    <contour>
      <point x="76" y="0" type="line"/>
      <point x="480" y="0" type="line"/>
      <point x="480" y="67" type="line"/>
      <point x="150" y="67" type="line"/>
      <point x="150" y="340" type="line"/>
      <point x="469" y="340" type="line"/>
      <point x="469" y="407" type="line"/>
      <point x="150" y="407" type="line"/>
      <point x="150" y="672" type="line"/>
      <point x="480" y="672" type="line"/>
      <point x="480" y="739" type="line"/>
      <point x="76" y="739" type="line"/>
    </contour>
    <contour>
      <point x="168" y="805" type="line"/>
      <point x="242" y="805" type="line"/>
      <point x="242" y="931" type="line"/>
      <point x="168" y="931" type="line"/>
    </contour>
    <contour>
      <point x="315" y="805" type="line"/>
      <point x="389" y="805" type="line"/>
      <point x="389" y="931" type="line"/>
      <point x="315" y="931" type="line"/>
    </contour>
  </outline>
</glyph>
<glyph name="Dje-cyrl" format="2">
  <advance width="670"/>
  <unicode hex="0402"/>
  <outline>
    <contour>
      <point x="176" y="0" type="line"/>
      <point x="250" y="0" type="line"/>
      <point x="250" y="373" type="line"/>
      <point x="392" y="373" type="line"/>
      <point x="481" y="373"/>
      <point x="570" y="299"/>
      <point x="570" y="224" type="qcurve"/>
      <point x="570" y="176"/>
      <point x="548" y="110"/>
      <point x="498" y="71"/>
      <point x="414" y="54"/>
      <point x="352" y="54" type="qcurve"/>
      <point x="352" y="-13" type="line"/>
      <point x="433" y="-13"/>
      <point x="545" y="12"/>
      <point x="614" y="68"/>
      <point x="645" y="159"/>
      <point x="645" y="224" type="qcurve"/>
      <point x="645" y="330"/>
      <point x="519" y="440"/>
      <point x="397" y="440" type="qcurve"/>
      <point x="250" y="440" type="line"/>
      <point x="250" y="672" type="line"/>
      <point x="439" y="672" type="line"/>
      <point x="439" y="739" type="line"/>
      <point x="7" y="739" type="line"/>
      <point x="7" y="672" type="line"/>
      <point x="176" y="672" type="line"/>
    </contour>
  </outline>
</glyph>
<glyph name="Gje-cyrl" format="2">
  <advance width="444"/>
  <unicode hex="0403"/>
  <outline>
    <contour>
      <point x="194" y="792" type="line"/>
      <point x="387" y="906" type="line"/>
      <point x="353" y="964" type="line"/>
      <point x="160" y="848" type="line"/>
    </contour>
    <contour>
      <point x="76" y="0" type="line"/>
      <point x="150" y="0" type="line"/>
      <point x="150" y="672" type="line"/>
      <point x="437" y="672" type="line"/>
      <point x="437" y="739" type="line"/>
      <point x="76" y="739" type="line"/>
    </contour>
  </outline>
</glyph>
<glyph name="Ieukrainian-cyrl" format="2">
  <advance width="813"/>
  <unicode hex="0404"/>
  <outline>
    <contour>
      <point x="121" y="410" type="line"/>
      <point x="128" y="470"/>
      <point x="181" y="571"/>
      <point x="263" y="643"/>
      <point x="370" y="684"/>
      <point x="430" y="684" type="qcurve"/>
      <point x="515" y="684"/>
      <point x="640" y="616"/>
      <point x="684" y="547" type="qcurve"/>
      <point x="767" y="547" type="line"/>
      <point x="746" y="595"/>
      <point x="677" y="670"/>
      <point x="589" y="724"/>
      <point x="484" y="752"/>
      <point x="427" y="752" type="qcurve"/>
      <point x="345" y="752"/>
      <point x="204" y="694"/>
      <point x="102" y="591"/>
      <point x="44" y="450"/>
      <point x="44" y="367" type="qcurve"/>
      <point x="44" y="286"/>
      <point x="103" y="147"/>
      <point x="207" y="45"/>
      <point x="349" y="-13"/>
      <point x="432" y="-13" type="qcurve"/>
      <point x="488" y="-13"/>
      <point x="587" y="13"/>
      <point x="672" y="65"/>
      <point x="742" y="143"/>
      <point x="770" y="194" type="qcurve"/>
      <point x="688" y="194" type="line"/>
      <point x="634" y="123"/>
      <point x="508" y="55"/>
      <point x="431" y="55" type="qcurve"/>
      <point x="370" y="55"/>
      <point x="262" y="99"/>
      <point x="178" y="177"/>
      <point x="125" y="282"/>
      <point x="120" y="343" type="qcurve"/>
      <point x="589" y="343" type="line"/>
      <point x="589" y="410" type="line"/>
    </contour>
  </outline>
</glyph>
<glyph name="Lje-cyrl" format="2">
  <advance width="1057"/>
  <unicode hex="0409"/>
  <outline>
    <contour>
      <point x="11" y="0" type="line"/>
      <point x="99" y="0" type="line"/>
      <point x="543" y="644" type="line"/>
      <point x="543" y="0" type="line"/>
      <point x="747" y="0" type="line"/>
      <point x="895" y="0"/>
      <point x="1032" y="104"/>
      <point x="1032" y="216" type="qcurve"/>
      <point x="1032" y="323"/>
      <point x="899" y="425"/>
      <point x="759" y="425" type="qcurve"/>
      <point x="617" y="425" type="line"/>
      <point x="617" y="739" type="line"/>
      <point x="522" y="739" type="line"/>
    </contour>
    <contour>
      <point x="617" y="67" type="line"/>
      <point x="617" y="358" type="line"/>
      <point x="754" y="358" type="line"/>
      <point x="862" y="358"/>
      <point x="957" y="291"/>
      <point x="957" y="215" type="qcurve"/>
      <point x="957" y="159"/>
      <point x="915" y="99"/>
      <point x="848" y="72"/>
      <point x="764" y="67"/>
      <point x="722" y="67" type="qcurve"/>
    </contour>
  </outline>
</glyph>
<glyph name="Nje-cyrl" format="2">
  <advance width="1017"/>
  <unicode hex="040A"/>
  <outline>
    <contour>
      <point x="76" y="0" type="line"/>
      <point x="150" y="0" type="line"/>
      <point x="150" y="358" type="line"/>
      <point x="503" y="358" type="line"/>
      <point x="503" y="0" type="line"/>
      <point x="707" y="0" type="line"/>
      <point x="855" y="0"/>
      <point x="992" y="104"/>
      <point x="992" y="216" type="qcurve"/>
      <point x="992" y="323"/>
      <point x="859" y="425"/>
      <point x="719" y="425" type="qcurve"/>
      <point x="577" y="425" type="line"/>
      <point x="577" y="739" type="line"/>
      <point x="503" y="739" type="line"/>
      <point x="503" y="425" type="line"/>
      <point x="150" y="425" type="line"/>
      <point x="150" y="739" type="line"/>
      <point x="76" y="739" type="line"/>
    </contour>
    <contour>
      <point x="577" y="67" type="line"/>
      <point x="577" y="358" type="line"/>
      <point x="714" y="358" type="line"/>
      <point x="822" y="358"/>
      <point x="917" y="291"/>
      <point x="917" y="215" type="qcurve"/>
      <point x="917" y="159"/>
      <point x="875" y="99"/>
      <point x="808" y="72"/>
      <point x="724" y="67"/>
      <point x="682" y="67" type="qcurve"/>
    </contour>
  </outline>
</glyph>
<glyph name="Tshe-cyrl" format="2">
  <advance width="705"/>
  <unicode hex="040B"/>
  <outline>
    <contour>
      <point x="176" y="0" type="line"/>
      <point x="250" y="0" type="line"/>
      <point x="250" y="371" type="line"/>
      <point x="287" y="373"/>
      <point x="345" y="375"/>
      <point x="380" y="375" type="qcurve"/>
      <point x="469" y="375"/>
      <point x="559" y="300"/>
      <point x="559" y="226" type="qcurve"/>
      <point x="559" y="0" type="line"/>
      <point x="633" y="0" type="line"/>
      <point x="633" y="226" type="line"/>
      <point x="633" y="279"/>
      <point x="601" y="359"/>
      <point x="538" y="414"/>
      <point x="445" y="442"/>
      <point x="385" y="442" type="qcurve"/>
      <point x="349" y="442"/>
      <point x="287" y="440"/>
      <point x="250" y="438" type="qcurve"/>
      <point x="250" y="672" type="line"/>
      <point x="439" y="672" type="line"/>
      <point x="439" y="739" type="line"/>
      <point x="7" y="739" type="line"/>
      <point x="7" y="672" type="line"/>
      <point x="176" y="672" type="line"/>
    </contour>
  </outline>
</glyph>
<glyph name="Kje-cyrl" format="2">
  <advance width="591"/>
  <unicode hex="040C"/>
  <outline>
    <contour>
      <point x="248" y="792" type="line"/>
      <point x="441" y="906" type="line"/>
      <point x="407" y="964" type="line"/>
      <point x="214" y="848" type="line"/>
    </contour>
    <contour>
      <point x="76" y="0" type="line"/>
      <point x="150" y="0" type="line"/>
      <point x="150" y="344" type="line"/>
      <point x="485" y="0" type="line"/>
      <point x="585" y="0" type="line"/>
      <point x="220" y="373" type="line"/>
      <point x="585" y="739" type="line"/>
      <point x="487" y="739" type="line"/>
      <point x="150" y="400" type="line"/>
      <point x="150" y="739" type="line"/>
      <point x="76" y="739" type="line"/>
    </contour>
  </outline>
</glyph>
<glyph name="Igrave-cyrl" format="2">
  <advance width="740"/>
  <unicode hex="040D"/>
  <outline>
    <contour>
      <point x="215" y="900" type="line"/>
      <point x="412" y="792" type="line"/>
      <point x="445" y="848" type="line"/>
      <point x="247" y="958" type="line"/>
    </contour>
    <contour>
      <point x="76" y="0" type="line"/>
      <point x="150" y="0" type="line"/>
      <point x="590" y="629" type="line"/>
      <point x="590" y="0" type="line"/>
      <point x="664" y="0" type="line"/>
      <point x="664" y="739" type="line"/>
      <point x="590" y="739" type="line"/>
      <point x="150" y="110" type="line"/>
      <point x="150" y="739" type="line"/>
      <point x="76" y="739" type="line"/>
    </contour>
  </outline>
</glyph>
<glyph name="Ushort-cyrl" format="2">
  <advance width="564"/>
  <unicode hex="040E"/>
  <outline>
    <contour>
      <point x="115" y="931" type="line"/>
      <point x="126" y="864"/>
      <point x="210" y="796"/>
      <point x="282" y="796" type="qcurve"/>
      <point x="354" y="796"/>
      <point x="438" y="864"/>
      <point x="449" y="931" type="qcurve"/>
      <point x="374" y="931" type="line"/>
      <point x="374" y="886"/>
      <point x="328" y="842"/>
      <point x="282" y="842" type="qcurve"/>
      <point x="236" y="842"/>
      <point x="190" y="886"/>
      <point x="190" y="931" type="qcurve"/>
    </contour>
    <contour>
      <point x="159" y="0" type="line"/>
      <point x="237" y="0" type="line"/>
      <point x="554" y="739" type="line"/>
      <point x="476" y="739" type="line"/>
      <point x="282" y="287" type="line"/>
      <point x="88" y="739" type="line"/>
      <point x="10" y="739" type="line"/>
      <point x="243" y="196" type="line"/>
    </contour>
  </outline>
</glyph>
<glyph name="Dzhe-cyrl" format="2">
  <advance width="668"/>
  <unicode hex="040F"/>
  <outline>
    <contour>
      <point x="76" y="0" type="line"/>
      <point x="293" y="0" type="line"/>
      <point x="308" y="-136" type="line"/>
      <point x="360" y="-136" type="line"/>
      <point x="375" y="0" type="line"/>
      <point x="592" y="0" type="line"/>
      <point x="592" y="739" type="line"/>
      <point x="518" y="739" type="line"/>
      <point x="518" y="67" type="line"/>
      <point x="150" y="67" type="line"/>
      <point x="150" y="739" type="line"/>
      <point x="76" y="739" type="line"/>
    </contour>
  </outline>
</glyph>
<glyph name="Be-cyrl" format="2">
  <advance width="585"/>
  <unicode hex="0411"/>
  <outline>
    <contour>
      <point x="150" y="67" type="line"/>
      <point x="150" y="365" type="line"/>
      <point x="283" y="365" type="line"/>
      <point x="336" y="365"/>
      <point x="400" y="354"/>
      <point x="421" y="341" type="qcurve"/>
      <point x="449" y="326"/>
      <point x="480" y="262"/>
      <point x="480" y="219" type="qcurve"/>
      <point x="480" y="167"/>
      <point x="438" y="96"/>
      <point x="399" y="83" type="qcurve"/>
      <point x="375" y="75"/>
      <point x="305" y="67"/>
      <point x="252" y="67" type="qcurve"/>
    </contour>
    <contour>
      <point x="76" y="0" type="line"/>
      <point x="277" y="0" type="line"/>
      <point x="311" y="0"/>
      <point x="367" y="4"/>
      <point x="413" y="14"/>
      <point x="452" y="29"/>
      <point x="469" y="39" type="qcurve"/>
      <point x="511" y="64"/>
      <point x="555" y="157"/>
      <point x="555" y="220" type="qcurve"/>
      <point x="555" y="276"/>
      <point x="518" y="362"/>
      <point x="483" y="387" type="qcurve"/>
      <point x="466" y="399"/>
      <point x="428" y="416"/>
      <point x="382" y="427"/>
      <point x="325" y="432"/>
      <point x="289" y="432" type="qcurve"/>
      <point x="150" y="432" type="line"/>
      <point x="150" y="672" type="line"/>
      <point x="509" y="672" type="line"/>
      <point x="509" y="739" type="line"/>
      <point x="76" y="739" type="line"/>
    </contour>
  </outline>
</glyph>
<glyph name="Ghe-cyrl" format="2">
  <advance width="444"/>
  <unicode hex="0413"/>
  <outline>
    <contour>
      <point x="76" y="0" type="line"/>
      <point x="150" y="0" type="line"/>
      <point x="150" y="672" type="line"/>
      <point x="437" y="672" type="line"/>
      <point x="437" y="739" type="line"/>
      <point x="76" y="739" type="line"/>
    </contour>
  </outline>
</glyph>
<glyph name="De-cyrl" format="2">
  <advance width="848"/>
  <unicode hex="0414"/>
  <outline>
    <contour>
      <point x="18" y="-136" type="line"/>
      <point x="70" y="-136" type="line"/>
      <point x="98" y="0" type="line"/>
      <point x="750" y="0" type="line"/>
      <point x="778" y="-136" type="line"/>
      <point x="830" y="-136" type="line"/>
      <point x="830" y="67" type="line"/>
      <point x="754" y="67" type="line"/>
      <point x="466" y="739" type="line"/>
      <point x="382" y="739" type="line"/>
      <point x="94" y="67" type="line"/>
      <point x="18" y="67" type="line"/>
    </contour>
    <contour>
      <point x="173" y="67" type="line"/>
      <point x="424" y="655" type="line"/>
      <point x="675" y="67" type="line"/>
    </contour>
  </outline>
</glyph>
<glyph name="Zhe-cyrl" format="2">
  <advance width="830"/>
  <unicode hex="0416"/>
  <outline>
    <contour>
      <point x="6" y="0" type="line"/>
      <point x="99" y="0" type="line"/>
      <point x="378" y="350" type="line"/>
      <point x="378" y="0" type="line"/>
      <point x="452" y="0" type="line"/>
      <point x="452" y="350" type="line"/>
      <point x="731" y="0" type="line"/>
      <point x="824" y="0" type="line"/>
      <point x="525" y="373" type="line"/>
      <point x="824" y="739" type="line"/>
      <point x="732" y="739" type="line"/>
      <point x="452" y="394" type="line"/>
      <point x="452" y="739" type="line"/>
      <point x="378" y="739" type="line"/>
      <point x="378" y="394" type="line"/>
      <point x="98" y="739" type="line"/>
      <point x="6" y="739" type="line"/>
      <point x="305" y="373" type="line"/>
    </contour>
  </outline>
</glyph>
<glyph name="Ze-cyrl" format="2">
  <advance width="518"/>
  <unicode hex="0417"/>
  <outline>
    <contour>
      <point x="18" y="213" type="line"/>
      <point x="18" y="167"/>
      <point x="55" y="84"/>
      <point x="118" y="23"/>
      <point x="203" y="-13"/>
      <point x="251" y="-13" type="qcurve"/>
      <point x="299" y="-13"/>
      <point x="384" y="22"/>
      <point x="447" y="83"/>
      <point x="484" y="165"/>
      <point x="484" y="211" type="qcurve"/>
      <point x="484" y="245"/>
      <point x="459" y="309"/>
      <point x="417" y="362"/>
      <point x="360" y="400"/>
      <point x="328" y="406" type="qcurve"/>
      <point x="382" y="418"/>
      <point x="450" y="503"/>
      <point x="450" y="558" type="qcurve"/>
      <point x="450" y="598"/>
      <point x="418" y="669"/>
      <point x="364" y="721"/>
      <point x="290" y="752"/>
      <point x="249" y="752" type="qcurve"/>
      <point x="208" y="752"/>
      <point x="135" y="721"/>
      <point x="80" y="667"/>
      <point x="48" y="596"/>
      <point x="48" y="556" type="qcurve"/>
      <point x="125" y="556" type="line"/>
      <point x="125" y="582"/>
      <point x="145" y="628"/>
      <point x="178" y="663"/>
      <point x="223" y="683"/>
      <point x="249" y="683" type="qcurve"/>
      <point x="275" y="683"/>
      <point x="320" y="663"/>
      <point x="353" y="628"/>
      <point x="373" y="582"/>
      <point x="373" y="556" type="qcurve"/>
      <point x="373" y="497"/>
      <point x="288" y="434"/>
      <point x="208" y="434" type="qcurve"/>
      <point x="208" y="367" type="line"/>
      <point x="302" y="367"/>
      <point x="405" y="286"/>
      <point x="405" y="213" type="qcurve"/>
      <point x="405" y="181"/>
      <point x="381" y="124"/>
      <point x="339" y="81"/>
      <point x="283" y="57"/>
      <point x="251" y="57" type="qcurve"/>
      <point x="219" y="57"/>
      <point x="163" y="81"/>
      <point x="121" y="124"/>
      <point x="97" y="181"/>
      <point x="97" y="213" type="qcurve"/>
    </contour>
  </outline>
</glyph>
<glyph name="I-cyrl" format="2">
  <advance width="740"/>
  <unicode hex="0418"/>
  <outline>
    <contour>
      <point x="76" y="0" type="line"/>
      <point x="150" y="0" type="line"/>
      <point x="590" y="629" type="line"/>
      <point x="590" y="0" type="line"/>
      <point x="664" y="0" type="line"/>
      <point x="664" y="739" type="line"/>
      <point x="590" y="739" type="line"/>
      <point x="150" y="110" type="line"/>
      <point x="150" y="739" type="line"/>
      <point x="76" y="739" type="line"/>
    </contour>
  </outline>
</glyph>
<glyph name="Ishort-cyrl" format="2">
  <advance width="740"/>
  <unicode hex="0419"/>
  <outline>
    <contour>
      <point x="203" y="931" type="line"/>
      <point x="214" y="864"/>
      <point x="298" y="796"/>
      <point x="370" y="796" type="qcurve"/>
      <point x="442" y="796"/>
      <point x="526" y="864"/>
      <point x="537" y="931" type="qcurve"/>
      <point x="462" y="931" type="line"/>
      <point x="462" y="886"/>
      <point x="416" y="842"/>
      <point x="370" y="842" type="qcurve"/>
      <point x="324" y="842"/>
      <point x="278" y="886"/>
      <point x="278" y="931" type="qcurve"/>
    </contour>
    <contour>
      <point x="76" y="0" type="line"/>
      <point x="150" y="0" type="line"/>
      <point x="590" y="629" type="line"/>
      <point x="590" y="0" type="line"/>
      <point x="664" y="0" type="line"/>
      <point x="664" y="739" type="line"/>
      <point x="590" y="739" type="line"/>
      <point x="150" y="110" type="line"/>
      <point x="150" y="739" type="line"/>
      <point x="76" y="739" type="line"/>
    </contour>
  </outline>
</glyph>
<glyph name="Ka-cyrl" format="2">
  <advance width="591"/>
  <unicode hex="041A"/>
  <outline>
    <contour>
      <point x="76" y="0" type="line"/>
      <point x="150" y="0" type="line"/>
      <point x="150" y="344" type="line"/>
      <point x="485" y="0" type="line"/>
      <point x="585" y="0" type="line"/>
      <point x="220" y="373" type="line"/>
      <point x="585" y="739" type="line"/>
      <point x="487" y="739" type="line"/>
      <point x="150" y="400" type="line"/>
      <point x="150" y="739" type="line"/>
      <point x="76" y="739" type="line"/>
    </contour>
  </outline>
</glyph>
<glyph name="El-cyrl" format="2">
  <advance width="740"/>
  <unicode hex="041B"/>
  <outline>
    <contour>
      <point x="11" y="0" type="line"/>
      <point x="91" y="0" type="line"/>
      <point x="370" y="655" type="line"/>
      <point x="649" y="0" type="line"/>
      <point x="729" y="0" type="line"/>
      <point x="411" y="739" type="line"/>
      <point x="329" y="739" type="line"/>
    </contour>
  </outline>
</glyph>
<glyph name="Pe-cyrl" format="2">
  <advance width="669"/>
  <unicode hex="041F"/>
  <outline>
    <contour>
      <point x="76" y="0" type="line"/>
      <point x="150" y="0" type="line"/>
      <point x="150" y="672" type="line"/>
      <point x="519" y="672" type="line"/>
      <point x="519" y="0" type="line"/>
      <point x="593" y="0" type="line"/>
      <point x="593" y="739" type="line"/>
      <point x="76" y="739" type="line"/>
    </contour>
  </outline>
</glyph>
<glyph name="U-cyrl" format="2">
  <advance width="564"/>
  <unicode hex="0423"/>
  <outline>
    <contour>
      <point x="159" y="0" type="line"/>
      <point x="237" y="0" type="line"/>
      <point x="554" y="739" type="line"/>
      <point x="476" y="739" type="line"/>
      <point x="282" y="287" type="line"/>
      <point x="88" y="739" type="line"/>
      <point x="10" y="739" type="line"/>
      <point x="243" y="196" type="line"/>
    </contour>
  </outline>
</glyph>
<glyph name="Ef-cyrl" format="2">
  <advance width="812"/>
  <unicode hex="0424"/>
  <outline>
    <contour>
      <point x="369" y="0" type="line"/>
      <point x="443" y="0" type="line"/>
      <point x="443" y="54" type="line"/>
      <point x="517" y="59"/>
      <point x="640" y="112"/>
      <point x="728" y="196"/>
      <point x="776" y="310"/>
      <point x="776" y="376" type="qcurve"/>
      <point x="776" y="440"/>
      <point x="726" y="553"/>
      <point x="637" y="639"/>
      <point x="515" y="693"/>
      <point x="443" y="699" type="qcurve"/>
      <point x="443" y="739" type="line"/>
      <point x="369" y="739" type="line"/>
      <point x="369" y="699" type="line"/>
      <point x="297" y="693"/>
      <point x="175" y="639"/>
      <point x="86" y="553"/>
      <point x="36" y="440"/>
      <point x="36" y="376" type="qcurve"/>
      <point x="36" y="310"/>
      <point x="84" y="196"/>
      <point x="172" y="112"/>
      <point x="295" y="59"/>
      <point x="369" y="54" type="qcurve"/>
    </contour>
    <contour>
      <point x="369" y="122" type="line"/>
      <point x="311" y="127"/>
      <point x="216" y="169"/>
      <point x="148" y="236"/>
      <point x="111" y="324"/>
      <point x="111" y="376" type="qcurve"/>
      <point x="111" y="426"/>
      <point x="149" y="515"/>
      <point x="218" y="583"/>
      <point x="313" y="626"/>
      <point x="369" y="631" type="qcurve"/>
    </contour>
    <contour>
      <point x="443" y="631" type="line"/>
      <point x="499" y="626"/>
      <point x="594" y="583"/>
      <point x="663" y="515"/>
      <point x="701" y="426"/>
      <point x="701" y="376" type="qcurve"/>
      <point x="701" y="324"/>
      <point x="664" y="236"/>
      <point x="596" y="169"/>
      <point x="501" y="127"/>
      <point x="443" y="122" type="qcurve"/>
    </contour>
  </outline>
</glyph>
<glyph name="Tse-cyrl" format="2">
  <advance width="706"/>
  <unicode hex="0426"/>
  <outline>
    <contour>
      <point x="76" y="0" type="line"/>
      <point x="600" y="0" type="line"/>
      <point x="628" y="-136" type="line"/>
      <point x="680" y="-136" type="line"/>
      <point x="680" y="67" type="line"/>
      <point x="583" y="67" type="line"/>
      <point x="583" y="739" type="line"/>
      <point x="509" y="739" type="line"/>
      <point x="509" y="67" type="line"/>
      <point x="150" y="67" type="line"/>
      <point x="150" y="739" type="line"/>
      <point x="76" y="739" type="line"/>
    </contour>
  </outline>
</glyph>
<glyph name="Che-cyrl" format="2">
  <advance width="595"/>
  <unicode hex="0427"/>
  <outline>
    <contour>
      <point x="445" y="0" type="line"/>
      <point x="519" y="0" type="line"/>
      <point x="519" y="739" type="line"/>
      <point x="445" y="739" type="line"/>
      <point x="445" y="368" type="line"/>
      <point x="398" y="362"/>
      <point x="338" y="357"/>
      <point x="310" y="357" type="qcurve"/>
      <point x="206" y="357"/>
      <point x="118" y="427"/>
      <point x="118" y="510" type="qcurve"/>
      <point x="118" y="739" type="line"/>
      <point x="43" y="739" type="line"/>
      <point x="43" y="510" type="line"/>
      <point x="43" y="395"/>
      <point x="168" y="290"/>
      <point x="305" y="290" type="qcurve"/>
      <point x="336" y="290"/>
      <point x="397" y="295"/>
      <point x="445" y="301" type="qcurve"/>
    </contour>
  </outline>
</glyph>
<glyph name="Sha-cyrl" format="2">
  <advance width="896"/>
  <unicode hex="0428"/>
  <outline>
    <contour>
      <point x="76" y="0" type="line"/>
      <point x="820" y="0" type="line"/>
      <point x="820" y="739" type="line"/>
      <point x="746" y="739" type="line"/>
      <point x="746" y="67" type="line"/>
      <point x="485" y="67" type="line"/>
      <point x="485" y="739" type="line"/>
      <point x="411" y="739" type="line"/>
      <point x="411" y="67" type="line"/>
      <point x="150" y="67" type="line"/>
      <point x="150" y="739" type="line"/>
      <point x="76" y="739" type="line"/>
    </contour>
  </outline>
</glyph>
<glyph name="Shcha-cyrl" format="2">
  <advance width="943"/>
  <unicode hex="0429"/>
  <outline>
    <contour>
      <point x="76" y="0" type="line"/>
      <point x="837" y="0" type="line"/>
      <point x="865" y="-136" type="line"/>
      <point x="917" y="-136" type="line"/>
      <point x="917" y="67" type="line"/>
      <point x="820" y="67" type="line"/>
      <point x="820" y="739" type="line"/>
      <point x="746" y="739" type="line"/>
      <point x="746" y="67" type="line"/>
      <point x="485" y="67" type="line"/>
      <point x="485" y="739" type="line"/>
      <point x="411" y="739" type="line"/>
      <point x="411" y="67" type="line"/>
      <point x="150" y="67" type="line"/>
      <point x="150" y="739" type="line"/>
      <point x="76" y="739" type="line"/>
    </contour>
  </outline>
</glyph>
